<svg xmlns="http://www.w3.org/2000/svg" xmlns:xlink="http://www.w3.org/1999/xlink" width="68" height="68" viewBox="0 0 68 68">
  <defs>
    <clipPath id="clip-path">
      <rect id="Rectangle_53" data-name="Rectangle 53" width="62.625" height="46.18" fill="none"/>
    </clipPath>
  </defs>
  <g id="neonatology" transform="translate(-699 -279)">
    <rect id="Rectangle_52" data-name="Rectangle 52" width="68" height="68" rx="3" transform="translate(699 279)" fill="#fff"/>
    <g id="Group_36" data-name="Group 36" transform="translate(704.35 291.783)">
      <g id="Group_35" data-name="Group 35" transform="translate(-2.663 -1.964)" clip-path="url(#clip-path)">
        <path id="Path_64" data-name="Path 64" d="M47.328,0C39.289,0,33.39,5.665,27.684,11.145c-5.09,4.888-9.9,9.506-15.691,9.506-5.508,0-10.045-5.375-9.277-9.95.811-4.826,5.892-8.865,12.489-8.865,4.7,0,8.465,1.307,14.576,5.973C26.6,4.084,20.422,0,15.206,0,5.45,0,0,6.539,0,15.488,0,31.262,25.134,44.533,31.267,46.18c0,0-28.957-15.156-29.368-30.578a11.721,11.721,0,0,1,.2-2.223C3.733,20.6,9.819,23.407,16.06,21.431c4.667-1.478,8.83-4.921,12.9-8.962C34.309,7.15,40.028,1.836,47.328,1.836c7.591,0,16.769,8.568,13.526,19.348A8.768,8.768,0,0,0,62.625,15.6,15.362,15.362,0,0,0,47.328,0" transform="translate(0 0)"/>
        <path id="Path_65" data-name="Path 65" d="M390.33,321.294a2.776,2.776,0,0,1,2.543-1.558,2.948,2.948,0,0,1,2.762,2.134c.47,1.287.094,4.826-1.027,5.829a8.288,8.288,0,0,0-.06-5.317,1.767,1.767,0,0,0-1.637-1.229,1.726,1.726,0,0,0-1.575,1.1c-1.385,3.122-1.157,10.608,9.872,7.829-4.7,2.343-8.868,1.275-10.183-.732s-2.125-5.435-.7-8.058" transform="translate(-358.946 -294.597)" fill="#ed8851"/>
        <path id="Path_66" data-name="Path 66" d="M238.421,323.674c-5.545-1.1-7.933,7.5-8.07,8.272-3.588.993-1.658,6.359,3.24,3.366a7.216,7.216,0,0,0,1.65-1.691l.018-1.75a9.043,9.043,0,0,1-2.611,2.726c-.875.443-2.333.845-2.943.06-.533-.688.628-1.889,1.618-2.158.143-.8,2.389-8.161,6.435-7.519,2.811.445,4.812,4.689,2.877,10.615,3.195-3.969,1.839-11.118-2.214-11.919" transform="translate(-210.536 -298.138)" fill="#ed8851"/>
        <path id="Path_67" data-name="Path 67" d="M339.466,118.127a11.3,11.3,0,0,0-7.254-4.882c-6.218-1.242-11.934,3.286-14.228,8.042-4.108,3.272-3.755,13.4,7.588,14.763-11.982-4-8.807-12.418-6.37-13.962l.085-.184c1.991-4.3,7.094-8.272,12.627-7.166a9.79,9.79,0,0,1,6.283,4.231,9.929,9.929,0,0,1,1.456,7.548c-.668,3.228-3.848,7.177-7.271,7.626,2.424,1.457-.219,3.96-2.557,1.317-1.048.236-2.6,2.142-3.957,4.129-4.532,6.635-12.884,11.4-18.275,4-2.07-2.84-1.728-5.77.005-8.438.213-.327-.165-.624-.6-.149a7.407,7.407,0,0,0-.311,9.688c6.286,7.684,15.7,2.264,19.886-4.665,1.445-2.393,2.542-3.463,3.545-3.31,3.151,2.484,5.723-.556,3.99-2.168,3.753-1.571,6.32-4.242,7.04-7.723a11.452,11.452,0,0,0-1.678-8.7" transform="translate(-281.048 -104.151)" fill="#ed8851"/>
        <path id="Path_68" data-name="Path 68" d="M497.518,239.931a3.606,3.606,0,0,0,2.368,2.766c-.161.488-1.521.341-2.344-.508-1.215-1.256-.415-2.243-.024-2.258" transform="translate(-457.83 -221.067)" fill="#ed8851"/>
        <path id="Path_69" data-name="Path 69" d="M570.263,313.745a3.608,3.608,0,0,1-2.808-2.318c-.485.168-.314,1.526.55,2.334,1.277,1.193,2.25.376,2.258-.016" transform="translate(-522.595 -286.942)" fill="#ed8851"/>
        <path id="Path_70" data-name="Path 70" d="M505.448,320.437a2.669,2.669,0,0,1-1.834-1.749,1.253,1.253,0,0,0,.127,1.782,1.15,1.15,0,0,0,1.707-.034" transform="translate(-463.734 -293.632)" fill="#ed8851"/>
        <path id="Path_71" data-name="Path 71" d="M624.471,161.031c.8.4,1.054.934.9,1.532a1.574,1.574,0,0,1-2,.95,2.112,2.112,0,0,1-1.511-2.574c.418-1.6,2.278-3.295,5.619-1.6-3.246-2.405-5.452-.91-6.373,1.216a2.941,2.941,0,0,0,1.955,3.965c2.187.721,4.117-1.594,3.123-3.068-.92-1.366-2.507-.823-1.712-.422" transform="translate(-572.055 -145.676)" fill="#ed8851"/>
      </g>
    </g>
  </g>
</svg>
