<svg xmlns="http://www.w3.org/2000/svg" xmlns:xlink="http://www.w3.org/1999/xlink" width="68" height="68" viewBox="0 0 68 68">
  <defs>
    <clipPath id="clip-_01-Counters-Hospitals">
      <rect width="68" height="68"/>
    </clipPath>
  </defs>
  <g id="_01-Counters-Hospitals" data-name="01-Counters-Hospitals" clip-path="url(#clip-_01-Counters-Hospitals)">
    <g id="Group_11376" data-name="Group 11376" transform="translate(6 6)">
      <path id="Path_1792" data-name="Path 1792" d="M7.856,18.391c0-3.735,0-7.292,0-10.847,0-1.909.3-2.214,2.183-2.217,1.833,0,3.667,0,5.6,0,.03-.5.051-.894.078-1.287A3.936,3.936,0,0,1,19.709.053q6.5-.109,13.007,0a3.919,3.919,0,0,1,3.991,3.854c.035.4,0,.809,0,1.419h5.305c2.4,0,2.562.167,2.562,2.576,0,3.434,0,6.869,0,10.489,1.958,0,3.863,0,5.768,0,1.71,0,2.084.365,2.085,2.078q.006,14.909,0,29.819c0,1.765-.4,2.168-2.159,2.169q-24.051,0-48.1,0C.407,52.457,0,52.056,0,50.3Q0,35.389,0,20.48c0-1.717.377-2.086,2.075-2.089,1.874,0,3.747,0,5.778,0M19.639,49.752V48.381c0-2.823-.01-5.646,0-8.468.008-1.471.434-1.879,1.91-1.882q4.664-.009,9.327,0c1.476,0,1.893.409,1.91,1.883.017,1.514,0,3.027,0,4.541v5.294H41.87V7.959H36.723v1.4c0,2.455.024,4.909-.008,7.363a3.992,3.992,0,0,1-4.178,4.3c-4.213.048-8.427.032-12.641,0a3.842,3.842,0,0,1-3.846-2.515,6.24,6.24,0,0,1-.324-2.16c-.035-2.772-.014-5.544-.014-8.392H10.6V49.752ZM26.215,2.673q-3.13,0-6.259,0a1.4,1.4,0,0,0-1.6,1.571q0,6.259,0,12.519c0,1.124.554,1.634,1.664,1.632q6.2-.013,12.4,0a1.441,1.441,0,0,0,1.661-1.636c-.005-4.132.006-8.264-.007-12.4,0-1.224-.474-1.676-1.72-1.685-2.045-.015-4.091,0-6.137,0M7.774,21.121H2.723V49.767h5.05Zm41.938,0H44.66V49.764h5.051ZM30.083,40.753H22.351v9h7.732Z" transform="translate(0 0)" stroke="#fff" stroke-width="1"/>
      <path id="Path_1793" data-name="Path 1793" d="M66.948,130.814c-.486,0-1.057.16-1.438-.041a2.073,2.073,0,0,1-1.076-1.224,1.5,1.5,0,0,1,.889-1.2,10.119,10.119,0,0,1,3.242-.019,1.61,1.61,0,0,1,.94,1.278c-.029.427-.643.936-1.118,1.172a3.549,3.549,0,0,1-1.44.04v-.008" transform="translate(-48.615 -96.737)" fill="#ec8046" stroke="#fff" stroke-width="1"/>
      <path id="Path_1794" data-name="Path 1794" d="M98.962,130.669c-.446,0-.98.154-1.317-.038-.5-.282-1.108-.773-1.18-1.249-.056-.371.579-1.145,1.007-1.229a7.767,7.767,0,0,1,3.006-.007,1.709,1.709,0,0,1,1.041,1.316c-.03.429-.731.91-1.238,1.173-.351.183-.874.035-1.32.034" transform="translate(-72.782 -96.58)" fill="#ec8046" stroke="#fff" stroke-width="1"/>
      <path id="Path_1795" data-name="Path 1795" d="M130.935,130.6c-.406,0-.894.142-1.2-.034-.5-.288-1.2-.767-1.219-1.2a1.729,1.729,0,0,1,1.065-1.3,6.829,6.829,0,0,1,2.886-.008,1.86,1.86,0,0,1,1.125,1.294c.1.747-.5,1.231-1.321,1.247-.446.009-.892,0-1.338,0" transform="translate(-96.969 -96.509)" fill="#ec8046" stroke="#fff" stroke-width="1"/>
      <path id="Path_1796" data-name="Path 1796" d="M67.027,104.012c-.448,0-.979.152-1.324-.036-.5-.272-1.184-.785-1.193-1.207s.664-1.116,1.142-1.222a6.549,6.549,0,0,1,2.784,0,1.813,1.813,0,0,1,1.13,1.25c.045.35-.623.929-1.093,1.165a3.544,3.544,0,0,1-1.445.04v.008" transform="translate(-48.674 -76.506)" fill="#ec8046" stroke="#fff" stroke-width="1"/>
      <path id="Path_1797" data-name="Path 1797" d="M99.017,104a3.539,3.539,0,0,1-1.445-.04c-.471-.236-1.139-.817-1.093-1.166a1.817,1.817,0,0,1,1.133-1.25,6.554,6.554,0,0,1,2.784,0c.477.106,1.148.805,1.139,1.223s-.694.934-1.193,1.206c-.345.188-.876.036-1.324.036V104" transform="translate(-72.793 -76.507)" fill="#ec8046" stroke="#fff" stroke-width="1"/>
      <path id="Path_1798" data-name="Path 1798" d="M131.028,104a3.565,3.565,0,0,1-1.446-.04c-.473-.235-1.145-.809-1.1-1.159a1.812,1.812,0,0,1,1.124-1.257,6.55,6.55,0,0,1,2.784,0c.479.106,1.154.8,1.148,1.216s-.687.939-1.184,1.213c-.343.19-.876.036-1.324.036V104" transform="translate(-96.939 -76.507)" fill="#ec8046" stroke="#fff" stroke-width="1"/>
      <path id="Path_1799" data-name="Path 1799" d="M89.6,28.254c-.974,0-1.78.009-2.586,0a1.268,1.268,0,1,1,0-2.534c.806-.011,1.613,0,2.584,0,0-.912,0-1.676,0-2.439,0-.845.3-1.455,1.246-1.47.934-.015,1.274.542,1.312,1.409.035.8-.138,1.842.291,2.313.367.4,1.457.159,2.227.181.806.023,1.352.343,1.379,1.214.028.925-.5,1.3-1.379,1.34-.8.036-1.838-.15-2.323.274-.4.353-.176,1.449-.2,2.217-.024.868-.376,1.425-1.31,1.409-.95-.016-1.247-.627-1.245-1.472,0-.733,0-1.465,0-2.437" transform="translate(-64.663 -16.453)" fill="#ec8046" stroke="#fff" stroke-width="1"/>
    </g>
  </g>
</svg>
