<svg xmlns="http://www.w3.org/2000/svg" xmlns:xlink="http://www.w3.org/1999/xlink" width="68" height="68" viewBox="0 0 68 68">
  <defs>
    <clipPath id="clip-_03-Diagnostic_centres">
      <rect width="68" height="68"/>
    </clipPath>
  </defs>
  <g id="_03-Diagnostic_centres" data-name="03-Diagnostic centres" clip-path="url(#clip-_03-Diagnostic_centres)">
    <g id="Group_11375" data-name="Group 11375" transform="translate(2 2)">
      <g id="Group_11340" data-name="Group 11340" transform="translate(6.677 7.594)">
        <path id="Path_5880" data-name="Path 5880" d="M133.955,96H145.7v2.137h-8.881a.755.755,0,1,0,0,1.511H145.7v2.137h-8.881a.755.755,0,1,0,0,1.511H145.7v2.136h-5.568a.755.755,0,1,0,0,1.511H145.7v4.629h-4.964a.21.21,0,0,0-.086.011,3.062,3.062,0,1,0,3.237,3.054,3.018,3.018,0,0,0-.421-1.554h6.064a3.018,3.018,0,0,0-.421,1.554,3.064,3.064,0,1,0,3.064-3.064h-4.964v-4.629h5.568a.755.755,0,1,0,0-1.511h-5.568V103.3h7.337a.755.755,0,1,0,0-1.511h-7.337V99.649h8.881a.755.755,0,1,0,0-1.511h-8.881V96h11.74a.755.755,0,0,0,0-1.511h-11.74V92.354h8.881a.755.755,0,1,0,0-1.511h-8.881V88.707h6.668a.755.755,0,1,0,0-1.511h-6.668V85.06h4.964a.755.755,0,0,0,0-1.511h-4.964V80.355a.755.755,0,0,0-1.511,0v3.194h-4.964a.755.755,0,0,0,0,1.511H145.7V87.2h-6.668a.755.755,0,1,0,0,1.511H145.7v2.137h-8.881a.755.755,0,1,0,0,1.511H145.7v2.137h-11.74a.755.755,0,0,0,0,1.511Zm6.874,20.189a1.554,1.554,0,1,1,1.554-1.554A1.554,1.554,0,0,1,140.829,116.19Zm11.341-3.108a1.554,1.554,0,1,1-1.554,1.554A1.561,1.561,0,0,1,152.17,113.083Z" transform="translate(-120.877 -74.194)" fill="#ec8046"/>
      </g>
      <path id="Path_5881" data-name="Path 5881" d="M134.449,112.645h37.494a7.845,7.845,0,0,0,7.836-7.836v-36.6a7.845,7.845,0,0,0-7.836-7.836H134.45a7.845,7.845,0,0,0-7.836,7.836v36.6a7.845,7.845,0,0,0,7.836,7.836Zm-6.355-44.434a6.362,6.362,0,0,1,6.355-6.355h37.494a6.362,6.362,0,0,1,6.355,6.355v36.6a6.362,6.362,0,0,1-6.355,6.355H134.449a6.362,6.362,0,0,1-6.355-6.355Z" transform="translate(-121.614 -54.376)"/>
    </g>
  </g>
</svg>
