<svg xmlns="http://www.w3.org/2000/svg" xmlns:xlink="http://www.w3.org/1999/xlink" width="68" height="68" viewBox="0 0 68 68">
  <defs>
    <clipPath id="clip-_06-Doctors">
      <rect width="68" height="68"/>
    </clipPath>
  </defs>
  <g id="_06-Doctors" data-name="06-Doctors" clip-path="url(#clip-_06-Doctors)">
    <g id="Group_10754" data-name="Group 10754" transform="translate(-0.192 1)">
      <path id="Path_4" data-name="Path 4" d="M41.779,33.052c7.515,0,13.627-7.684,13.627-14.923A13.4,13.4,0,0,0,41.779,5,13.4,13.4,0,0,0,28.151,18.13C28.152,25.368,34.265,33.052,41.779,33.052Z" transform="translate(-7.567)" fill="none" stroke="#ec8046" stroke-width="1.4"/>
      <path id="Path_5" data-name="Path 5" d="M45.612,52.329a8.065,8.065,0,0,1,3.737,6.091,3.988,3.988,0,1,1-1.841.024,6.315,6.315,0,0,0-4.026-5.174l-9.005,8.27-9.124-8.38a6.306,6.306,0,0,0-4.358,5.751,1.992,1.992,0,0,1,.818.893,7.518,7.518,0,0,1,3.353,3.7,1.262,1.262,0,0,1,.059.966,11.435,11.435,0,0,1,.834,4.033c0,1.723,0,3.352-1.916,3.77a1.166,1.166,0,0,1-.74.262H22.121a1.155,1.155,0,0,1-1.164-1.141v-.044a1.161,1.161,0,0,1,1.163-1.1H23.4a1.164,1.164,0,0,1,.383.064.345.345,0,0,0,.1-.04,6.5,6.5,0,0,0,.142-1.774,9.4,9.4,0,0,0-.7-3.325,1.291,1.291,0,0,1-.535-.561c-.777-1.593-1.832-2.622-2.69-2.622-.877,0-1.985,1.112-2.758,2.767a1.312,1.312,0,0,1-.62.62A9.153,9.153,0,0,0,16.1,68.5a6.051,6.051,0,0,0,.162,1.779.658.658,0,0,0,.14.046,1.187,1.187,0,0,1,.417-.076H18.1a1.157,1.157,0,0,1,1.158,1.026l.007.071A1.164,1.164,0,0,1,18.1,72.53H16.818a1.169,1.169,0,0,1-.7-.235,2.218,2.218,0,0,1-1.576-.967,5.247,5.247,0,0,1-.468-2.83,11.264,11.264,0,0,1,.808-3.959,1.243,1.243,0,0,1,.076-.856,9.517,9.517,0,0,1,2-2.88,5.523,5.523,0,0,1,1.341-.947,2.021,2.021,0,0,1,.863-.95,8.046,8.046,0,0,1,3.827-6.617A17.554,17.554,0,0,0,9.192,69.305c0,4.776,11.2,8.649,25.02,8.649s25.02-3.873,25.02-8.649A17.549,17.549,0,0,0,45.612,52.329Z" transform="translate(0 -17.774)" fill="none" stroke="#000" stroke-width="1.4"/>
      <circle id="Ellipse_4" data-name="Ellipse 4" cx="1.803" cy="1.803" r="1.803" transform="translate(46.697 42.349)" fill="none" stroke="#0b8dac" stroke-width="1.4"/>
    </g>
  </g>
</svg>
