<svg xmlns="http://www.w3.org/2000/svg" xmlns:xlink="http://www.w3.org/1999/xlink" width="68" height="68" viewBox="0 0 68 68">
  <defs>
    <clipPath id="clip-path">
      <rect id="Rectangle_532" data-name="Rectangle 532" width="64" height="60"/>
    </clipPath>
  </defs>
  <g id="consultonline_icon" transform="translate(-2597 419)">
    <rect id="Rectangle_3009" data-name="Rectangle 3009" width="68" height="68" rx="3" transform="translate(2597 -419)" fill="#eceef3" opacity="0"/>
    <g id="Group_10683" data-name="Group 10683" transform="translate(2599 -415)" clip-path="url(#clip-path)">
      <path id="Path_1772" data-name="Path 1772" d="M25.034,55.669A15.54,15.54,0,0,1,16.4,59.84C8.82,60.889,1.433,55.584.211,48.21a14.072,14.072,0,0,1,1.815-9.742Q11.232,22.835,20.489,7.23C23.725,1.8,29.3-.723,35.708.18A14.362,14.362,0,0,1,47.32,10.942a13.882,13.882,0,0,1-1.77,10.785c-2.263,3.789-4.492,7.6-6.734,11.4-.2.346-.4.7-.7,1.235.767-.045,1.361-.082,1.955-.114,6.307-.334,12.554-.068,18.634,1.812a16.421,16.421,0,0,1,2.077.813c2.126.99,3.336,2.427,3.21,4.961-.184,3.7-.09,7.407-.027,11.11a3.907,3.907,0,0,1-1.948,3.578A20.306,20.306,0,0,1,53.936,59.2,59.747,59.747,0,0,1,32.1,58.78a14.6,14.6,0,0,1-7.069-3.111m9.752-20.94c.161-.1.258-.133.3-.2,2.982-5.065,6.1-10.059,8.9-15.222a11.463,11.463,0,0,0-4.558-15.2C34.066.945,26.875,2.2,23.472,7.312c-3.325,4.995-6.185,10.285-9.245,15.447-.037.062-.018.156-.034.346L34.786,34.729m-21.91-9.545a3.027,3.027,0,0,0-.33.363C9.683,30.4,6.8,35.239,3.976,40.114A10.672,10.672,0,0,0,2.732,48a11.368,11.368,0,0,0,8.453,9.038,11.773,11.773,0,0,0,12.257-3.4,3.07,3.07,0,0,0,.721-1.936c.071-3.374.145-6.756-.006-10.125a4.4,4.4,0,0,1,2.861-4.526c1.252-.594,2.568-1.057,3.986-1.631L12.876,25.184m48.576,19a54.86,54.86,0,0,1-34.757,0c0,2.81.038,5.693-.022,8.573A1.81,1.81,0,0,0,27.836,54.7a29.512,29.512,0,0,0,4.535,1.628,54.615,54.615,0,0,0,21.676.33,35.355,35.355,0,0,0,6.227-2A2.108,2.108,0,0,0,61.4,53.126c.108-3.005.052-6.016.052-8.947m-12.24-7.148a46.634,46.634,0,0,0-16.639.721,31.359,31.359,0,0,0-5.179,1.957c-.658.286-1.117,1.084-.213,1.485a42.32,42.32,0,0,0,6.228,2.279c.721.192,1.7-.405,2.519-.725,1.232-.478,2.436-1.025,3.65-1.55q4.819-2.082,9.634-4.169M39.15,44.1a46.12,46.12,0,0,0,14.339-.373,39.965,39.965,0,0,0,7.038-2.246c1.249-.505,1.229-1.3.011-1.9-1.5-.738-3.149-1.2-4.725-1.8a3.4,3.4,0,0,0-2.738.242c-4.194,1.853-8.416,3.644-12.625,5.462-.44.19-.867.407-1.3.612"/>
      <path id="Path_1773" data-name="Path 1773" d="M105.5,20.089c-.232.219-.556.774-1.013.916a8.1,8.1,0,0,0-4.653,3.446,1.118,1.118,0,0,1-1.781.377,1.755,1.755,0,0,1-.253-1.665,9.373,9.373,0,0,1,5.958-4.459c.932-.26,1.685.26,1.743,1.384" transform="translate(-73.287 -14.088)" fill="#ec8046"/>
      <path id="Path_1774" data-name="Path 1774" d="M137.071,19.277c-.818.588-1.229,1.093-1.725,1.191a.967.967,0,0,1-1.234-1.117c.086-.463.686-1.142,1.085-1.162.483-.025,1,.544,1.873,1.087" transform="translate(-100.594 -13.748)" fill="#ec8046"/>
    </g>
  </g>
</svg>
