<svg xmlns="http://www.w3.org/2000/svg" xmlns:xlink="http://www.w3.org/1999/xlink" width="68" height="68" viewBox="0 0 68 68">
  <defs>
    <clipPath id="clip-path">
      <rect id="Rectangle_554" data-name="Rectangle 554" width="60" height="60"/>
    </clipPath>
  </defs>
  <g id="findhsptl_icon" transform="translate(-3018 423)">
    <rect id="Rectangle_3013" data-name="Rectangle 3013" width="68" height="68" rx="3" transform="translate(3018 -423)" fill="#eceef3" opacity="0"/>
    <g id="Group_12206" data-name="Group 12206" transform="translate(1442 -1632)">
      <g id="Group_10695" data-name="Group 10695" transform="translate(1580 1213)" clip-path="url(#clip-path)">
        <path id="Path_1792" data-name="Path 1792" d="M8.99,21.034V8.627c0-2.184.346-2.532,2.5-2.536H17.9c.034-.571.058-1.022.089-1.472A4.5,4.5,0,0,1,22.553.061q7.44-.125,14.883,0A4.484,4.484,0,0,1,42,4.468c.04.459.006.925.006,1.623h6.071c2.742,0,2.931.191,2.932,2.947v12h6.6c1.957,0,2.385.418,2.386,2.377Q60,40.464,60,57.517c0,2.019-.46,2.48-2.47,2.48Q30.005,60,2.484,60C.465,60,0,59.538,0,57.528v-34.1c0-1.964.431-2.386,2.375-2.389H8.987M22.473,56.9V55.336c0-3.229-.012-6.457.006-9.685.009-1.683.5-2.149,2.185-2.153q5.336-.01,10.673,0c1.689,0,2.167.468,2.185,2.153.019,1.731,0,3.462,0,5.194V56.9H47.911V9.1h-5.89v1.6c0,2.807.028,5.615-.009,8.422-.039,2.99-1.842,4.887-4.781,4.921-4.821.055-9.643.036-14.465,0a4.4,4.4,0,0,1-4.4-2.876A7.134,7.134,0,0,1,18,18.7c-.04-3.17-.016-6.341-.016-9.6h-5.85V56.9ZM30,3.057H22.838a1.6,1.6,0,0,0-1.826,1.8q0,7.159,0,14.318a1.649,1.649,0,0,0,1.9,1.867q7.092-.015,14.184,0A1.649,1.649,0,0,0,39,19.171C38.99,14.445,39,9.72,38.988,4.994c0-1.4-.543-1.917-1.968-1.928-2.34-.017-4.681,0-7.022,0M8.9,24.157H3.116V56.92H8.9Zm47.989,0H51.1v32.76h5.78ZM34.423,46.611H25.576v10.3h8.847Z"/>
        <path id="Path_1793" data-name="Path 1793" d="M67.311,131.188c-.556,0-1.21.183-1.645-.047a2.372,2.372,0,0,1-1.231-1.4,1.72,1.72,0,0,1,1.017-1.371,11.584,11.584,0,0,1,3.71-.022,1.842,1.842,0,0,1,1.076,1.462c-.034.489-.736,1.071-1.28,1.341a4.063,4.063,0,0,1-1.648.045v-.009" transform="translate(-46.333 -92.213)" fill="#ec8046"/>
        <path id="Path_1794" data-name="Path 1794" d="M99.323,131.052c-.51,0-1.122.176-1.507-.044-.567-.323-1.267-.884-1.35-1.429-.064-.424.663-1.31,1.152-1.406a8.892,8.892,0,0,1,3.44-.008,1.955,1.955,0,0,1,1.192,1.505c-.035.491-.836,1.04-1.417,1.341-.4.209-1,.04-1.51.039" transform="translate(-69.366 -92.063)" fill="#ec8046"/>
        <path id="Path_1795" data-name="Path 1795" d="M131.284,130.987c-.464,0-1.022.162-1.371-.039-.571-.329-1.37-.877-1.4-1.367a1.977,1.977,0,0,1,1.219-1.492,7.817,7.817,0,0,1,3.3-.009,2.128,2.128,0,0,1,1.287,1.48c.115.854-.571,1.408-1.512,1.426-.51.01-1.021,0-1.531,0" transform="translate(-92.417 -91.996)" fill="#ec8046"/>
        <path id="Path_1796" data-name="Path 1796" d="M67.39,104.387c-.513,0-1.12.174-1.515-.042-.571-.311-1.355-.9-1.365-1.38s.76-1.277,1.307-1.4a7.5,7.5,0,0,1,3.185,0A2.074,2.074,0,0,1,70.3,103c.052.4-.712,1.062-1.251,1.332a4.057,4.057,0,0,1-1.654.046v.009" transform="translate(-46.39 -72.928)" fill="#ec8046"/>
        <path id="Path_1797" data-name="Path 1797" d="M99.384,104.378a4.052,4.052,0,0,1-1.654-.046c-.539-.27-1.3-.934-1.251-1.333a2.079,2.079,0,0,1,1.3-1.429,7.5,7.5,0,0,1,3.185,0c.546.121,1.314.921,1.3,1.4s-.794,1.068-1.365,1.379c-.395.215-1,.042-1.515.042v-.01" transform="translate(-69.376 -72.929)" fill="#ec8046"/>
        <path id="Path_1798" data-name="Path 1798" d="M131.4,104.38a4.081,4.081,0,0,1-1.655-.045c-.541-.268-1.31-.925-1.261-1.325a2.073,2.073,0,0,1,1.286-1.438,7.5,7.5,0,0,1,3.185,0c.548.121,1.32.912,1.313,1.391s-.786,1.074-1.355,1.388c-.393.217-1,.042-1.515.042v-.008" transform="translate(-92.388 -72.929)" fill="#ec8046"/>
        <path id="Path_1799" data-name="Path 1799" d="M90.168,29.181c-1.115,0-2.037.011-2.96,0a1.45,1.45,0,0,1,0-2.9c.923-.013,1.846,0,2.957,0v-2.79c0-.967.338-1.664,1.426-1.681,1.069-.017,1.457.62,1.5,1.612.04.912-.158,2.106.333,2.645.42.461,1.667.182,2.549.207.922.026,1.547.392,1.578,1.389.032,1.058-.574,1.488-1.578,1.533-.916.041-2.1-.172-2.658.313-.463.4-.2,1.658-.227,2.536-.028.993-.43,1.63-1.5,1.611-1.087-.019-1.427-.717-1.424-1.684V29.185" transform="translate(-61.628 -15.683)" fill="#ec8046"/>
      </g>
    </g>
  </g>
</svg>
