<svg xmlns="http://www.w3.org/2000/svg" xmlns:xlink="http://www.w3.org/1999/xlink" width="68" height="68" viewBox="0 0 68 68">
  <defs>
    <clipPath id="clip-path">
      <rect id="Rectangle_2830" data-name="Rectangle 2830" width="62" height="62" fill="none"/>
    </clipPath>
  </defs>
  <g id="finddoctor_icon" transform="translate(-2825 423)">
    <rect id="Rectangle_3011" data-name="Rectangle 3011" width="68" height="68" rx="3" transform="translate(2825 -423)" fill="#eceef3" opacity="0"/>
    <g id="Group_11264" data-name="Group 11264" transform="translate(2828 -420)" clip-path="url(#clip-path)">
      <path id="Path_5863" data-name="Path 5863" d="M21.048,46.659a6.746,6.746,0,0,1-.471.59Q13.844,53.989,7.1,60.721a3.977,3.977,0,0,1-4.118,1.1A3.887,3.887,0,0,1,.106,58.759a4.057,4.057,0,0,1,1.211-3.924Q8.039,48.127,14.753,41.41a6.924,6.924,0,0,1,.554-.455c-8.832-12.2-4.919-27.881,5.236-35.693A25.8,25.8,0,1,1,49.6,47.792a26.211,26.211,0,0,1-9.384,3.468,25.1,25.1,0,0,1-10-.349,26.064,26.064,0,0,1-9.169-4.252M36.224,2.073A23.73,23.73,0,1,0,59.926,25.8a23.73,23.73,0,0,0-23.7-23.727M8.572,50.546c-1.966,1.954-3.948,3.915-5.908,5.9a1.833,1.833,0,0,0-.488,1.649,1.936,1.936,0,0,0,1.341,1.616,2.029,2.029,0,0,0,2.2-.526c1.441-1.428,2.868-2.869,4.311-4.3.491-.485,1.009-.943,1.489-1.389l-2.949-2.95M12.961,51.8,19.3,45.482l-2.744-2.755-6.324,6.336,2.733,2.745"/>
      <path id="Path_5864" data-name="Path 5864" d="M170.407,56.909v.371c0,1.912-.007,3.825,0,5.737a6.11,6.11,0,0,0,12.206.445c.1-2.161.02-4.331.02-6.553h-.371c-.7,0-1.4.013-2.1-.005a1.217,1.217,0,0,1-1.185-1.211,1.2,1.2,0,0,1,1.167-1.224q1.893-.028,3.786,0a1.208,1.208,0,0,1,1.163,1.306c0,2.46.007,4.921,0,7.381a7.827,7.827,0,0,1-.662,3.157,8.444,8.444,0,0,1-6.4,5.135c-.086.017-.17.044-.279.074a5.584,5.584,0,0,0,1.592,4.249,3.5,3.5,0,0,0,3.122.758,8.171,8.171,0,0,0,5.7-3.7c3.259-4.89,4.145-10.172,1.791-15.648-2.237-5.2-6.379-8.1-12.016-8.762a14.232,14.232,0,0,0-7.872,1.4,1.738,1.738,0,0,1-.838.172A1.173,1.173,0,0,1,168.2,49a1.213,1.213,0,0,1,.666-1.3,16.015,16.015,0,0,1,4.771-1.564A16.8,16.8,0,0,1,187.262,49.7a16.391,16.391,0,0,1,6.244,11.224,18.824,18.824,0,0,1-3.22,13.176,10.826,10.826,0,0,1-5.786,4.4,8.577,8.577,0,0,1-4.3.314,5.492,5.492,0,0,1-4.335-4.163,23.4,23.4,0,0,1-.533-2.846c-.036-.217-.074-.327-.317-.372a8.537,8.537,0,0,1-7.05-8.449c-.007-2.384,0-4.768,0-7.152a1.235,1.235,0,0,1,1.366-1.376h3.4a1.229,1.229,0,1,1,0,2.446h-2.32" transform="translate(-140.375 -38.363)" fill="#ec8046"/>
      <path id="Path_5865" data-name="Path 5865" d="M118.377,96.511a16.457,16.457,0,0,1-2.252-5.957,16.955,16.955,0,0,1,3.713-13.947c.248-.307.518-.6.789-.884a1.222,1.222,0,1,1,1.78,1.665,14.71,14.71,0,0,0-2.148,17.5c.133.237.252.267.51.2a4.87,4.87,0,1,1-2.624,1.712l.233-.292m3.589.853a2.45,2.45,0,1,0,1.736.713,2.447,2.447,0,0,0-1.736-.713" transform="translate(-96.841 -62.908)" fill="#ec8046"/>
    </g>
  </g>
</svg>
