<svg xmlns="http://www.w3.org/2000/svg" xmlns:xlink="http://www.w3.org/1999/xlink" width="126" height="98" viewBox="0 0 126 98">
  <defs>
    <clipPath id="clip-path">
      <rect id="Rectangle_2644" data-name="Rectangle 2644" width="52" height="74" transform="translate(-0.333 0.258)" fill="none" stroke="#357a9a" stroke-width="0.8"/>
    </clipPath>
  </defs>
  <g id="madurai_city" transform="translate(-2874 373)">
    <rect id="Rectangle_3065" data-name="Rectangle 3065" width="126" height="98" transform="translate(2874 -373)" fill="#fff" opacity="0"/>
    <g id="Group_12442" data-name="Group 12442" transform="translate(2691.813 -8729.468)">
      <g id="Group_11087" data-name="Group 11087" transform="translate(219.52 8368.21)">
        <path id="Path_5155" data-name="Path 5155" d="M100.394.5,98.417,9.291l1,3.119h1.959l1-3.119Z" transform="translate(-73.854 -0.137)" fill="#fff" stroke="#357a9a" stroke-width="0.8"/>
        <g id="Group_11086" data-name="Group 11086">
          <g id="Group_11085" data-name="Group 11085" clip-path="url(#clip-path)">
            <path id="Path_5156" data-name="Path 5156" d="M50.949,70.936l-.787-1.678v-.88H48.738V67.094h.941V64.224H45.913v2.871h.941v1.283H45.432v.883l-.788,1.678H42.081l-1.286-2.167V64.787H38.951l1.877-2.594,1.249.834V60.512h-.669a8.965,8.965,0,0,0-1.222-4.747h-.012a6.36,6.36,0,0,0-.6,1.229l-.026-.01-.6-3.713h1.227V51.926l-.788-1.5V47.157l-2.367-2.385v-4.04l-2.367-1.656V35.764h-1.9l-1.445-2.12V32.32h1.9V30.863H32.029V29.175H29.86V26.36h1.446c.657-4.173-2.89-4.836-2.823-6.928l.018-.011a1.446,1.446,0,1,0-1.6.012h0c.068,2.092-3.477,2.755-2.823,6.928h1.446v2.815H23.358v1.687H22.173V32.32h1.9v1.325l-1.446,2.12h-1.9v3.312l-2.367,1.656v2.885l-.041-.012c-.858-.931-1.964-1.408-1.926-2.582l.018-.011a1.446,1.446,0,1,0-1.6.012c.067,2.091-3.477,1.96-2.823,6.132h1.446v2.815h-1.5a4.608,4.608,0,0,0-.775-1.248h-.009a5.216,5.216,0,0,0-1.223,3.4v1.148l1.232,1.236v1.722H8.922v3.047L6.975,60.512v2.012H8.924L9,62.56a.863.863,0,0,0-.079.351v2.948L6.975,67.8V66.175c0-.7-.953-1.391-2-1.391s-2,.7-2,1.391V67.8h1v1.192L1.5,70.936v1.236H2.968V86.436H50.95V72.172h1.1V70.936Z" transform="translate(-1.106 -12.317)" fill="#fff" stroke="#357a9a" stroke-width="0.8"/>
            <path id="Path_5157" data-name="Path 5157" d="M53.759,108.311a1.437,1.437,0,0,1-1.6.012" transform="translate(-38.453 -79.614)" fill="none" stroke="#357a9a" stroke-linecap="round" stroke-linejoin="round" stroke-width="0.8"/>
            <line id="Line_2662" data-name="Line 2662" x2="2.168" transform="translate(12.33 34.841)" fill="none" stroke="#357a9a" stroke-linecap="round" stroke-linejoin="round" stroke-width="0.8"/>
            <path id="Path_5158" data-name="Path 5158" d="M47.672,185.934H45v-2.163c0-.927,1.27-1.855,2.672-1.855" transform="translate(-33.174 -133.718)" fill="none" stroke="#357a9a" stroke-linecap="round" stroke-linejoin="round" stroke-width="0.8"/>
            <path id="Path_5159" data-name="Path 5159" d="M30.048,186.748a2.153,2.153,0,0,1,1.926-1.04" transform="translate(-22.152 -136.505)" fill="none" stroke="#357a9a" stroke-linecap="round" stroke-linejoin="round" stroke-width="0.8"/>
            <line id="Line_2663" data-name="Line 2663" x1="2.004" transform="translate(7.818 52.217)" fill="none" stroke="#357a9a" stroke-linecap="round" stroke-linejoin="round" stroke-width="0.8"/>
            <path id="Path_5160" data-name="Path 5160" d="M37.375,188.722h2.008V187.1c0-.7-.953-1.391-2-1.391" transform="translate(-27.553 -136.505)" fill="none" stroke="#357a9a" stroke-linecap="round" stroke-linejoin="round" stroke-width="0.8"/>
            <line id="Line_2664" data-name="Line 2664" x1="1.002" transform="translate(2.863 55.484)" fill="none" stroke="#357a9a" stroke-linecap="round" stroke-linejoin="round" stroke-width="0.8"/>
            <line id="Line_2665" data-name="Line 2665" x2="2.004" transform="translate(3.866 55.484)" fill="none" stroke="#357a9a" stroke-linecap="round" stroke-linejoin="round" stroke-width="0.8"/>
            <rect id="Rectangle_2641" data-name="Rectangle 2641" width="4.468" height="2.031" transform="translate(12.264 43.915)" fill="none" stroke="#357a9a" stroke-linecap="round" stroke-linejoin="round" stroke-width="0.8"/>
            <path id="Path_5161" data-name="Path 5161" d="M31.983,165.75h2.235v2.029H29.748" transform="translate(-21.931 -121.835)" fill="none" stroke="#357a9a" stroke-linecap="round" stroke-linejoin="round" stroke-width="0.8"/>
            <line id="Line_2666" data-name="Line 2666" x2="5.677" transform="translate(8.82 39.808)" fill="none" stroke="#357a9a" stroke-linecap="round" stroke-linejoin="round" stroke-width="0.8"/>
            <line id="Line_2667" data-name="Line 2667" x1="5.677" transform="translate(8.82 40.957)" fill="none" stroke="#357a9a" stroke-linecap="round" stroke-linejoin="round" stroke-width="0.8"/>
            <path id="Path_5162" data-name="Path 5162" d="M39.677,154.583l1.232,1.236v1.722" transform="translate(-29.25 -113.627)" fill="none" stroke="#357a9a" stroke-linecap="round" stroke-linejoin="round" stroke-width="0.8"/>
            <path id="Path_5163" data-name="Path 5163" d="M45.792,154.583l1.232,1.236v1.722" transform="translate(-33.758 -113.627)" fill="none" stroke="#357a9a" stroke-linecap="round" stroke-linejoin="round" stroke-width="0.8"/>
            <path id="Path_5164" data-name="Path 5164" d="M22.333,181.917h8.628c1.4,0,2.672.927,2.672,1.855v2.163H30.961" transform="translate(-16.464 -133.719)" fill="none" stroke="#357a9a" stroke-linecap="round" stroke-linejoin="round" stroke-width="0.8"/>
            <path id="Path_5165" data-name="Path 5165" d="M31.8,173.417v1.016l-1.949,1.236" transform="translate(-22.008 -127.47)" fill="none" stroke="#357a9a" stroke-linecap="round" stroke-linejoin="round" stroke-width="0.8"/>
            <path id="Path_5166" data-name="Path 5166" d="M39.324,173.417v1.016l-1.949,1.236" transform="translate(-27.553 -127.47)" fill="none" stroke="#357a9a" stroke-linecap="round" stroke-linejoin="round" stroke-width="0.8"/>
            <path id="Path_5167" data-name="Path 5167" d="M46.846,173.417v1.016L44.9,175.669" transform="translate(-33.097 -127.47)" fill="none" stroke="#357a9a" stroke-linecap="round" stroke-linejoin="round" stroke-width="0.8"/>
            <path id="Path_5168" data-name="Path 5168" d="M27.276,209.417H18.648l-1.314,1.943h9.942" transform="translate(-12.779 -153.932)" fill="none" stroke="#357a9a" stroke-linecap="round" stroke-linejoin="round" stroke-width="0.8"/>
            <path id="Path_5169" data-name="Path 5169" d="M33.178,197.083v1.325l-1.949,1.943" transform="translate(-23.022 -144.867)" fill="none" stroke="#357a9a" stroke-linecap="round" stroke-linejoin="round" stroke-width="0.8"/>
            <path id="Path_5170" data-name="Path 5170" d="M42.074,197.083v1.325l-1.949,1.943" transform="translate(-29.58 -144.867)" fill="none" stroke="#357a9a" stroke-linecap="round" stroke-linejoin="round" stroke-width="0.8"/>
            <path id="Path_5171" data-name="Path 5171" d="M23.833,216.75v16.692h8.234" transform="translate(-17.57 -159.323)" fill="none" stroke="#357a9a" stroke-linecap="round" stroke-linejoin="round" stroke-width="0.8"/>
            <path id="Path_5172" data-name="Path 5172" d="M34.9,216.75v2.3h-.729l.729,1.634v12.762" transform="translate(-25.189 -159.323)" fill="none" stroke="#357a9a" stroke-linecap="round" stroke-linejoin="round" stroke-width="0.8"/>
            <path id="Path_5173" data-name="Path 5173" d="M28.813,216.75v2.3h-.729l.729,1.634v12.762" transform="translate(-20.704 -159.323)" fill="none" stroke="#357a9a" stroke-linecap="round" stroke-linejoin="round" stroke-width="0.8"/>
            <path id="Path_5174" data-name="Path 5174" d="M45,237.97V224.946a2.484,2.484,0,0,1,2.672-2.031" transform="translate(-33.174 -163.854)" fill="none" stroke="#357a9a" stroke-linecap="round" stroke-linejoin="round" stroke-width="0.8"/>
            <line id="Line_2668" data-name="Line 2668" x2="4.401" transform="translate(1.862 59.856)" fill="none" stroke="#357a9a" stroke-linecap="round" stroke-linejoin="round" stroke-width="0.8"/>
            <line id="Line_2669" data-name="Line 2669" x2="5.869" transform="translate(0.394 58.62)" fill="none" stroke="#357a9a" stroke-linecap="round" stroke-linejoin="round" stroke-width="0.8"/>
            <path id="Path_5175" data-name="Path 5175" d="M41.2,142.127a5.373,5.373,0,0,1,.448,2.153" transform="translate(-30.373 -104.471)" fill="none" stroke="#357a9a" stroke-linecap="round" stroke-linejoin="round" stroke-width="0.8"/>
            <line id="Line_2670" data-name="Line 2670" x1="2.168" transform="translate(12.33 37.656)" fill="none" stroke="#357a9a" stroke-linecap="round" stroke-linejoin="round" stroke-width="0.8"/>
            <line id="Line_2671" data-name="Line 2671" x1="3.388" transform="translate(11.11 38.484)" fill="none" stroke="#357a9a" stroke-linecap="round" stroke-linejoin="round" stroke-width="0.8"/>
            <path id="Path_5176" data-name="Path 5176" d="M49.665,121.761a4.375,4.375,0,0,1,1.446-3.511" transform="translate(-36.613 -86.92)" fill="none" stroke="#357a9a" stroke-linecap="round" stroke-linejoin="round" stroke-width="0.8"/>
            <line id="Line_2672" data-name="Line 2672" x1="2.168" transform="translate(14.498 34.841)" fill="none" stroke="#357a9a" stroke-linecap="round" stroke-linejoin="round" stroke-width="0.8"/>
            <line id="Line_2673" data-name="Line 2673" y2="2.815" transform="translate(16.666 34.841)" fill="none" stroke="#357a9a" stroke-linecap="round" stroke-linejoin="round" stroke-width="0.8"/>
            <path id="Path_5177" data-name="Path 5177" d="M55.167,185.934h2.672v-2.163c0-.927-1.27-1.855-2.672-1.855H63.8" transform="translate(-40.669 -133.718)" fill="none" stroke="#357a9a" stroke-linecap="round" stroke-linejoin="round" stroke-width="0.8"/>
            <path id="Path_5178" data-name="Path 5178" d="M74.884,186.748a2.153,2.153,0,0,0-1.926-1.04" transform="translate(-53.785 -136.505)" fill="none" stroke="#357a9a" stroke-linecap="round" stroke-linejoin="round" stroke-width="0.8"/>
            <line id="Line_2674" data-name="Line 2674" x2="2.004" transform="translate(19.173 52.217)" fill="none" stroke="#357a9a" stroke-linecap="round" stroke-linejoin="round" stroke-width="0.8"/>
            <path id="Path_5179" data-name="Path 5179" d="M67.337,188.722h-2V187.1c0-.7.953-1.391,2-1.391" transform="translate(-48.164 -136.505)" fill="none" stroke="#357a9a" stroke-linecap="round" stroke-linejoin="round" stroke-width="0.8"/>
            <path id="Path_5180" data-name="Path 5180" d="M95.625,201.056h2v-1.623c0-.7-.953-1.391-2-1.391" transform="translate(-70.495 -145.572)" fill="none" stroke="#357a9a" stroke-linecap="round" stroke-linejoin="round" stroke-width="0.8"/>
            <path id="Path_5181" data-name="Path 5181" d="M90,201.056H88v-1.623c0-.7.953-1.391,2-1.391" transform="translate(-64.873 -145.572)" fill="none" stroke="#357a9a" stroke-linecap="round" stroke-linejoin="round" stroke-width="0.8"/>
            <path id="Path_5182" data-name="Path 5182" d="M65.816,165.75H63.581v2.029h4.471" transform="translate(-46.874 -121.835)" fill="none" stroke="#357a9a" stroke-linecap="round" stroke-linejoin="round" stroke-width="0.8"/>
            <line id="Line_2675" data-name="Line 2675" x1="5.677" transform="translate(14.498 39.808)" fill="none" stroke="#357a9a" stroke-linecap="round" stroke-linejoin="round" stroke-width="0.8"/>
            <line id="Line_2676" data-name="Line 2676" x2="5.677" transform="translate(14.498 40.957)" fill="none" stroke="#357a9a" stroke-linecap="round" stroke-linejoin="round" stroke-width="0.8"/>
            <path id="Path_5183" data-name="Path 5183" d="M73.316,154.583l-1.232,1.236v1.722" transform="translate(-53.14 -113.627)" fill="none" stroke="#357a9a" stroke-linecap="round" stroke-linejoin="round" stroke-width="0.8"/>
            <path id="Path_5184" data-name="Path 5184" d="M67.2,154.583l-1.232,1.236v1.722" transform="translate(-48.632 -113.627)" fill="none" stroke="#357a9a" stroke-linecap="round" stroke-linejoin="round" stroke-width="0.8"/>
            <path id="Path_5185" data-name="Path 5185" d="M61.086,154.583l-1.232,1.236v1.722" transform="translate(-44.124 -113.627)" fill="none" stroke="#357a9a" stroke-linecap="round" stroke-linejoin="round" stroke-width="0.8"/>
            <path id="Path_5186" data-name="Path 5186" d="M73.063,173.417v1.016l1.949,1.236" transform="translate(-53.862 -127.47)" fill="none" stroke="#357a9a" stroke-linecap="round" stroke-linejoin="round" stroke-width="0.8"/>
            <path id="Path_5187" data-name="Path 5187" d="M65.542,173.417v1.016l1.949,1.236" transform="translate(-48.317 -127.47)" fill="none" stroke="#357a9a" stroke-linecap="round" stroke-linejoin="round" stroke-width="0.8"/>
            <path id="Path_5188" data-name="Path 5188" d="M58.021,173.417v1.016l1.949,1.236" transform="translate(-42.773 -127.47)" fill="none" stroke="#357a9a" stroke-linecap="round" stroke-linejoin="round" stroke-width="0.8"/>
            <line id="Line_2677" data-name="Line 2677" x1="8.233" transform="translate(14.498 57.427)" fill="none" stroke="#357a9a" stroke-linecap="round" stroke-linejoin="round" stroke-width="0.8"/>
            <line id="Line_2678" data-name="Line 2678" x2="8.628" transform="translate(14.498 55.484)" fill="none" stroke="#357a9a" stroke-linecap="round" stroke-linejoin="round" stroke-width="0.8"/>
            <path id="Path_5189" data-name="Path 5189" d="M80.583,197.083v1.325l1.949,1.943" transform="translate(-59.406 -144.867)" fill="none" stroke="#357a9a" stroke-linecap="round" stroke-linejoin="round" stroke-width="0.8"/>
            <path id="Path_5190" data-name="Path 5190" d="M71.688,197.083v1.325l1.949,1.943" transform="translate(-52.848 -144.867)" fill="none" stroke="#357a9a" stroke-linecap="round" stroke-linejoin="round" stroke-width="0.8"/>
            <path id="Path_5191" data-name="Path 5191" d="M62.792,197.083v1.325l1.949,1.943" transform="translate(-46.29 -144.867)" fill="none" stroke="#357a9a" stroke-linecap="round" stroke-linejoin="round" stroke-width="0.8"/>
            <line id="Line_2679" data-name="Line 2679" x1="8.234" transform="translate(14.498 74.119)" fill="none" stroke="#357a9a" stroke-linecap="round" stroke-linejoin="round" stroke-width="0.8"/>
            <path id="Path_5192" data-name="Path 5192" d="M73.394,216.75v2.3h.729l-.729,1.634v12.762" transform="translate(-54.106 -159.323)" fill="none" stroke="#357a9a" stroke-linecap="round" stroke-linejoin="round" stroke-width="0.8"/>
            <path id="Path_5193" data-name="Path 5193" d="M79.478,216.75v2.3h.729l-.729,1.634v12.762" transform="translate(-58.591 -159.323)" fill="none" stroke="#357a9a" stroke-linecap="round" stroke-linejoin="round" stroke-width="0.8"/>
            <path id="Path_5194" data-name="Path 5194" d="M57.838,237.97V224.946a2.484,2.484,0,0,0-2.672-2.031" transform="translate(-40.668 -163.854)" fill="none" stroke="#357a9a" stroke-linecap="round" stroke-linejoin="round" stroke-width="0.8"/>
            <path id="Path_5195" data-name="Path 5195" d="M89.9,209.417v1.192l2.469,1.943v1.239H86.5" transform="translate(-63.768 -153.932)" fill="none" stroke="#357a9a" stroke-linecap="round" stroke-linejoin="round" stroke-width="0.8"/>
            <line id="Line_2680" data-name="Line 2680" x1="21.244" transform="translate(28.602 59.856)" fill="none" stroke="#357a9a" stroke-linecap="round" stroke-linejoin="round" stroke-width="0.8"/>
            <line id="Line_2681" data-name="Line 2681" x2="6.306" transform="translate(43.537 58.62)" fill="none" stroke="#357a9a" stroke-linecap="round" stroke-linejoin="round" stroke-width="0.8"/>
            <path id="Path_5196" data-name="Path 5196" d="M86.5,221.25h18.242" transform="translate(-63.768 -162.63)" fill="none" stroke="#357a9a" stroke-linecap="round" stroke-linejoin="round" stroke-width="0.8"/>
            <path id="Path_5197" data-name="Path 5197" d="M90.9,225.917V240.18H86.5" transform="translate(-63.768 -166.06)" fill="none" stroke="#357a9a" stroke-linecap="round" stroke-linejoin="round" stroke-width="0.8"/>
            <path id="Path_5198" data-name="Path 5198" d="M72.118,137.417a5.216,5.216,0,0,1,1.223,3.4" transform="translate(-53.165 -101.009)" fill="none" stroke="#357a9a" stroke-linecap="round" stroke-linejoin="round" stroke-width="0.8"/>
            <path id="Path_5199" data-name="Path 5199" d="M67.879,142.124a5.37,5.37,0,0,0-.448,2.153" transform="translate(-49.71 -104.468)" fill="none" stroke="#357a9a" stroke-linecap="round" stroke-linejoin="round" stroke-width="0.8"/>
            <path id="Path_5200" data-name="Path 5200" d="M144.633,168.636a9.936,9.936,0,0,0-.624,3.519" transform="translate(-106.164 -123.956)" fill="none" stroke="#357a9a" stroke-linecap="round" stroke-linejoin="round" stroke-width="0.8"/>
            <line id="Line_2682" data-name="Line 2682" x2="2.168" transform="translate(14.498 37.656)" fill="none" stroke="#357a9a" stroke-linecap="round" stroke-linejoin="round" stroke-width="0.8"/>
            <line id="Line_2683" data-name="Line 2683" x2="3.388" transform="translate(14.498 38.484)" fill="none" stroke="#357a9a" stroke-linecap="round" stroke-linejoin="round" stroke-width="0.8"/>
            <path id="Path_5201" data-name="Path 5201" d="M56.613,121.761a4.375,4.375,0,0,0-1.446-3.511" transform="translate(-40.669 -86.92)" fill="none" stroke="#357a9a" stroke-linecap="round" stroke-linejoin="round" stroke-width="0.8"/>
            <path id="Path_5202" data-name="Path 5202" d="M99.756,26.811a1.437,1.437,0,0,1-1.6.012" transform="translate(-72.361 -19.707)" fill="none" stroke="#357a9a" stroke-linecap="round" stroke-linejoin="round" stroke-width="0.8"/>
            <line id="Line_2684" data-name="Line 2684" x2="2.168" transform="translate(24.418 14.043)" fill="none" stroke="#357a9a" stroke-linecap="round" stroke-linejoin="round" stroke-width="0.8"/>
            <path id="Path_5203" data-name="Path 5203" d="M95.667,41.056a7.715,7.715,0,0,1,1.446-4.305" transform="translate(-70.526 -27.013)" fill="none" stroke="#357a9a" stroke-linecap="round" stroke-linejoin="round" stroke-width="0.8"/>
            <line id="Line_2685" data-name="Line 2685" x1="2.168" transform="translate(26.587 14.043)" fill="none" stroke="#357a9a" stroke-linecap="round" stroke-linejoin="round" stroke-width="0.8"/>
            <path id="Path_5204" data-name="Path 5204" d="M102.613,41.056a7.715,7.715,0,0,0-1.446-4.305" transform="translate(-74.58 -27.013)" fill="none" stroke="#357a9a" stroke-linecap="round" stroke-linejoin="round" stroke-width="0.8"/>
            <path id="Path_5205" data-name="Path 5205" d="M82.532,181.917v2.009H80.583" transform="translate(-59.405 -133.718)" fill="none" stroke="#357a9a" stroke-linecap="round" stroke-linejoin="round" stroke-width="0.8"/>
            <line id="Line_2686" data-name="Line 2686" x1="3.614" transform="translate(26.587 20.004)" fill="none" stroke="#357a9a" stroke-linecap="round" stroke-linejoin="round" stroke-width="0.8"/>
            <line id="Line_2687" data-name="Line 2687" x2="4.337" transform="translate(26.587 18.546)" fill="none" stroke="#357a9a" stroke-linecap="round" stroke-linejoin="round" stroke-width="0.8"/>
            <line id="Line_2688" data-name="Line 2688" x2="2.168" transform="translate(26.587 16.858)" fill="none" stroke="#357a9a" stroke-linecap="round" stroke-linejoin="round" stroke-width="0.8"/>
            <line id="Line_2689" data-name="Line 2689" x1="6.964" transform="translate(26.587 25.435)" fill="none" stroke="#357a9a" stroke-linecap="round" stroke-linejoin="round" stroke-width="0.8"/>
            <line id="Line_2690" data-name="Line 2690" x2="5.059" transform="translate(26.587 23.448)" fill="none" stroke="#357a9a" stroke-linecap="round" stroke-linejoin="round" stroke-width="0.8"/>
            <line id="Line_2691" data-name="Line 2691" x1="9.331" transform="translate(26.587 30.403)" fill="none" stroke="#357a9a" stroke-linecap="round" stroke-linejoin="round" stroke-width="0.8"/>
            <line id="Line_2692" data-name="Line 2692" x2="9.331" transform="translate(26.587 28.416)" fill="none" stroke="#357a9a" stroke-linecap="round" stroke-linejoin="round" stroke-width="0.8"/>
            <path id="Path_5206" data-name="Path 5206" d="M101.167,131.5h3.943v1.844h-3.943" transform="translate(-74.58 -96.659)" fill="none" stroke="#357a9a" stroke-linecap="round" stroke-linejoin="round" stroke-width="0.8"/>
            <path id="Path_5207" data-name="Path 5207" d="M115.922,131.5h3.943v1.844h-3.943" transform="translate(-85.458 -96.659)" fill="none" stroke="#357a9a" stroke-linecap="round" stroke-linejoin="round" stroke-width="0.8"/>
            <line id="Line_2693" data-name="Line 2693" x1="3.943" transform="translate(34.342 36.684)" fill="none" stroke="#357a9a" stroke-linecap="round" stroke-linejoin="round" stroke-width="0.8"/>
            <line id="Line_2694" data-name="Line 2694" x2="3.943" transform="translate(34.342 34.841)" fill="none" stroke="#357a9a" stroke-linecap="round" stroke-linejoin="round" stroke-width="0.8"/>
            <line id="Line_2695" data-name="Line 2695" x1="11.258" transform="translate(26.587 40.957)" fill="none" stroke="#357a9a" stroke-linecap="round" stroke-linejoin="round" stroke-width="0.8"/>
            <line id="Line_2696" data-name="Line 2696" x2="12.486" transform="translate(26.587 39.61)" fill="none" stroke="#357a9a" stroke-linecap="round" stroke-linejoin="round" stroke-width="0.8"/>
            <path id="Path_5208" data-name="Path 5208" d="M118.92,96v1.325l2.367,1.656" transform="translate(-87.668 -70.565)" fill="none" stroke="#357a9a" stroke-linecap="round" stroke-linejoin="round" stroke-width="0.8"/>
            <path id="Path_5209" data-name="Path 5209" d="M110.174,96v1.325l2.367,1.656" transform="translate(-81.22 -70.565)" fill="none" stroke="#357a9a" stroke-linecap="round" stroke-linejoin="round" stroke-width="0.8"/>
            <path id="Path_5210" data-name="Path 5210" d="M107.667,75.5v1.325l1.446,2.12" transform="translate(-79.372 -55.496)" fill="none" stroke="#357a9a" stroke-linecap="round" stroke-linejoin="round" stroke-width="0.8"/>
            <path id="Path_5211" data-name="Path 5211" d="M127.667,114.75V116.8l2.367,2.385" transform="translate(-94.116 -84.347)" fill="none" stroke="#357a9a" stroke-linecap="round" stroke-linejoin="round" stroke-width="0.8"/>
            <path id="Path_5212" data-name="Path 5212" d="M118.66,114.75V116.8l2.367,2.385" transform="translate(-87.476 -84.347)" fill="none" stroke="#357a9a" stroke-linecap="round" stroke-linejoin="round" stroke-width="0.8"/>
            <path id="Path_5213" data-name="Path 5213" d="M109.652,114.75V116.8l2.367,2.385" transform="translate(-80.836 -84.347)" fill="none" stroke="#357a9a" stroke-linecap="round" stroke-linejoin="round" stroke-width="0.8"/>
            <path id="Path_5214" data-name="Path 5214" d="M138.179,138.458v1.424l.788,1.5" transform="translate(-101.866 -101.774)" fill="none" stroke="#357a9a" stroke-linecap="round" stroke-linejoin="round" stroke-width="0.8"/>
            <path id="Path_5215" data-name="Path 5215" d="M130.678,138.458v1.424l.788,1.5" transform="translate(-96.336 -101.774)" fill="none" stroke="#357a9a" stroke-linecap="round" stroke-linejoin="round" stroke-width="0.8"/>
            <path id="Path_5216" data-name="Path 5216" d="M123.176,138.458v1.424l.788,1.5" transform="translate(-90.805 -101.774)" fill="none" stroke="#357a9a" stroke-linecap="round" stroke-linejoin="round" stroke-width="0.8"/>
            <path id="Path_5217" data-name="Path 5217" d="M115.674,138.458v1.424l.788,1.5" transform="translate(-85.275 -101.774)" fill="none" stroke="#357a9a" stroke-linecap="round" stroke-linejoin="round" stroke-width="0.8"/>
            <path id="Path_5218" data-name="Path 5218" d="M108.172,138.458v1.424l.788,1.5" transform="translate(-79.745 -101.774)" fill="none" stroke="#357a9a" stroke-linecap="round" stroke-linejoin="round" stroke-width="0.8"/>
            <line id="Line_2697" data-name="Line 2697" x1="16.601" transform="translate(23.127 49.876)" fill="none" stroke="#357a9a" stroke-linecap="round" stroke-linejoin="round" stroke-width="0.8"/>
            <line id="Line_2698" data-name="Line 2698" x2="17.174" transform="translate(23.127 48.198)" fill="none" stroke="#357a9a" stroke-linecap="round" stroke-linejoin="round" stroke-width="0.8"/>
            <line id="Line_2699" data-name="Line 2699" x1="16.943" transform="translate(21.178 45.761)" fill="none" stroke="#357a9a" stroke-linecap="round" stroke-linejoin="round" stroke-width="0.8"/>
            <path id="Path_5219" data-name="Path 5219" d="M107.108,164.1a.592.592,0,1,1-.172-.42.59.59,0,0,1,.172.42Z" transform="translate(-78.091 -120.184)" fill="none" stroke="#357a9a" stroke-linecap="round" stroke-linejoin="round" stroke-width="0.8"/>
            <path id="Path_5220" data-name="Path 5220" d="M117.6,164.1a.592.592,0,1,1-.172-.42.59.59,0,0,1,.172.42Z" transform="translate(-85.821 -120.184)" fill="none" stroke="#357a9a" stroke-linecap="round" stroke-linejoin="round" stroke-width="0.8"/>
            <path id="Path_5221" data-name="Path 5221" d="M128.082,164.1a.592.592,0,1,1-.172-.42.59.59,0,0,1,.172.42Z" transform="translate(-93.552 -120.184)" fill="none" stroke="#357a9a" stroke-linecap="round" stroke-linejoin="round" stroke-width="0.8"/>
            <path id="Path_5222" data-name="Path 5222" d="M172.355,214.766a.592.592,0,1,1-.172-.42A.59.59,0,0,1,172.355,214.766Z" transform="translate(-126.193 -157.428)" fill="none" stroke="#357a9a" stroke-linecap="round" stroke-linejoin="round" stroke-width="0.8"/>
            <path id="Path_5223" data-name="Path 5223" d="M180.845,214.766a.592.592,0,1,1-.172-.42A.59.59,0,0,1,180.845,214.766Z" transform="translate(-132.449 -157.428)" fill="none" stroke="#357a9a" stroke-linecap="round" stroke-linejoin="round" stroke-width="0.8"/>
            <path id="Path_5224" data-name="Path 5224" d="M176.6,187.849a.592.592,0,1,1-.172-.42A.59.59,0,0,1,176.6,187.849Z" transform="translate(-129.321 -137.642)" fill="none" stroke="#357a9a" stroke-linecap="round" stroke-linejoin="round" stroke-width="0.8"/>
            <path id="Path_5225" data-name="Path 5225" d="M138.57,164.1a.592.592,0,1,1-.172-.42.59.59,0,0,1,.172.42Z" transform="translate(-101.285 -120.184)" fill="none" stroke="#357a9a" stroke-linecap="round" stroke-linejoin="round" stroke-width="0.8"/>
            <line id="Line_2700" data-name="Line 2700" x1="16.668" transform="translate(21.178 52.47)" fill="none" stroke="#357a9a" stroke-linecap="round" stroke-linejoin="round" stroke-width="0.8"/>
            <path id="Path_5226" data-name="Path 5226" d="M141.555,200.835h-3.376v-2.793" transform="translate(-101.866 -145.571)" fill="none" stroke="#357a9a" stroke-linecap="round" stroke-linejoin="round" stroke-width="0.8"/>
            <path id="Path_5227" data-name="Path 5227" d="M107.891,198.042v2.793h-4.637" transform="translate(-76.117 -145.571)" fill="none" stroke="#357a9a" stroke-linecap="round" stroke-linejoin="round" stroke-width="0.8"/>
            <line id="Line_2701" data-name="Line 2701" x2="4.54" transform="translate(31.774 54.38)" fill="none" stroke="#357a9a" stroke-linecap="round" stroke-linejoin="round" stroke-width="0.8"/>
            <path id="Path_5228" data-name="Path 5228" d="M144.733,208.583v1.192l1.286,2.163" transform="translate(-106.697 -153.32)" fill="none" stroke="#357a9a" stroke-linecap="round" stroke-linejoin="round" stroke-width="0.8"/>
            <path id="Path_5229" data-name="Path 5229" d="M138.444,208.583v1.192l1.288,2.164" transform="translate(-102.061 -153.32)" fill="none" stroke="#357a9a" stroke-linecap="round" stroke-linejoin="round" stroke-width="0.8"/>
            <path id="Path_5230" data-name="Path 5230" d="M132.154,205.25v2.076l1.286,2.163" transform="translate(-97.424 -150.87)" fill="none" stroke="#357a9a" stroke-linecap="round" stroke-linejoin="round" stroke-width="0.8"/>
            <path id="Path_5231" data-name="Path 5231" d="M125.864,205.25v2.076l1.286,2.163" transform="translate(-92.787 -150.87)" fill="none" stroke="#357a9a" stroke-linecap="round" stroke-linejoin="round" stroke-width="0.8"/>
            <path id="Path_5232" data-name="Path 5232" d="M119.575,208.583v1.192l1.286,2.163" transform="translate(-88.151 -153.32)" fill="none" stroke="#357a9a" stroke-linecap="round" stroke-linejoin="round" stroke-width="0.8"/>
            <path id="Path_5233" data-name="Path 5233" d="M113.285,208.583v1.192l1.286,2.163" transform="translate(-83.514 -153.32)" fill="none" stroke="#357a9a" stroke-linecap="round" stroke-linejoin="round" stroke-width="0.8"/>
            <path id="Path_5234" data-name="Path 5234" d="M107,208.583v1.192l1.286,2.163" transform="translate(-78.878 -153.32)" fill="none" stroke="#357a9a" stroke-linecap="round" stroke-linejoin="round" stroke-width="0.8"/>
            <path id="Path_5235" data-name="Path 5235" d="M117.091,225.917V237.66h.723l.832,1.06v1.457h-15.4" transform="translate(-76.116 -166.06)" fill="none" stroke="#357a9a" stroke-linecap="round" stroke-linejoin="round" stroke-width="0.8"/>
            <line id="Line_2702" data-name="Line 2702" x1="13.841" transform="translate(27.134 68.82)" fill="none" stroke="#357a9a" stroke-linecap="round" stroke-linejoin="round" stroke-width="0.8"/>
            <line id="Line_2703" data-name="Line 2703" x1="13.841" transform="translate(27.134 65.773)" fill="none" stroke="#357a9a" stroke-linecap="round" stroke-linejoin="round" stroke-width="0.8"/>
            <rect id="Rectangle_2642" data-name="Rectangle 2642" width="1.186" height="1.811" transform="translate(31.183 63.035)" fill="none" stroke="#357a9a" stroke-linecap="round" stroke-linejoin="round" stroke-width="0.8"/>
            <path id="Path_5236" data-name="Path 5236" d="M174.8,240.18h-5.3V225.917h5.3" transform="translate(-124.955 -166.061)" fill="none" stroke="#357a9a" stroke-linecap="round" stroke-linejoin="round" stroke-width="0.8"/>
            <rect id="Rectangle_2643" data-name="Rectangle 2643" width="2.288" height="14.263" transform="translate(46.05 59.856)" fill="none" stroke="#357a9a" stroke-linecap="round" stroke-linejoin="round" stroke-width="0.8"/>
            <line id="Line_2704" data-name="Line 2704" x2="2.015" transform="translate(42.53 74.119)" fill="none" stroke="#357a9a" stroke-linecap="round" stroke-linejoin="round" stroke-width="0.8"/>
            <line id="Line_2705" data-name="Line 2705" x1="0.941" transform="translate(46.691 54.778)" fill="none" stroke="#357a9a" stroke-linecap="round" stroke-linejoin="round" stroke-width="0.8"/>
            <line id="Line_2706" data-name="Line 2706" x2="0.941" transform="translate(46.691 56.059)" fill="none" stroke="#357a9a" stroke-linecap="round" stroke-linejoin="round" stroke-width="0.8"/>
            <line id="Line_2707" data-name="Line 2707" x1="0.941" transform="translate(45.749 56.059)" fill="none" stroke="#357a9a" stroke-linecap="round" stroke-linejoin="round" stroke-width="0.8"/>
            <line id="Line_2708" data-name="Line 2708" x2="0.941" transform="translate(45.749 54.778)" fill="none" stroke="#357a9a" stroke-linecap="round" stroke-linejoin="round" stroke-width="0.8"/>
            <line id="Line_2709" data-name="Line 2709" y2="1.105" transform="translate(46.691 50.802)" fill="none" stroke="#357a9a" stroke-linecap="round" stroke-linejoin="round" stroke-width="0.8"/>
            <line id="Line_2710" data-name="Line 2710" x2="3.614" transform="translate(22.973 20.004)" fill="none" stroke="#357a9a" stroke-linecap="round" stroke-linejoin="round" stroke-width="0.8"/>
            <line id="Line_2711" data-name="Line 2711" x1="4.337" transform="translate(22.25 18.546)" fill="none" stroke="#357a9a" stroke-linecap="round" stroke-linejoin="round" stroke-width="0.8"/>
            <line id="Line_2712" data-name="Line 2712" x1="2.168" transform="translate(24.418 16.858)" fill="none" stroke="#357a9a" stroke-linecap="round" stroke-linejoin="round" stroke-width="0.8"/>
            <line id="Line_2713" data-name="Line 2713" x2="6.964" transform="translate(19.623 25.435)" fill="none" stroke="#357a9a" stroke-linecap="round" stroke-linejoin="round" stroke-width="0.8"/>
            <line id="Line_2714" data-name="Line 2714" x1="5.059" transform="translate(21.528 23.448)" fill="none" stroke="#357a9a" stroke-linecap="round" stroke-linejoin="round" stroke-width="0.8"/>
            <path id="Path_5237" data-name="Path 5237" d="M74.991,107.25H65.66v1.987h9.331" transform="translate(-48.404 -78.834)" fill="none" stroke="#357a9a" stroke-linecap="round" stroke-linejoin="round" stroke-width="0.8"/>
            <path id="Path_5238" data-name="Path 5238" d="M90.106,131.5H86.163v1.844h3.943" transform="translate(-63.519 -96.659)" fill="none" stroke="#357a9a" stroke-linecap="round" stroke-linejoin="round" stroke-width="0.8"/>
            <line id="Line_2715" data-name="Line 2715" x2="3.532" transform="translate(19.176 36.684)" fill="none" stroke="#357a9a" stroke-linecap="round" stroke-linejoin="round" stroke-width="0.8"/>
            <path id="Path_5239" data-name="Path 5239" d="M75.351,131.5H71.407v1.672" transform="translate(-52.641 -96.659)" fill="none" stroke="#357a9a" stroke-linecap="round" stroke-linejoin="round" stroke-width="0.8"/>
            <line id="Line_2716" data-name="Line 2716" x1="0.698" transform="translate(18.133 34.841)" fill="none" stroke="#357a9a" stroke-linecap="round" stroke-linejoin="round" stroke-width="0.8"/>
            <line id="Line_2717" data-name="Line 2717" x2="6.413" transform="translate(20.174 40.957)" fill="none" stroke="#357a9a" stroke-linecap="round" stroke-linejoin="round" stroke-width="0.8"/>
            <line id="Line_2718" data-name="Line 2718" x1="6.413" transform="translate(20.174 39.61)" fill="none" stroke="#357a9a" stroke-linecap="round" stroke-linejoin="round" stroke-width="0.8"/>
            <path id="Path_5240" data-name="Path 5240" d="M76.773,96v1.325l-2.367,1.656" transform="translate(-54.852 -70.565)" fill="none" stroke="#357a9a" stroke-linecap="round" stroke-linejoin="round" stroke-width="0.8"/>
            <path id="Path_5241" data-name="Path 5241" d="M85.519,96v1.325l-2.367,1.656" transform="translate(-61.3 -70.565)" fill="none" stroke="#357a9a" stroke-linecap="round" stroke-linejoin="round" stroke-width="0.8"/>
            <path id="Path_5242" data-name="Path 5242" d="M90.612,75.5v1.325l-1.446,2.12" transform="translate(-65.734 -55.496)" fill="none" stroke="#357a9a" stroke-linecap="round" stroke-linejoin="round" stroke-width="0.8"/>
            <path id="Path_5243" data-name="Path 5243" d="M70.673,114.75V116.8l-1.423,1.348" transform="translate(-51.051 -84.347)" fill="none" stroke="#357a9a" stroke-linecap="round" stroke-linejoin="round" stroke-width="0.8"/>
            <path id="Path_5244" data-name="Path 5244" d="M77.034,114.75V116.8l-2.367,2.385" transform="translate(-55.044 -84.347)" fill="none" stroke="#357a9a" stroke-linecap="round" stroke-linejoin="round" stroke-width="0.8"/>
            <path id="Path_5245" data-name="Path 5245" d="M86.041,114.75V116.8l-2.367,2.385" transform="translate(-61.684 -84.347)" fill="none" stroke="#357a9a" stroke-linecap="round" stroke-linejoin="round" stroke-width="0.8"/>
            <path id="Path_5246" data-name="Path 5246" d="M77.4,138.458v1.424l-.628,1.195" transform="translate(-56.595 -101.774)" fill="none" stroke="#357a9a" stroke-linecap="round" stroke-linejoin="round" stroke-width="0.8"/>
            <path id="Path_5247" data-name="Path 5247" d="M84.449,138.458v1.424l-.788,1.5" transform="translate(-61.675 -101.774)" fill="none" stroke="#357a9a" stroke-linecap="round" stroke-linejoin="round" stroke-width="0.8"/>
            <path id="Path_5248" data-name="Path 5248" d="M91.951,138.458v1.424l-.788,1.5" transform="translate(-67.205 -101.774)" fill="none" stroke="#357a9a" stroke-linecap="round" stroke-linejoin="round" stroke-width="0.8"/>
            <path id="Path_5249" data-name="Path 5249" d="M93.918,164.1a.592.592,0,1,0,.172-.42.59.59,0,0,0-.172.42Z" transform="translate(-69.237 -120.184)" fill="none" stroke="#357a9a" stroke-linecap="round" stroke-linejoin="round" stroke-width="0.8"/>
            <path id="Path_5250" data-name="Path 5250" d="M83.431,164.1a.592.592,0,1,0,.172-.42.59.59,0,0,0-.172.42Z" transform="translate(-61.505 -120.184)" fill="none" stroke="#357a9a" stroke-linecap="round" stroke-linejoin="round" stroke-width="0.8"/>
            <path id="Path_5251" data-name="Path 5251" d="M99.5,4.852l.365-1.14L99.139.5l-.723,3.212.365,1.14" transform="translate(-72.552 -0.368)" fill="none" stroke="#357a9a" stroke-linecap="round" stroke-linejoin="round" stroke-width="0.8"/>
            <path id="Path_5252" data-name="Path 5252" d="M50.949,70.936l-.787-1.678v-.88H48.738V67.094h.941V64.224H45.913v2.871h.941v1.283H45.432v.883l-.788,1.678H42.081l-1.286-2.167V64.787H38.951l1.877-2.594,1.249.834V60.512h-.669a8.965,8.965,0,0,0-1.222-4.747h-.012a6.36,6.36,0,0,0-.6,1.229l-.026-.01-.6-3.713h1.227V51.926l-.788-1.5V47.157l-2.367-2.385v-4.04l-2.367-1.656V35.764h-1.9l-1.445-2.12V32.32h1.9V30.863H32.029V29.175H29.86V26.36h1.446c.657-4.173-2.89-4.836-2.823-6.928l.018-.011a1.446,1.446,0,1,0-1.6.012h0c.068,2.092-3.477,2.755-2.823,6.928h1.446v2.815H23.358v1.687H22.173V32.32h1.9v1.325l-1.446,2.12h-1.9v3.312l-2.367,1.656v2.885l-.041-.012c-.858-.931-1.964-1.408-1.926-2.582l.018-.011a1.446,1.446,0,1,0-1.6.012c.067,2.091-3.477,1.96-2.823,6.132h1.446v2.815h-1.5a4.608,4.608,0,0,0-.775-1.248h-.009a5.216,5.216,0,0,0-1.223,3.4v1.148l1.232,1.236v1.722H8.922v3.047L6.975,60.512v2.012H8.924L9,62.56a.863.863,0,0,0-.079.351v2.948L6.975,67.8V66.175c0-.7-.953-1.391-2-1.391s-2,.7-2,1.391V67.8h1v1.192L1.5,70.936v1.236H2.968V86.436H50.95V72.172h1.1V70.936Z" transform="translate(-1.106 -12.317)" fill="none" stroke="#357a9a" stroke-linecap="round" stroke-linejoin="round" stroke-width="0.8"/>
            <path id="Path_5253" data-name="Path 5253" d="M63.965,118.1a3.869,3.869,0,0,1,.9,3.552H63.417" transform="translate(-46.751 -86.806)" fill="none" stroke="#357a9a" stroke-linecap="round" stroke-linejoin="round" stroke-width="0.8"/>
            <line id="Line_2719" data-name="Line 2719" x2="1.504" transform="translate(16.665 37.656)" fill="none" stroke="#357a9a" stroke-linecap="round" stroke-linejoin="round" stroke-width="0.8"/>
            <path id="Path_5254" data-name="Path 5254" d="M69.909,137.417a4.616,4.616,0,0,0-.775,1.247" transform="translate(-50.965 -101.009)" fill="none" stroke="#357a9a" stroke-linecap="round" stroke-linejoin="round" stroke-width="0.8"/>
            <line id="Line_2720" data-name="Line 2720" y1="1.148" transform="translate(20.176 39.808)" fill="none" stroke="#357a9a" stroke-linecap="round" stroke-linejoin="round" stroke-width="0.8"/>
            <path id="Path_5255" data-name="Path 5255" d="M74.316,167.779V165.75H72.081" transform="translate(-53.14 -121.835)" fill="none" stroke="#357a9a" stroke-linecap="round" stroke-linejoin="round" stroke-width="0.8"/>
            <path id="Path_5256" data-name="Path 5256" d="M82.532,175.669l-1.949-1.236v-1.016" transform="translate(-59.405 -127.47)" fill="none" stroke="#357a9a" stroke-linecap="round" stroke-linejoin="round" stroke-width="0.8"/>
            <path id="Path_5257" data-name="Path 5257" d="M80.364,191.607v-1.623a.868.868,0,0,0-.079-.351" transform="translate(-59.186 -139.39)" fill="none" stroke="#357a9a" stroke-linecap="round" stroke-linejoin="round" stroke-width="0.8"/>
            <path id="Path_5258" data-name="Path 5258" d="M86.892,209.417l1.314,1.943H86.5" transform="translate(-63.766 -153.932)" fill="none" stroke="#357a9a" stroke-linecap="round" stroke-linejoin="round" stroke-width="0.8"/>
            <line id="Line_2721" data-name="Line 2721" y2="16.692" transform="translate(22.732 57.427)" fill="none" stroke="#357a9a" stroke-linecap="round" stroke-linejoin="round" stroke-width="0.8"/>
          </g>
        </g>
      </g>
    </g>
  </g>
</svg>
