<svg xmlns="http://www.w3.org/2000/svg" width="98.645" height="99.583" viewBox="0 0 98.645 99.583">
  <g id="rourkela" transform="translate(-10.002 673.451)">
    <path id="Subtraction_6" data-name="Subtraction 6" d="M19937.664,1823.377h-17.883l1.906-28.356.621-9.267.756-11.268h11.313l.436,6.43-.525-2.162h-11.062l-.537,2.227h12.125l.324,4.773.621,9.267,1.906,28.355Zm-15.291-16.607-.615,2.222h14l-.625-2.222Zm0-4-.615,2.222h14l-.625-2.222Zm0-4-.615,2.227h14l-.625-2.227Zm0-4-.615,2.222h14l-.625-2.222Zm.391-4-.576,2.222h13.141l-.586-2.222Zm0-4-.576,2.222h13.141l-.586-2.222Zm.455-4-.535,2.227h12.139l-.535-2.227Z" transform="translate(-19903.719 -2413.675)" fill="#357a9a"/>
    <path id="Subtraction_7" data-name="Subtraction 7" d="M19937.664,1819.379h-17.883l1.992-26.655.59-7.911.7-9.407h11.318l.363,4.881-.443-1.823h-11.064l-.535,2.222h12.072l.307,4.128.592,7.911,1.99,26.654Zm-15.275-12.915-.615,2.222h14l-.621-2.222Zm0-4-.615,2.222h14l-.621-2.222Zm0-4-.615,2.222h14l-.621-2.222Zm0-4-.615,2.222h14l-.621-2.222Zm.395-4-.58,2.227h13.139l-.584-2.227Zm0-4-.58,2.222h13.139l-.584-2.222Zm.455-4-.535,2.222h12.139l-.539-2.222Z" transform="translate(-19876.668 -2419.899)" fill="#357a9a"/>
    <g id="g4974" transform="translate(10.001 -672.451)">
      <g id="Group_30034" data-name="Group 30034" transform="translate(0 0)">
        <g id="g4982" transform="translate(33.112)">
          <path id="path4984" d="M-153.379-25.667a4.467,4.467,0,0,1-1.315,3.174,4.467,4.467,0,0,1-3.174,1.315h-4.465a4.464,4.464,0,0,1-1.3,2.853,4.475,4.475,0,0,1-3.174,1.315h-.117a1.53,1.53,0,0,0-1.531,1.531v2.788a2.807,2.807,0,0,1-2.806,2.806,2.8,2.8,0,0,1-1.984-.822,2.8,2.8,0,0,1-.822-1.984v-2.788a1.532,1.532,0,0,0-1.533-1.531,4.675,4.675,0,0,1-3.219-1.286A4.41,4.41,0,0,1-180.2-21.44a4.476,4.476,0,0,1,1.315-3.232,4.475,4.475,0,0,1,3.174-1.315h4.467a4.463,4.463,0,0,1,1.3-2.853,4.475,4.475,0,0,1,3.174-1.315h8.9a4.49,4.49,0,0,1,4.489,4.489" transform="translate(180.205 30.156)" fill="none"/>
        </g>
        <g id="g4994" transform="translate(1.661 5.774)">
          <path id="path4996" d="M-127.414-55.186a4.475,4.475,0,0,1-1.315,3.174A4.475,4.475,0,0,1-131.9-50.7h-.117a1.53,1.53,0,0,0-1.531,1.531v2.788a2.807,2.807,0,0,1-2.806,2.806,2.8,2.8,0,0,1-1.984-.822,2.8,2.8,0,0,1-.822-1.984v-2.788a1.53,1.53,0,0,0-1.531-1.531,4.671,4.671,0,0,1-3.219-1.286,4.4,4.4,0,0,1-1.387-3.145v-.079a4.824,4.824,0,0,1-4.4-4.806,4.827,4.827,0,0,1,4.826-4.826,4.827,4.827,0,0,1,4.826,4.826q0,.168-.014.337h8.157a4.489,4.489,0,0,1,4.489,4.489" transform="translate(149.698 64.839)" fill="none"/>
        </g>
        <path id="Subtraction_8" data-name="Subtraction 8" d="M19950.764,2503.627h-14.826v-13.5h-11.332v13.5h-14.824v-56.689h40.982v56.689Zm-17.51-25.332h0v5.613h9.328V2478.3h-9.328Zm-15.291,0h0v5.613h9.328V2478.3h-9.328Zm15.291-11.526h0v5.613h9.328v-5.613h-9.328Zm-15.291,0h0v5.613h9.328v-5.613h-9.328Zm0-11.526h0v5.613h24.613v-5.613h-24.613Z" transform="translate(-19852.115 -2405.044)" fill="#357a9a"/>
        <path id="Subtraction_9" data-name="Subtraction 9" d="M19967.445,2485.476h-57.662v-22.034l15-2.731v-5.587l42.66-8.183v38.534h0v0Zm-12.467-15.741h0v5.167h5.166v-5.167h-5.166Zm-10.629,0h0v5.167h5.166v-5.167h-5.166Zm-10.619,0h0v5.167h5.162v-5.167h-5.162Zm-10,0h0v5.167h5.166v-5.167h-5.166Zm31.25-10.062h0v5.167h5.166v-5.167h-5.166Zm-10.629,0h0v5.167h5.166v-5.167h-5.166Zm-10.623,0h0v5.167h5.166v-5.167h-5.166Z" transform="translate(-19909.781 -2386.894)" fill="#357a9a"/>
        <g id="g5046" transform="translate(83.82 31.139)">
          <path id="path5048" d="M-84.773-61.5H-99.6l3.4-10.756h11.428Z" transform="translate(99.6 72.256)" fill="#357a9a"/>
        </g>
        <g id="g5094" transform="translate(33.112)">
          <path id="path5096" d="M-153.379-25.667a4.467,4.467,0,0,1-1.315,3.174,4.467,4.467,0,0,1-3.174,1.315h-4.465a4.464,4.464,0,0,1-1.3,2.853,4.475,4.475,0,0,1-3.174,1.315h-.117a1.53,1.53,0,0,0-1.531,1.531v2.788a2.807,2.807,0,0,1-2.806,2.806,2.8,2.8,0,0,1-1.984-.822,2.8,2.8,0,0,1-.822-1.984v-2.788a1.532,1.532,0,0,0-1.533-1.531,4.675,4.675,0,0,1-3.219-1.286A4.41,4.41,0,0,1-180.2-21.44a4.476,4.476,0,0,1,1.315-3.232,4.475,4.475,0,0,1,3.174-1.315h4.467a4.463,4.463,0,0,1,1.3-2.853,4.475,4.475,0,0,1,3.174-1.315h8.9A4.49,4.49,0,0,1-153.379-25.667Z" transform="translate(180.205 30.156)" fill="#357a9a" stroke="#357a9a" stroke-linecap="round" stroke-linejoin="round" stroke-miterlimit="10" stroke-width="2"/>
        </g>
        <g id="g5098" transform="translate(1.661 5.774)">
          <path id="path5100" d="M-127.414-55.186a4.475,4.475,0,0,1-1.315,3.174A4.475,4.475,0,0,1-131.9-50.7h-.117a1.53,1.53,0,0,0-1.531,1.531v2.788a2.807,2.807,0,0,1-2.806,2.806,2.8,2.8,0,0,1-1.984-.822,2.8,2.8,0,0,1-.822-1.984v-2.788a1.53,1.53,0,0,0-1.531-1.531,4.671,4.671,0,0,1-3.219-1.286,4.4,4.4,0,0,1-1.387-3.145v-.079a4.824,4.824,0,0,1-4.4-4.806,4.827,4.827,0,0,1,4.826-4.826,4.827,4.827,0,0,1,4.826,4.826q0,.168-.014.337h8.157A4.489,4.489,0,0,1-127.414-55.186Z" transform="translate(149.698 64.839)" fill="#357a9a" stroke="#357a9a" stroke-linecap="round" stroke-linejoin="round" stroke-miterlimit="10" stroke-width="2"/>
        </g>
        <path id="path5052" d="M176.022-178.4h-5.166v-5.166h5.166Z" transform="translate(-156.91 256.345)" fill="#fff"/>
      </g>
    </g>
  </g>
</svg>
