<svg xmlns="http://www.w3.org/2000/svg" xmlns:xlink="http://www.w3.org/1999/xlink" width="126" height="98" viewBox="0 0 126 98">
  <defs>
    <clipPath id="clip-path">
      <rect id="Rectangle_2113" data-name="Rectangle 2113" width="93.467" height="64.259" fill="none" stroke="#007c9d" stroke-width="1"/>
    </clipPath>
  </defs>
  <g id="delhi_city" transform="translate(-3067 775)">
    <rect id="Rectangle_3059" data-name="Rectangle 3059" width="126" height="98" transform="translate(3067 -775)" fill="#fff" opacity="0"/>
    <g id="Group_12257" data-name="Group 12257" transform="translate(2699.9 -138.152)">
      <g id="Group_11058" data-name="Group 11058" transform="translate(383.1 -619.848)">
        <g id="Group_11057" data-name="Group 11057" clip-path="url(#clip-path)">
          <path id="Path_2699" data-name="Path 2699" d="M93.945,55.848a29.431,29.431,0,0,0-8.481,1.4c-1.252-4.146-4.554-15.946-17.7-23.918.115,1.664.219,3.375.313,5.1a53.673,53.673,0,0,0-16.252-20.6,79.156,79.156,0,0,1,3.667,7.322h0a19.831,19.831,0,0,0-6.306-7.577,21.181,21.181,0,0,0-.334,2.247l-1.126-1.991L46.6,19.826a21.186,21.186,0,0,0-.334-2.247,19.834,19.834,0,0,0-6.307,7.577h0a79.324,79.324,0,0,1,3.667-7.322,53.667,53.667,0,0,0-16.254,20.6c.093-1.729.2-3.441.313-5.1-13.148,7.972-16.45,19.772-17.7,23.918a29.438,29.438,0,0,0-8.481-1.4,40.572,40.572,0,0,1,6.091,9.631H6.224V67.52H4.744V69.5H3.033v5.038H92.405V69.5H90.7V67.52h-1.48V65.479H87.851a40.587,40.587,0,0,1,6.091-9.631" transform="translate(-0.987 -10.852)" fill="#fff" stroke="#007c9d" stroke-width="1"/>
          <path id="Path_2700" data-name="Path 2700" d="M93.911,89.764A35.977,35.977,0,0,1,107.4,77.837,43.243,43.243,0,0,0,98.92,56.916S91.349,67.886,92.2,89.764" transform="translate(-60.668 -35.133)" fill="none" stroke="#007c9d" stroke-linecap="round" stroke-linejoin="round" stroke-width="1"/>
          <path id="Path_2701" data-name="Path 2701" d="M57.767,124.638s-.57-2.1-3.814-5.932A41.436,41.436,0,0,0,42,113.412a43.132,43.132,0,0,1,14.06,11.226" transform="translate(-27.656 -70.01)" fill="none" stroke="#007c9d" stroke-linecap="round" stroke-linejoin="round" stroke-width="1"/>
          <path id="Path_2702" data-name="Path 2702" d="M34.757,113.412S31.854,116.6,31,124.638" transform="translate(-20.413 -70.01)" fill="none" stroke="#007c9d" stroke-linecap="round" stroke-linejoin="round" stroke-width="1"/>
          <path id="Path_2703" data-name="Path 2703" d="M77,83.828A52.95,52.95,0,0,1,88.954,56.912" transform="translate(-50.701 -35.132)" fill="none" stroke="#007c9d" stroke-linecap="round" stroke-linejoin="round" stroke-width="1"/>
          <path id="Path_2704" data-name="Path 2704" d="M114.665,128.079s-4.838.574-11.5,5.613" transform="translate(-67.931 -79.064)" fill="none" stroke="#007c9d" stroke-linecap="round" stroke-linejoin="round" stroke-width="1"/>
          <path id="Path_2705" data-name="Path 2705" d="M50.423,129.826a17.332,17.332,0,0,0-9.757,4.946" transform="translate(-26.777 -80.142)" fill="none" stroke="#007c9d" stroke-linecap="round" stroke-linejoin="round" stroke-width="1"/>
          <line id="Line_357" data-name="Line 357" x2="40.13" transform="translate(6.603 54.628)" fill="none" stroke="#007c9d" stroke-linecap="round" stroke-linejoin="round" stroke-width="1"/>
          <path id="Path_2706" data-name="Path 2706" d="M28.277,127c-.122-1.737-1.943-5.756-1.943-5.756" transform="translate(-17.34 -74.846)" fill="none" stroke="#007c9d" stroke-linecap="round" stroke-linejoin="round" stroke-width="1"/>
          <path id="Path_2707" data-name="Path 2707" d="M76.534,72.084a173.086,173.086,0,0,0-.085,21.11" transform="translate(-50.151 -44.498)" fill="none" stroke="#007c9d" stroke-linecap="round" stroke-linejoin="round" stroke-width="1"/>
          <path id="Path_2708" data-name="Path 2708" d="M107.36,37.378a55.934,55.934,0,0,0-3.493,11.058" transform="translate(-68.393 -23.074)" fill="none" stroke="#007c9d" stroke-linecap="round" stroke-linejoin="round" stroke-width="1"/>
          <path id="Path_2709" data-name="Path 2709" d="M133.543,23.45c.43,3.734,1.124,12.969,1.124,33.726" transform="translate(-87.933 -14.476)" fill="none" stroke="#007c9d" stroke-linecap="round" stroke-linejoin="round" stroke-width="1"/>
          <line id="Line_358" data-name="Line 358" y1="4.814" transform="translate(46.733 0.191)" fill="none" stroke="#007c9d" stroke-linecap="round" stroke-linejoin="round" stroke-width="1"/>
          <path id="Path_2710" data-name="Path 2710" d="M15.333,148.079H53.471v4.5H56.83" transform="translate(-10.097 -91.41)" fill="none" stroke="#007c9d" stroke-linecap="round" stroke-linejoin="round" stroke-width="1"/>
          <line id="Line_359" data-name="Line 359" x2="39.618" transform="translate(3.757 58.645)" fill="none" stroke="#007c9d" stroke-linecap="round" stroke-linejoin="round" stroke-width="1"/>
          <path id="Path_2711" data-name="Path 2711" d="M43.739,162.348v-2.519H6" transform="translate(-3.951 -98.664)" fill="none" stroke="#007c9d" stroke-linecap="round" stroke-linejoin="round" stroke-width="1"/>
          <path id="Path_2712" data-name="Path 2712" d="M150.324,89.764a35.977,35.977,0,0,0-13.491-11.927,43.244,43.244,0,0,1,8.481-20.921s7.571,10.97,6.718,32.848" transform="translate(-90.1 -35.133)" fill="none" stroke="#007c9d" stroke-linecap="round" stroke-linejoin="round" stroke-width="1"/>
          <path id="Path_2713" data-name="Path 2713" d="M185.5,124.638s.57-2.1,3.814-5.932a41.437,41.437,0,0,1,11.954-5.294,43.132,43.132,0,0,0-14.06,11.226" transform="translate(-122.145 -70.01)" fill="none" stroke="#007c9d" stroke-linecap="round" stroke-linejoin="round" stroke-width="1"/>
          <path id="Path_2714" data-name="Path 2714" d="M231.667,113.412s2.9,3.189,3.757,11.226" transform="translate(-152.544 -70.01)" fill="none" stroke="#007c9d" stroke-linecap="round" stroke-linejoin="round" stroke-width="1"/>
          <path id="Path_2715" data-name="Path 2715" d="M173.621,83.828a52.95,52.95,0,0,0-11.954-26.916" transform="translate(-106.452 -35.132)" fill="none" stroke="#007c9d" stroke-linecap="round" stroke-linejoin="round" stroke-width="1"/>
          <path id="Path_2716" data-name="Path 2716" d="M136.833,128.079s4.838.574,11.5,5.613" transform="translate(-90.1 -79.064)" fill="none" stroke="#007c9d" stroke-linecap="round" stroke-linejoin="round" stroke-width="1"/>
          <path id="Path_2717" data-name="Path 2717" d="M204.432,129.826a17.332,17.332,0,0,1,9.757,4.944" transform="translate(-134.611 -80.142)" fill="none" stroke="#007c9d" stroke-linecap="round" stroke-linejoin="round" stroke-width="1"/>
          <line id="Line_360" data-name="Line 360" x1="40.13" transform="translate(46.733 54.628)" fill="none" stroke="#007c9d" stroke-linecap="round" stroke-linejoin="round" stroke-width="1"/>
          <path id="Path_2718" data-name="Path 2718" d="M241.644,127c.122-1.737,1.943-5.756,1.943-5.756" transform="translate(-159.114 -74.846)" fill="none" stroke="#007c9d" stroke-linecap="round" stroke-linejoin="round" stroke-width="1"/>
          <path id="Path_2719" data-name="Path 2719" d="M196.418,72.084a173.082,173.082,0,0,1,.085,21.11" transform="translate(-129.334 -44.498)" fill="none" stroke="#007c9d" stroke-linecap="round" stroke-linejoin="round" stroke-width="1"/>
          <path id="Path_2720" data-name="Path 2720" d="M159.57,37.378a55.935,55.935,0,0,1,3.493,11.058" transform="translate(-105.071 -23.074)" fill="none" stroke="#007c9d" stroke-linecap="round" stroke-linejoin="round" stroke-width="1"/>
          <path id="Path_2721" data-name="Path 2721" d="M137.958,23.45c-.43,3.734-1.124,12.969-1.124,33.726" transform="translate(-90.101 -14.476)" fill="none" stroke="#007c9d" stroke-linecap="round" stroke-linejoin="round" stroke-width="1"/>
          <path id="Path_2722" data-name="Path 2722" d="M178.329,148.079H140.191v4.5h-3.359" transform="translate(-90.099 -91.41)" fill="none" stroke="#007c9d" stroke-linecap="round" stroke-linejoin="round" stroke-width="1"/>
          <line id="Line_361" data-name="Line 361" x1="39.618" transform="translate(50.092 58.645)" fill="none" stroke="#007c9d" stroke-linecap="round" stroke-linejoin="round" stroke-width="1"/>
          <path id="Path_2723" data-name="Path 2723" d="M157.167,162.348v-2.519h37.739" transform="translate(-103.488 -98.664)" fill="none" stroke="#007c9d" stroke-linecap="round" stroke-linejoin="round" stroke-width="1"/>
          <path id="Path_2724" data-name="Path 2724" d="M93.945,55.848a29.431,29.431,0,0,0-8.481,1.4c-1.252-4.146-4.554-15.946-17.7-23.918.115,1.664.219,3.375.313,5.1a53.673,53.673,0,0,0-16.252-20.6,79.156,79.156,0,0,1,3.667,7.322h0a19.831,19.831,0,0,0-6.306-7.577,21.181,21.181,0,0,0-.334,2.247l-1.126-1.991L46.6,19.826a21.186,21.186,0,0,0-.334-2.247,19.834,19.834,0,0,0-6.307,7.577h0a79.324,79.324,0,0,1,3.667-7.322,53.667,53.667,0,0,0-16.254,20.6c.093-1.729.2-3.441.313-5.1-13.148,7.972-16.45,19.772-17.7,23.918a29.438,29.438,0,0,0-8.481-1.4,40.572,40.572,0,0,1,6.091,9.631H6.224V67.52H4.744V69.5H3.033v5.038H92.405V69.5H90.7V67.52h-1.48V65.479H87.851A40.538,40.538,0,0,1,93.945,55.848Z" transform="translate(-0.987 -10.852)" fill="none" stroke="#007c9d" stroke-linecap="round" stroke-linejoin="round" stroke-width="1"/>
        </g>
      </g>
    </g>
  </g>
</svg>
