<svg xmlns="http://www.w3.org/2000/svg" xmlns:xlink="http://www.w3.org/1999/xlink" width="68" height="68" viewBox="0 0 68 68">
  <defs>
    <clipPath id="clip-path">
      <rect id="Rectangle_28" data-name="Rectangle 28" width="51.386" height="51.386" transform="translate(0 0)" fill="none"/>
    </clipPath>
  </defs>
  <g id="cataract_icon" transform="translate(-217 -209)">
    <rect id="Rectangle_52" data-name="Rectangle 52" width="68" height="68" rx="3" transform="translate(217 209)" fill="#fff"/>
    <g id="Group_49" data-name="Group 49" transform="translate(225 217.005)">
      <g id="Group_48" data-name="Group 48" transform="translate(0 -0.005)" clip-path="url(#clip-path)">
        <path id="Path_223" data-name="Path 223" d="M51.313,315.062a27.423,27.423,0,0,0-18.3-14.494c6.912-1.258,11.3-4.515,13.333-9.863a.748.748,0,1,0-1.4-.532c-2.038,5.365-6.588,8.354-14.155,9.223a11.127,11.127,0,0,0,5.576-6.2.748.748,0,1,0-1.4-.532c-1.577,4.149-5.22,6.457-11.127,7.045a10.977,10.977,0,0,0,3.795-5.041.748.748,0,1,0-1.4-.532c-1.214,3.2-3.641,5.259-7.417,6.3a.737.737,0,0,0-.075.029,29.564,29.564,0,0,0-3.191.935.748.748,0,0,0,.5,1.409,28.512,28.512,0,0,1,9.632-1.653c10.4,0,19.826,5.569,24.113,14.218C45.519,324.034,36.1,329.6,25.693,329.6S5.867,324.034,1.58,315.384a24.948,24.948,0,0,1,9.533-10.217.748.748,0,1,0-.775-1.28A26.392,26.392,0,0,0,.073,315.062a.749.749,0,0,0,0,.644C4.53,325.058,14.586,331.1,25.693,331.1s21.163-6.042,25.62-15.393a.749.749,0,0,0,0-.644" transform="translate(0 -279.713)"/>
        <path id="Path_224" data-name="Path 224" d="M435.785,731.732a.748.748,0,0,0-.911.538,10.732,10.732,0,1,0,3.295-5.365.748.748,0,0,0,.99,1.122,9.2,9.2,0,1,1-2.835,4.615.748.748,0,0,0-.538-.911" transform="translate(-419.569 -699.28)" fill="#ed8851"/>
        <path id="Path_225" data-name="Path 225" d="M769.922,1016.529a.748.748,0,1,0,.75,1.295,3.881,3.881,0,0,0,1.93-3.347v-.013a.743.743,0,0,0-.748-.742.754.754,0,0,0-.748.755,2.38,2.38,0,0,1-1.184,2.052" transform="translate(-743.043 -978.806)" fill="#ed8851"/>
        <path id="Path_226" data-name="Path 226" d="M682.972,923.89a3.866,3.866,0,0,0-1.922-.511h0a3.863,3.863,0,0,0-1.942.523.748.748,0,1,0,.753,1.293,2.365,2.365,0,0,1,1.189-.32h0a2.368,2.368,0,0,1,1.177.312.748.748,0,1,0,.745-1.3" transform="translate(-655.356 -891.574)" fill="#ed8851"/>
        <path id="Path_227" data-name="Path 227" d="M634.445,1014.09h0a.748.748,0,0,0-.747.75,3.881,3.881,0,0,0,1.937,3.343.748.748,0,1,0,.748-1.3,2.38,2.38,0,0,1-1.188-2.05.748.748,0,0,0-.748-.747" transform="translate(-611.87 -979.161)" fill="#ed8851"/>
        <path id="Path_228" data-name="Path 228" d="M289.693,13.266a.753.753,0,0,0,.015.118s0,.009,0,.014l1.247,4.989a.748.748,0,0,0,.726.567h.5v9.23a.748.748,0,0,0,.333.623L300,33.794a.748.748,0,1,0,.83-1.245l-7.15-4.767V18.953h.5a.748.748,0,0,0,.726-.567l1.247-4.989s0-.009,0-.014a.749.749,0,0,0,.015-.118c0-.015,0-.029,0-.044s0,0,0-.007V.743A.748.748,0,0,0,295.425,0h-4.989a.748.748,0,0,0-.748.748V13.216s0,0,0,.007,0,.029,0,.044m3.9,4.191h-1.326l-.873-3.493h3.072ZM291.185,1.492h3.492V12.467h-3.492Z" transform="translate(-279.71 0.005)" fill="#ed8851"/>
      </g>
    </g>
  </g>
</svg>
