<svg xmlns="http://www.w3.org/2000/svg" width="68" height="68" viewBox="0 0 68 68">
  <g id="Circumcision" transform="translate(-69 -77)">
    <rect id="Rectangle_5259" data-name="Rectangle 5259" width="68" height="68" transform="translate(69 77)" fill="none"/>
    <g id="Group_17227" data-name="Group 17227" transform="translate(-481 -3195.056)">
      <g id="circumcision_1_" data-name="circumcision (1)" transform="translate(465.133 3274.056)">
        <g id="Group_17223" data-name="Group 17223" transform="translate(97.867)">
          <path id="Path_13849" data-name="Path 13849" d="M143.25,2.632A3.88,3.88,0,0,0,139.583,0H118.816a3.88,3.88,0,0,0-3.666,2.632,56.141,56.141,0,0,0,0,36.8,3.88,3.88,0,0,0,3.666,2.632h20.768a3.88,3.88,0,0,0,3.666-2.632,56.14,56.14,0,0,0,0-36.8Z" transform="translate(-110.245)" fill="#fff" stroke="#000" stroke-width="1.4"/>
          <path id="Path_13852" data-name="Path 13852" d="M116.821,295.288c-9.548,0-15.485-11.527-18.513-19.783-1.606-4.38,1.321-9.043,6.39-10.174a55.855,55.855,0,0,1,24.245,0c5.07,1.131,8,5.794,6.39,10.174C132.306,283.761,126.369,295.288,116.821,295.288Z" transform="translate(-97.867 -230.421)" fill="#fff" stroke="#000" stroke-width="1.4"/>
        </g>
        <g id="Group_17226" data-name="Group 17226" transform="translate(110.802 3.32)">
          <g id="Group_17225" data-name="Group 17225" transform="translate(0 14.7)">
            <g id="Group_17224" data-name="Group 17224" transform="translate(0 0)">
              <path id="Path_13860" data-name="Path 13860" d="M213.763,135.681l3.073,3.073a1.548,1.548,0,0,0-1.052,2.184,2.183,2.183,0,0,1-.421,2.5l-2.3,2.3a8.657,8.657,0,0,1-8.372,2.237,1.518,1.518,0,0,1-.679-2.54Z" transform="translate(-203.565 -135.681)" fill="none" stroke="#ec8046" stroke-width="1.4"/>
              <path id="Path_13861" data-name="Path 13861" d="M210.112,181.121a1.546,1.546,0,0,1-.335-.134,12.016,12.016,0,0,0,7.564-3.6l3.727-3.727a1.583,1.583,0,0,0,.137.426,2.185,2.185,0,0,1-.421,2.5l-2.3,2.3A8.657,8.657,0,0,1,210.112,181.121Z" transform="translate(-208.987 -168.829)" fill="none" stroke="#ec8046" stroke-width="1.4"/>
            </g>
          </g>
          <path id="Path_13862" data-name="Path 13862" d="M296.512,27.117a3.47,3.47,0,0,1,0,4.907l-11.49,11.49a2.035,2.035,0,0,1-2.878,0l-2.029-2.029a2.035,2.035,0,0,1,0-2.878l11.49-11.49A3.47,3.47,0,0,1,296.512,27.117Z" transform="translate(-269.35 -26.101)" fill="none" stroke="#ec8046" stroke-width="1.4"/>
        </g>
      </g>
      <path id="Path_13863" data-name="Path 13863" d="M6505.036-2879.985c.009-.011,9.99-4.143,2.925-12.412" transform="translate(-3286.66 -2644.595) rotate(81)" fill="none" stroke="#ec8046" stroke-linecap="round" stroke-width="1"/>
    </g>
  </g>
</svg>
