<svg xmlns="http://www.w3.org/2000/svg" xmlns:xlink="http://www.w3.org/1999/xlink" width="68" height="68" viewBox="0 0 68 68">
  <defs>
    <clipPath id="clip-Surgery_for_Stroke">
      <rect width="68" height="68"/>
    </clipPath>
  </defs>
  <g id="Surgery_for_Stroke" data-name="Surgery for Stroke" clip-path="url(#clip-Surgery_for_Stroke)">
    <g id="Group_17479" data-name="Group 17479" transform="translate(-1.416 1.675)">
      <g id="Layer_x0020_1" transform="translate(4.416 7.325)">
        <path id="Path_14484" data-name="Path 14484" d="M33.049,172.462a7.394,7.394,0,0,1-6.953-4.835,7.429,7.429,0,0,1-6.32-8.569,8.064,8.064,0,0,1,0-12.968,7.429,7.429,0,0,1,6.32-8.569,7.415,7.415,0,0,1,13.227-1.363,7.415,7.415,0,0,1,13.227,1.363,7.432,7.432,0,0,1,6.32,8.569,8.064,8.064,0,0,1,0,12.968,7.432,7.432,0,0,1-6.32,8.569,7.414,7.414,0,0,1-13.227,1.367A7.427,7.427,0,0,1,33.049,172.462Zm7.414-32.354v24.936a5.137,5.137,0,0,0,9.554,2.619,5.5,5.5,0,0,1-5.079-5.288,1.142,1.142,0,1,1,2.273-.216,3.408,3.408,0,0,0,1.176,2.5,4.742,4.742,0,0,0,3.277.755,5.159,5.159,0,0,0,4.824-6.554,1.137,1.137,0,0,1,.518-1.3,5.778,5.778,0,0,0,0-9.961,1.142,1.142,0,0,1-.518-1.3,5.159,5.159,0,0,0-4.81-6.554,4.743,4.743,0,0,0-3.291.755,3.408,3.408,0,0,0-1.176,2.5,1.142,1.142,0,0,1-2.273-.216,5.5,5.5,0,0,1,5.079-5.284,5.136,5.136,0,0,0-9.554,2.619Zm-2.281,24.541V140.109a5.136,5.136,0,0,0-9.554-2.619,5.5,5.5,0,0,1,5.079,5.284,1.142,1.142,0,0,1-2.273.216,3.408,3.408,0,0,0-1.176-2.5,4.744,4.744,0,0,0-3.277-.755,5.159,5.159,0,0,0-4.824,6.554,1.142,1.142,0,0,1-.518,1.3,5.77,5.77,0,0,0,0,9.961,1.142,1.142,0,0,1,.518,1.3,5.157,5.157,0,0,0,4.81,6.554,4.74,4.74,0,0,0,3.291-.755,3.408,3.408,0,0,0,1.176-2.5,1.142,1.142,0,1,1,2.273.216,5.5,5.5,0,0,1-5.079,5.288,5.127,5.127,0,0,0,4.421,2.514C36.221,170.178,38.182,167.685,38.182,164.649ZM52.29,154.088A5.45,5.45,0,0,1,49.038,153a5.4,5.4,0,0,1-5.18,1.975,1.141,1.141,0,1,1,.4-2.248,3.09,3.09,0,0,0,3.252-1.54A5.423,5.423,0,0,1,47.621,146a1.14,1.14,0,0,1,1.975,1.14,3.111,3.111,0,0,0,3.23,4.615,1.141,1.141,0,0,1,.4,2.248A5.435,5.435,0,0,1,52.29,154.088Zm-25.936,0a5.435,5.435,0,0,1-.932-.083,1.141,1.141,0,0,1,.4-2.248,3.111,3.111,0,0,0,3.23-4.615A1.14,1.14,0,1,1,31.023,146a5.423,5.423,0,0,1,.115,5.184,3.087,3.087,0,0,0,3.252,1.54,1.141,1.141,0,1,1,.4,2.248A5.4,5.4,0,0,1,29.606,153,5.45,5.45,0,0,1,26.354,154.088Zm12.968-26.6a1.144,1.144,0,0,1-1.14-1.144v-3.2a1.14,1.14,0,1,1,2.281,0v3.2A1.144,1.144,0,0,1,39.322,127.489Zm13.015,3.486a1.147,1.147,0,0,1-.989-1.712l1.6-2.773a1.14,1.14,0,0,1,1.975,1.14l-1.6,2.773A1.144,1.144,0,0,1,52.337,130.975Zm9.529,9.529a1.143,1.143,0,0,1-.572-2.13l2.773-1.6a1.142,1.142,0,1,1,1.14,1.978l-2.773,1.6A1.127,1.127,0,0,1,61.866,140.5Zm-35.559-9.529a1.139,1.139,0,0,1-.989-.572l-1.6-2.773a1.14,1.14,0,1,1,1.975-1.14l1.6,2.773A1.147,1.147,0,0,1,26.307,130.975ZM16.778,140.5a1.127,1.127,0,0,1-.568-.155l-2.777-1.6a1.143,1.143,0,0,1,1.144-1.978l2.773,1.6A1.143,1.143,0,0,1,16.778,140.5Z" transform="translate(-12.864 -122)" fill-rule="evenodd"/>
      </g>
      <path id="Path_14485" data-name="Path 14485" d="M20.028,31.4l-8.287,3.28,15.8-15.8,2.18-2.18L41.939,4.48C43.718,2.7,45.97,2.259,47.162,3.452l.165.175c1.2,1.193.761,3.434-1.028,5.223L34.1,21.014l-2.18,2.18L26.115,29l-6.087,2.4M30.474,18.875l1.45,1.46.73-.73L44.8,7.411c1.1-1.09,1.193-2.149,1.028-2.313l-.165-.165c-.165-.165-1.224-.072-2.324,1.028L31.2,18.1ZM20.192,29.158l4.791-1.882L30.5,21.765l-1.46-1.45Z" transform="translate(19.371 11.138)" fill="#ec8046" stroke="#fff" stroke-width="0.5"/>
    </g>
  </g>
</svg>
