<svg xmlns="http://www.w3.org/2000/svg" width="68" height="68" viewBox="0 0 68 68">
  <g id="Bone_Marrow_Transplant" data-name="Bone Marrow Transplant" transform="translate(-64 -80)">
    <rect id="Rectangle_5259" data-name="Rectangle 5259" width="68" height="68" transform="translate(64 80)" fill="none"/>
    <g id="transplant" transform="translate(69 84.822)">
      <path id="Path_13581" data-name="Path 13581" d="M16.394,48.293a6.383,6.383,0,0,0-2.462-4.04,2.749,2.749,0,0,1-1.006-1.505l-1.765.459a4.59,4.59,0,0,0,1.677,2.505A4.622,4.622,0,0,1,14.6,48.6Z" transform="translate(-0.898 -3.763)"/>
      <path id="Path_13582" data-name="Path 13582" d="M24.824,26.972A8.407,8.407,0,0,1,23.035,31.9l1.432,1.128a10.239,10.239,0,0,0,2.179-6.008Z" transform="translate(-1.948 -2.368)"/>
      <path id="Path_13583" data-name="Path 13583" d="M14.293,29.586A7.284,7.284,0,0,0,18.67,16.473c-.052-.039-.1-.082-.157-.118a7.289,7.289,0,1,0-4.22,13.23Zm-.912-2.735a.912.912,0,1,1,.912.912A.913.913,0,0,1,13.381,26.851Zm4.558-8.2a.912.912,0,1,1-.912-.912A.913.913,0,0,1,17.939,18.646Zm-2.973-1.778a2.726,2.726,0,1,0,4.35,3.265,5.457,5.457,0,0,1-2.307,6.9c0-.062.018-.12.018-.183a2.735,2.735,0,0,0-5.47,0c0,.063.015.121.018.183a5.5,5.5,0,0,1-2.056-2.077,3.63,3.63,0,0,0,1.115-6.72,5.372,5.372,0,0,1,4.331-1.368ZM9.483,19.69A1.814,1.814,0,0,1,8.9,23.2a5.359,5.359,0,0,1,.579-3.506Z" transform="translate(-0.53 -1.31)" fill="#ec8046"/>
      <path id="Path_13584" data-name="Path 13584" d="M45.931,44.253a2.749,2.749,0,0,1-1.006-1.505l-1.765.459a4.59,4.59,0,0,0,1.677,2.505A4.622,4.622,0,0,1,46.6,48.6l1.8-.308A6.388,6.388,0,0,0,45.931,44.253Z" transform="translate(-3.726 -3.763)"/>
      <path id="Path_13585" data-name="Path 13585" d="M57.52,24.371a13.893,13.893,0,0,0-2.763-8.287l-1.248-1.665a7.339,7.339,0,0,1-1.459-4.376V4.574H50.227v5.47a9.173,9.173,0,0,0,1.823,5.47L53.3,17.178A11.989,11.989,0,0,1,50.68,34.124a2.7,2.7,0,0,0-1.365-.378h-1a4.558,4.558,0,0,0-8.932,0h-1a2.7,2.7,0,0,0-1.365.379,11.99,11.99,0,0,1-2.619-16.947l1.249-1.665a9.108,9.108,0,0,0,.942-1.591l8.961-5.7L32.907.178v4.4H13.763v7.293h7.5a9.121,9.121,0,0,0,1.621,3.646l1.249,1.665a11.989,11.989,0,0,1-2.619,16.946,2.7,2.7,0,0,0-1.365-.378h-1a4.558,4.558,0,0,0-8.932,0h-1a2.7,2.7,0,0,0-1.365.379A11.99,11.99,0,0,1,5.221,17.178L6.47,15.513a9.173,9.173,0,0,0,1.823-5.47V4.574H6.47v5.47a7.339,7.339,0,0,1-1.459,4.376L3.762,16.084a13.728,13.728,0,0,0-.939,15.1V46.508A7.3,7.3,0,0,0,10.116,53.8h8.59l6.907,4.4V53.8H48.4V45.6a.915.915,0,0,1,.365-.729A8.243,8.243,0,0,0,52.05,38.3V36.48a2.719,2.719,0,0,0-.187-.973A13.831,13.831,0,0,0,57.52,24.371ZM43.846,31.922a2.738,2.738,0,0,1,2.735,2.735.913.913,0,0,1-.912.912H42.023a.913.913,0,0,1-.912-.912A2.738,2.738,0,0,1,43.846,31.922Zm-8.018,3.585a2.719,2.719,0,0,0-.187.973V46.508H33.818V33.693a13.715,13.715,0,0,0,2.01,1.815Zm3.46,11H37.465V43.446a8.13,8.13,0,0,0,1.459,1.421.915.915,0,0,1,.365.729ZM15.586,6.4H34.73V3.5l7.418,4.72-7.418,4.72v-2.9H15.586ZM28.348,24.371a13.893,13.893,0,0,0-2.763-8.287l-1.248-1.665a7.3,7.3,0,0,1-1.223-2.553h9.793v4.258a13.722,13.722,0,0,0-.912,15.055V46.508H25.614v-4.4l-6.381,4.061V45.6a.915.915,0,0,1,.365-.729A8.243,8.243,0,0,0,22.879,38.3V36.48a2.719,2.719,0,0,0-.187-.973,13.831,13.831,0,0,0,5.657-11.136ZM14.674,31.922a2.738,2.738,0,0,1,2.735,2.735.913.913,0,0,1-.912.912H12.851a.913.913,0,0,1-.912-.912A2.738,2.738,0,0,1,14.674,31.922ZM4.646,46.508V33.693a13.715,13.715,0,0,0,2.01,1.815,2.719,2.719,0,0,0-.187.973V45.6a4.567,4.567,0,0,0,3.646,4.466v1.915a5.475,5.475,0,0,1-5.47-5.47Zm5.47,1.655A2.731,2.731,0,0,1,8.293,45.6V43.446a8.13,8.13,0,0,0,1.459,1.421.915.915,0,0,1,.365.729Zm1.823,3.814V45.6a2.747,2.747,0,0,0-1.094-2.188A6.413,6.413,0,0,1,8.293,38.3V36.48a.913.913,0,0,1,.912-.912h1.079a2.731,2.731,0,0,0,2.567,1.823H16.5a2.731,2.731,0,0,0,2.567-1.823h1.079a.913.913,0,0,1,.912.912V38.3A6.412,6.412,0,0,1,18.5,43.409,2.749,2.749,0,0,0,17.409,45.6v1.738l-4.433,2.821,2.865,1.823Zm30.995,0H23.79v2.9l-7.418-4.72,7.418-4.72v2.9H42.934ZM50.227,38.3a6.412,6.412,0,0,1-2.553,5.105A2.749,2.749,0,0,0,46.581,45.6v6.381H44.757v-5.47H41.111V45.6a2.747,2.747,0,0,0-1.094-2.188A6.413,6.413,0,0,1,37.465,38.3V36.48a.913.913,0,0,1,.912-.912h1.079a2.731,2.731,0,0,0,2.567,1.823h3.646a2.731,2.731,0,0,0,2.567-1.823h1.079a.913.913,0,0,1,.912.912Z" stroke="#fff" stroke-width="0.3"/>
      <path id="Path_13586" data-name="Path 13586" d="M56.824,26.972A8.407,8.407,0,0,1,55.035,31.9l1.432,1.128a10.239,10.239,0,0,0,2.179-6.008Z" transform="translate(-4.776 -2.368)"/>
      <path id="Path_13587" data-name="Path 13587" d="M14.293,29.586A7.284,7.284,0,0,0,18.67,16.473c-.052-.039-.1-.082-.157-.118a7.289,7.289,0,1,0-4.22,13.23Zm-.912-2.735a.912.912,0,1,1,.912.912A.913.913,0,0,1,13.381,26.851Zm4.558-8.2a.912.912,0,1,1-.912-.912A.913.913,0,0,1,17.939,18.646Zm-2.973-1.778a2.726,2.726,0,1,0,4.35,3.265,5.457,5.457,0,0,1-2.307,6.9c0-.062.018-.12.018-.183a2.735,2.735,0,0,0-5.47,0c0,.063.015.121.018.183a5.5,5.5,0,0,1-2.056-2.077,3.63,3.63,0,0,0,1.115-6.72,5.372,5.372,0,0,1,4.331-1.368ZM9.483,19.69A1.814,1.814,0,0,1,8.9,23.2a5.359,5.359,0,0,1,.579-3.506Z" transform="translate(29.553 -1.31)" fill="#ec8046"/>
    </g>
  </g>
</svg>
