<svg xmlns="http://www.w3.org/2000/svg" width="68" height="68" viewBox="0 0 68 68">
  <g id="Hip_Replacement" data-name="Hip Replacement" transform="translate(-64 -79)">
    <rect id="Rectangle_5259" data-name="Rectangle 5259" width="68" height="68" transform="translate(64 79)" fill="none"/>
    <g id="hip-replacement" transform="translate(68.999 84.053)">
      <path id="Path_13445" data-name="Path 13445" d="M54.413,32.819c-.736-1.673-2.546-2.025-3.415-2.194a2.589,2.589,0,0,0-1.97.485l-2.383-3.076a3.641,3.641,0,0,0-3.5-4.558,3.6,3.6,0,0,0-1.4.281,7.932,7.932,0,0,1,.638-1.41L46.315,15.5a8.726,8.726,0,0,0-2.993-11.72A5.779,5.779,0,0,0,35.57,5.467L32.586,9.836c-1.261,1.624-4.1,1.384-5.919,1a2.341,2.341,0,0,1-1.479-.984L22.224,5.5a5.789,5.789,0,0,0-7.766-1.69A8.725,8.725,0,0,0,11.467,15.53L15.4,22.379a8.069,8.069,0,0,1,.642,1.417,3.592,3.592,0,0,0-1.474-.32,3.641,3.641,0,0,0-3.5,4.558L8.678,31.113a2.588,2.588,0,0,0-1.967-.488c-.87.169-2.68.521-3.415,2.194-.712,1.621-.138,3.943,1.754,7.094l-.8,13.876a.9.9,0,0,0,.886.943l6.128.025a.9.9,0,0,0,.894-.93l-.5-11.766a1.767,1.767,0,0,1,1.323-1.672c2.774-1.7,1.821-4.172-.848-5.744l2.924-3.925a3.6,3.6,0,0,0,2.193-1.152c.949,3.005,2.5,4.609,4.549,4.609,3.669-.174,6.278-1.573,7.112-2.8.951,1.2,2.866,2.378,6.678,2.747,2.213.213,3.905-1.364,4.922-4.506a3.607,3.607,0,0,0,2.15,1.1l2.924,3.925c-1.511.991-2.748,2.124-2.483,3.6a3.056,3.056,0,0,0,1.636,2.143,1.771,1.771,0,0,1,1.322,1.673l-.5,11.765a.9.9,0,0,0,.894.93l6.128-.025a.892.892,0,0,0,.886-.943l-.8-13.876c1.893-3.151,2.467-5.473,1.754-7.094Zm-7.479.657L44.66,30.423a3.644,3.644,0,0,0,1.032-.71l2.036,2.627A11.141,11.141,0,0,0,46.934,33.476ZM26.313,12.586c2.43.506,5.553.609,7.4-1.325a.843.843,0,0,1,.381.227l2.5,2.787a.892.892,0,0,1,.018,1.171l-2.92,3.49a2.717,2.717,0,0,0-.4.643l-1.744,3.979a.9.9,0,0,1-.8.533l-3.7.02a.88.88,0,0,1-.807-.531c-.276-.511-1.757-4.27-2.136-4.607l-2.93-3.5a.891.891,0,0,1,.024-1.169l2.494-2.777a.866.866,0,0,1,.391-.234,4.1,4.1,0,0,0,2.238,1.294Zm9.742,7.458a.819.819,0,0,1,.419.715v2.553a.8.8,0,0,1-.792.8H33.253l1.664-3.8a3.352,3.352,0,0,1,.47-.626l.668.357Zm-14.747.715c-.045-.586.663-.832,1.072-1.058a3.817,3.817,0,0,1,.476.626l1.662,3.785H22.1a.8.8,0,0,1-.792-.8ZM10.775,33.476a10.971,10.971,0,0,0-.794-1.135l2.037-2.629a3.644,3.644,0,0,0,1.032.71Zm2.081,4.456c-.063.557-.712.909-1.2,1.128a3.309,3.309,0,0,0-1.784,3.078l.465,10.832-4.253-.018.763-13.214a.9.9,0,0,0-.13-.518c-2.627-4.52-2.7-6.343.335-6.846.434-.092,1.276.52,2.211,2.046a4.284,4.284,0,0,0,1.044,1.153c.117.086.237.176.362.253,2.009,1.241,2.232,1.852,2.187,2.106Zm1.713-8.947a1.863,1.863,0,0,1,0-3.726A1.863,1.863,0,0,1,14.568,28.985Zm7.455,3.4c-2.756.266-3.63-5.354-3.826-7.078a9.641,9.641,0,0,0-1.253-3.814l-3.932-6.847c-2.242-3.677-.1-9.564,4.439-9.889a3.968,3.968,0,0,1,3.3,1.748l2.264,3.325a2.686,2.686,0,0,0-.647.5l-2.5,2.783a2.677,2.677,0,0,0-.062,3.51L21.212,18.3a2.673,2.673,0,0,0-1.687,2.455s0,2.553,0,2.553A2.582,2.582,0,0,0,22.1,25.895H28v2.978c0,1.837-2.236,3.148-5.981,3.51Zm13.734-.03c-3.721-.361-5.953-1.665-5.97-3.51V25.895h5.893a2.582,2.582,0,0,0,2.575-2.583V20.759a2.689,2.689,0,0,0-1.7-2.468l1.42-1.7a2.678,2.678,0,0,0-.057-3.511L35.41,10.288a2.669,2.669,0,0,0-.636-.493l2.271-3.327A3.96,3.96,0,0,1,40.33,4.723c4.537.326,6.68,6.212,4.439,9.888l-3.93,6.846a9.786,9.786,0,0,0-1.254,3.81c-.2,1.731-1.073,7.342-3.827,7.084Zm5.532-5.229a1.851,1.851,0,0,1,3.7,0A1.851,1.851,0,0,1,41.29,27.122Zm10.335,25.83-4.253.018.465-10.831a3.308,3.308,0,0,0-1.786-3.079c-2.159-1.015-1.2-1.83,1.351-3.488a4.278,4.278,0,0,0,1.043-1.152c.937-1.53,1.78-2.131,2.212-2.047,3.037.5,2.96,2.33.334,6.846a.9.9,0,0,0-.13.518l.763,13.214Z" transform="translate(0 0)" stroke="#fff" stroke-width="0.8"/>
      <path id="Path_13446" data-name="Path 13446" d="M25.167,29.486a2.308,2.308,0,0,0,0,4.615A2.308,2.308,0,0,0,25.167,29.486Zm0,2.832a.525.525,0,0,1,0-1.049A.525.525,0,0,1,25.167,32.318Z" transform="translate(-2.158 -2.879)" fill="#ec8046" stroke="#fff" stroke-width="0.8"/>
      <path id="Path_13447" data-name="Path 13447" d="M38.36,29.486a2.308,2.308,0,0,0,0,4.615A2.308,2.308,0,0,0,38.36,29.486Zm0,2.832a.525.525,0,0,1,0-1.049A.525.525,0,0,1,38.36,32.318Z" transform="translate(-3.589 -2.879)" fill="#ec8046" stroke="#fff" stroke-width="0.8"/>
      <path id="Path_13448" data-name="Path 13448" d="M30.249,17.4h3.005a.892.892,0,0,0,0-1.783H30.249A.892.892,0,0,0,30.249,17.4Z" transform="translate(-2.86 -1.375)" fill="#ec8046" stroke="#fff" stroke-width="0.8"/>
      <path id="Path_13449" data-name="Path 13449" d="M30.249,20.548h3.005a.892.892,0,0,0,0-1.783H30.249A.892.892,0,0,0,30.249,20.548Z" transform="translate(-2.86 -1.716)" fill="#ec8046" stroke="#fff" stroke-width="0.8"/>
      <path id="Path_13450" data-name="Path 13450" d="M30.249,23.691h3.005a.892.892,0,0,0,0-1.783H30.249A.892.892,0,0,0,30.249,23.691Z" transform="translate(-2.86 -2.057)" fill="#ec8046" stroke="#fff" stroke-width="0.8"/>
    </g>
  </g>
</svg>
