<svg xmlns="http://www.w3.org/2000/svg" width="68" height="68" viewBox="0 0 68 68">
  <g id="Colonoscopy" transform="translate(-306 -623)">
    <g id="Gastroenterology" transform="translate(242 543)">
      <g id="Rectangle_5259" data-name="Rectangle 5259" transform="translate(64 80)" fill="none" stroke="#fff" stroke-width="0.4">
        <rect width="68" height="68" stroke="none"/>
        <rect x="0.2" y="0.2" width="67.6" height="67.6" fill="none"/>
      </g>
    </g>
    <g id="Group_17171" data-name="Group 17171" transform="translate(-448.478 -493.626)">
      <g id="colonoscopy-2" data-name="colonoscopy" transform="translate(759.477 1121.626)">
        <path id="Path_13634" data-name="Path 13634" d="M265.893,140.556a4.2,4.2,0,0,0,7.1,1.935,4.2,4.2,0,0,0,4.335,1.524" transform="translate(-236.096 -124.832)" fill="none" stroke="#000" stroke-linecap="round" stroke-linejoin="round" stroke-miterlimit="10" stroke-width="1.5"/>
        <path id="Path_13635" data-name="Path 13635" d="M151.087,270.815a5.163,5.163,0,0,0-8.452-3.181,5.183,5.183,0,0,0-3.09-2.256" transform="translate(-124.68 -234.902)" fill="none" stroke="#000" stroke-linecap="round" stroke-linejoin="round" stroke-miterlimit="10" stroke-width="1.5"/>
        <path id="Path_13636" data-name="Path 13636" d="M133.3,335.786a5.037,5.037,0,0,0,3.024-.165,1.2,1.2,0,0,1,1.391.451,5.007,5.007,0,0,0,4.084,2.106,8.935,8.935,0,0,0,1.613-.213" transform="translate(-119.169 -296.779)" fill="none" stroke="#000" stroke-linecap="round" stroke-linejoin="round" stroke-miterlimit="10" stroke-width="1.5"/>
        <path id="Path_13637" data-name="Path 13637" d="M111.708,47.105a2.635,2.635,0,0,0,2.691,1.85c.06,0,.12,0,.181,0a4.106,4.106,0,0,0,3.268-1.756.378.378,0,0,1,.607,0,3.92,3.92,0,0,0,6.537,0,.375.375,0,0,1,.343-.148c.232.276,1.282,1.9,4.41,1.9,2.962,0,5.363-1.978,5.363-4.418a4.106,4.106,0,0,0-1.756-3.268.378.378,0,0,1,0-.607,3.92,3.92,0,0,0,0-6.537.378.378,0,0,1,0-.607,3.92,3.92,0,0,0,0-6.537.378.378,0,0,1,0-.607,3.92,3.92,0,0,0,0-6.537.378.378,0,0,1,0-.607,4.106,4.106,0,0,0,1.756-3.268c0-2.44-2.4-4.418-5.363-4.418a6.317,6.317,0,0,0-2.2.388.373.373,0,0,1-.495-.28c-.451-2.38-2.207-4.154-4.3-4.154a4.106,4.106,0,0,0-3.268,1.756.378.378,0,0,1-.607,0,3.92,3.92,0,0,0-6.537,0,.378.378,0,0,1-.607,0,3.92,3.92,0,0,0-6.537,0,.378.378,0,0,1-.607,0,3.92,3.92,0,0,0-6.537,0,.378.378,0,0,1-.607,0A4.106,4.106,0,0,0,94.174,7.5c-2.1,0-3.853,1.775-4.3,4.154a.373.373,0,0,1-.495.28,6.318,6.318,0,0,0-2.2-.388,6.546,6.546,0,0,0-.734.041" transform="translate(-77.854 -7.5)" fill="none" stroke="#000" stroke-linecap="round" stroke-linejoin="round" stroke-miterlimit="10" stroke-width="1.5"/>
        <path id="Path_13638" data-name="Path 13638" d="M18.716,57.411a3.9,3.9,0,0,0-1,2.566,4.106,4.106,0,0,0,1.756,3.268.378.378,0,0,1,0,.607,3.92,3.92,0,0,0,0,6.537.378.378,0,0,1,0,.607,3.919,3.919,0,0,0,0,6.537.378.378,0,0,1,0,.607,3.919,3.919,0,0,0,0,6.537.378.378,0,0,1,0,.607,4.106,4.106,0,0,0-1.756,3.268,4.434,4.434,0,0,0,3.018,3.973.84.84,0,0,1,.493.985,4.351,4.351,0,0,1-4.219,3.31h-1.28A1.974,1.974,0,0,0,13.759,98.8h0a1.974,1.974,0,0,0,1.974,1.974h1.279a8.3,8.3,0,0,0,8.267-7.68.843.843,0,0,1,.474-.7,4.353,4.353,0,0,0,2.692-3.831,4.106,4.106,0,0,0-1.756-3.268.378.378,0,0,1,0-.607,3.92,3.92,0,0,0,0-6.537.378.378,0,0,1,0-.607,3.92,3.92,0,0,0,0-6.537.378.378,0,0,1,0-.607,3.92,3.92,0,0,0,0-6.537.378.378,0,0,1,0-.607,4.643,4.643,0,0,0,1.185-1.284.384.384,0,0,1,.5-.14,3.738,3.738,0,0,0,1.706.416,4.106,4.106,0,0,0,3.268-1.756.378.378,0,0,1,.607,0,3.92,3.92,0,0,0,6.537,0,.378.378,0,0,1,.607,0,3.92,3.92,0,0,0,6.537,0,.378.378,0,0,1,.607,0,3.92,3.92,0,0,0,6.537,0,.378.378,0,0,1,.607,0,4.106,4.106,0,0,0,3.268,1.756,3.739,3.739,0,0,0,1.706-.416.384.384,0,0,1,.5.14,4.643,4.643,0,0,0,1.185,1.284.378.378,0,0,1,0,.607,3.919,3.919,0,0,0,0,6.537.378.378,0,0,1,0,.607,3.919,3.919,0,0,0,0,6.537.378.378,0,0,1,0,.607,4.106,4.106,0,0,0-1.756,3.268,3.859,3.859,0,0,0,.874,2.415c.121.152-.087.359-.225.223A.4.4,0,0,1,60.9,84a3.92,3.92,0,0,0-6.537,0,.378.378,0,0,1-.607,0,4.106,4.106,0,0,0-3.268-1.756q-.091,0-.181,0a3.85,3.85,0,0,0-1.915.883,4.05,4.05,0,0,1-1.838.783,10.1,10.1,0,0,0-3.214,1.073,9.966,9.966,0,0,0-3.288,2.825c-2.806,3.8-1.7,8.517-1.345,12.879l.4,2.634a2.756,2.756,0,0,0,2.622,2.366,2.71,2.71,0,0,0,2.768-2.513c.205-2.819.437-7.113.509-8,.042-.512.038-1.113.1-1.7" transform="translate(-13.759 -51.513)" fill="none" stroke="#000" stroke-linecap="round" stroke-linejoin="round" stroke-miterlimit="10" stroke-width="1.5"/>
        <path id="Path_13639" data-name="Path 13639" d="M248.639,331.664l-.972-15.032a6.783,6.783,0,0,1,1.218-4.336h0a6.782,6.782,0,0,1,4.777-2.84l8.314-.954" transform="translate(-220.011 -272.929)" fill="none" stroke="#ec8046" stroke-linecap="round" stroke-linejoin="round" stroke-miterlimit="10" stroke-width="1.5"/>
        <path id="Path_13640" data-name="Path 13640" d="M367.213,296.906l-1.087.914,1.148,1.468a1.705,1.705,0,0,0,3.039-.866h0a1.7,1.7,0,0,0-.343-1.22h0A1.92,1.92,0,0,0,367.213,296.906Z" transform="translate(-324.483 -262.307)" fill="none" stroke="#ec8046" stroke-linecap="round" stroke-linejoin="round" stroke-miterlimit="10" stroke-width="1.5"/>
        <path id="Path_13641" data-name="Path 13641" d="M371.858,135.467a4.994,4.994,0,0,1,0-9.989" transform="translate(-325.134 -111.535)" fill="none" stroke="#000" stroke-linecap="round" stroke-linejoin="round" stroke-miterlimit="10" stroke-width="1.5"/>
        <path id="Path_13642" data-name="Path 13642" d="M319.336,226.139a3.472,3.472,0,0,1,3.493-5.039" transform="translate(-282.883 -195.836)" fill="none" stroke="#000" stroke-linecap="round" stroke-linejoin="round" stroke-miterlimit="10" stroke-width="1.5"/>
        <path id="Path_13643" data-name="Path 13643" d="M198.6,98.892a4.067,4.067,0,0,1-2.438,5.21" transform="translate(-174.607 -88.091)" fill="none" stroke="#000" stroke-linecap="round" stroke-linejoin="round" stroke-miterlimit="10" stroke-width="1.5"/>
        <path id="Path_13644" data-name="Path 13644" d="M215.7,205.3a5.462,5.462,0,0,1-9.1-3.186" transform="translate(-183.808 -179.114)" fill="none" stroke="#000" stroke-linecap="round" stroke-linejoin="round" stroke-miterlimit="10" stroke-width="1.5"/>
        <path id="Path_13645" data-name="Path 13645" d="M148.968,178.858a5.462,5.462,0,0,1-9.223,2.819" transform="translate(-124.856 -158.607)" fill="none" stroke="#000" stroke-linecap="round" stroke-linejoin="round" stroke-miterlimit="10" stroke-width="1.5"/>
      </g>
    </g>
  </g>
</svg>
