<svg xmlns="http://www.w3.org/2000/svg" xmlns:xlink="http://www.w3.org/1999/xlink" width="68" height="68" viewBox="0 0 68 68">
  <defs>
    <clipPath id="clip-Angioplasty">
      <rect width="68" height="68"/>
    </clipPath>
  </defs>
  <g id="Angioplasty" clip-path="url(#clip-Angioplasty)">
    <g id="Angioplasty-2" data-name="Angioplasty" transform="translate(-303 -623)">
      <g id="Gastroenterology" transform="translate(239 543)">
        <g id="Rectangle_5259" data-name="Rectangle 5259" transform="translate(64 80)" fill="none" stroke="#fff" stroke-width="0.4">
          <rect width="68" height="68" stroke="none"/>
          <rect x="0.2" y="0.2" width="67.6" height="67.6" fill="none"/>
        </g>
      </g>
      <g id="Group_17164" data-name="Group 17164" transform="translate(462.988 629.435)">
        <path id="Path_13630" data-name="Path 13630" d="M59.082,68.637a1.571,1.571,0,0,1-.963.364,1.515,1.515,0,0,1-.249,0,1.843,1.843,0,0,1-1.17-1.013,2.171,2.171,0,0,0-.152-.244h0a4.92,4.92,0,0,1-.866.258,2.11,2.11,0,0,1-2.243-.829,2.644,2.644,0,0,0-.921-.737c-.189-.088-.4.06-1.073.737a5.56,5.56,0,0,1-2.179,1.557,1.668,1.668,0,0,1-1.677-.217c-.852-.709-.673-2.1-.5-3.441.041-.313.083-.613.1-.866a10.272,10.272,0,0,0-3.123-.166c-.461,0-.921.037-1.313.037a2.4,2.4,0,0,1-1.843-.64,2.871,2.871,0,0,1-.516-2.3,6.974,6.974,0,0,0,0-1.161c-.032-.272-.115-.3-.152-.318a2.562,2.562,0,0,0-2.036.921,1.691,1.691,0,0,1-1.709.539c-1.013-.355-1.221-1.534-1.474-2.778-.064-.313-.129-.636-.2-.921a8.854,8.854,0,0,0-1.322,2.059,2.211,2.211,0,0,1-1.244,1.235,2.327,2.327,0,0,1-1.916-.525c-.157-.1-.322-.2-.5-.3a5.706,5.706,0,0,0-.774-.322c-.244-.083-.521-.184-.871-.336a2.3,2.3,0,0,1-3.768-1.741,2.156,2.156,0,0,1,.074-.548c-1.944-2.147-.557-5.753.147-7.237a3.307,3.307,0,0,0-1.8.7,2.059,2.059,0,0,0-.585,1.7v.06c0,.06-.129,5.988,2.851,8.7a.921.921,0,0,1,.258.41,4.272,4.272,0,0,0,1.1,1.958,6.6,6.6,0,0,0,.921-.143c.728-.147,2.243-.461,2.593,1,.06.253.576.6.884.7.069-.055.161-.124.23-.184.677-.534,1.516-1.2,2.368-.815a1.474,1.474,0,0,1,.8,1.419c.023.562.2.852.355.921a1.165,1.165,0,0,0,.977-.235.806.806,0,0,1,.263-.106c1.718-.415,4.86-.461,5.721,1.925a1.843,1.843,0,0,0,.967,1.216,2.187,2.187,0,0,0,1.686-.336.921.921,0,1,1,.921,1.589,4.45,4.45,0,0,1-2.211.673,3.017,3.017,0,0,1-1.041-.18,3.546,3.546,0,0,1-2.068-2.3c-.461-1.258-2.879-.889-3.446-.783a2.667,2.667,0,0,1-2.653.193,2.58,2.58,0,0,1-1.262-1.907l-.244.189a2.893,2.893,0,0,1-.848.548,2.368,2.368,0,0,1-1.737-.336,3.188,3.188,0,0,1-1.382-1.451,2.966,2.966,0,0,0-.53.092,7.218,7.218,0,0,1-1.285.175h-.028c-1.539,0-2.423-2.073-2.764-3.017a9.83,9.83,0,0,1-2.3-3.763,2.994,2.994,0,0,1-.345.286,2.211,2.211,0,0,1-1.235.373,2.622,2.622,0,0,1-.516-.092c-1.64-.373-1.548-1.843-1.5-2.543.051-.778,0-.958-.258-1.115a.921.921,0,0,1,.921-1.589A2.7,2.7,0,0,1,19.6,56.443a3.367,3.367,0,0,0,0,.6h.078A.41.41,0,0,0,20.033,57a2.078,2.078,0,0,0,.585-1.156.921.921,0,0,1,.1-.263,19.279,19.279,0,0,1-.295-3.473A3.837,3.837,0,0,1,21.609,49a6.059,6.059,0,0,1,4.21-1.216c1.059-1.672,1.465-3.1,1.152-4.173a2.635,2.635,0,0,0-1.5-1.621.909.909,0,0,1,.023-1.7c2.165-.815,1.7-5.219,1.7-5.265a.928.928,0,0,1,1.843-.23c.028.2.516,4.293-1.52,6.348a4.3,4.3,0,0,1,1.087,1.6.894.894,0,0,1,.313.327,6.2,6.2,0,0,0,.981,1.092c.217.2.424.405.6.594a6.08,6.08,0,0,0,1.142.986,5.173,5.173,0,0,1,.161-.567c.032-.12.064-.253.1-.387a3.052,3.052,0,0,1,1.5-2.3,3.257,3.257,0,0,1,1.631-.157,1.81,1.81,0,0,1,1.382,1.083,3.146,3.146,0,0,1-.235,2.727,4.209,4.209,0,0,1-2.764,1.746l-.166.037c.037.562.253.585.364.6a6.076,6.076,0,0,0,2.474-.562c.553-.392,2.368-1.548,3.787-.921.53.235,1.327,2.174,1.327,2.174s.074.618.143.921l.276-.226a3.4,3.4,0,0,1,3.151-1.059,5.312,5.312,0,0,1,1.087.424h.037a4.977,4.977,0,0,0,3.137-.571.921.921,0,0,1,1.161,1.414,5.242,5.242,0,0,1-2.764.972,5.159,5.159,0,0,1,.111.755,3.327,3.327,0,0,0,.055.461,1.778,1.778,0,0,0,.207.576s.175.069.709-.147a8.094,8.094,0,0,0,1.313-.7c1.41-.921,2.626-1.193,3.625-.778a2.957,2.957,0,0,1,1.691,2.363c.028.138.069.345.461.369a1.686,1.686,0,0,0,1.566-.921.922.922,0,1,1,1.75.58,3.515,3.515,0,0,1-3.252,2.2h-.17A2.257,2.257,0,0,1,53.306,54c-.069-.322-.23-.889-.59-1.036-.18-.074-.728-.161-1.907.613a9.8,9.8,0,0,1-1.626.871,4.279,4.279,0,0,1-.461.152,3.791,3.791,0,0,0,1.331,1.645.928.928,0,0,1-.921,1.612A6.533,6.533,0,0,1,46.6,54.334a1.649,1.649,0,0,1-.244-.226,2.93,2.93,0,0,1-.608-1.336,4.533,4.533,0,0,1-.1-.728,2.934,2.934,0,0,0-.028-.59,1.99,1.99,0,0,0-1.317-.838c-.461-.124-.8.106-1.5.691-.143.12-.286.24-.433.35a1.686,1.686,0,0,1-1.769.359c-1.013-.461-1.152-1.843-1.23-2.621-.032-.359-.129-.622-.24-.673-.345-.152-1.382.3-2.045.788a.921.921,0,0,1-.217.143,9.476,9.476,0,0,1-2.667.728,3.469,3.469,0,0,0,1.188,1.382.927.927,0,0,1-.921,1.608c-1.806-1.009-2.547-3.533-2.626-3.819v-.064a3.022,3.022,0,0,1-.461-1.746,6.61,6.61,0,0,1-2.271-1.7c-.111-.115-.235-.24-.364-.364a11.7,11.7,0,0,1-2.211,4.353c-.226.419-1.916,3.713-.875,5.44a2.3,2.3,0,0,1,3.377,2.008v.1c.258.111.461.184.659.253a6.573,6.573,0,0,1,1.036.461c.221.115.424.244.613.364s.29.18.41.244a1.4,1.4,0,0,0,.1-.193c.382-.8,1.732-3.395,3.225-3.395h.037a1.437,1.437,0,0,1,1.29.977,9.581,9.581,0,0,1,.433,1.686c.06.309.147.746.24,1.069a4.02,4.02,0,0,1,3.782-1.156,2.124,2.124,0,0,1,1.35,1.843,8.249,8.249,0,0,1,0,1.469,3.556,3.556,0,0,0,0,.949,1.843,1.843,0,0,0,.488.055c.382,0,.806,0,1.244-.032,1.9-.074,3.685-.143,4.57.755a1.649,1.649,0,0,1,.461,1.29,8.5,8.5,0,0,1-.115,1.064,10,10,0,0,0-.129,1.631,4.464,4.464,0,0,0,1.345-1.064c.732-.742,1.741-1.76,3.151-1.119a4.547,4.547,0,0,1,1.525,1.175,1.663,1.663,0,0,0,.295.29h0a.672.672,0,0,0,.157,0c.29-.069.424-.111.461-.124a1.52,1.52,0,0,1,.972-.18,1.864,1.864,0,0,1,1.585,1.142h0a.941.941,0,0,1,.861,1.6Z" transform="translate(-165.292 -18.329)" fill="none" stroke="#ec8046" stroke-width="1"/>
        <path id="Path_13631" data-name="Path 13631" d="M58.826,44.535c-.244-1.446-.5-2.939-.663-4.408A41.956,41.956,0,0,0,55.61,29.532,41.436,41.436,0,0,0,49.378,18.15a22.226,22.226,0,0,0-4.8-4.468c-.244.166-.493.345-.742.534-.369,1.414-.35,2.833-.064,3a4.772,4.772,0,0,0,1,.405,2.493,2.493,0,0,1,1.658,1.092,2.041,2.041,0,0,1,.032,1.6,12.437,12.437,0,0,0-.815,3.736,3.8,3.8,0,0,0,1.059,2.566l.332.461a.967.967,0,0,1,.032,1.11.921.921,0,0,1-1.5,0c-.115-.166-.23-.318-.341-.461A5.516,5.516,0,0,1,43.8,24.041a13.622,13.622,0,0,1,.921-4.312,1.054,1.054,0,0,0,.041-.166c-.129-.06-.359-.134-.539-.193a6.5,6.5,0,0,1-1.382-.576,2.743,2.743,0,0,1-1.133-2.529A15.1,15.1,0,0,0,38.419,24.1a.921.921,0,0,1-.921.8h-.124a.921.921,0,0,1-.788-1.036,16.271,16.271,0,0,1,9.862-13.262.921.921,0,0,0,.557-.806l.134-2.971A.921.921,0,0,0,46.02,5.9a24.281,24.281,0,0,0-9.927,5.159.921.921,0,0,1-1.129.1l-.921-.594-1.773,1.843.53,1.179a.921.921,0,0,1-.461,1.212A4.6,4.6,0,0,0,30.611,17.4a.921.921,0,0,1-1.778-.461,7.093,7.093,0,0,1,1.949-3.3l-.461-1.032a.921.921,0,0,1,.175-1.023L33.26,8.771a.921.921,0,0,1,1.156-.134l.981.631a26.938,26.938,0,0,1,4.924-3.225,6.183,6.183,0,0,0-1.949-4.51C35.945-.585,32.283.1,32.09.138c-7.37,1.769-8.9,9.674-9.213,12.041l-.921.249a44.524,44.524,0,0,1,.207-9.264,1.41,1.41,0,0,0,.2-.677,1.843,1.843,0,0,0-.571-1.308C20.8.193,18.8,0,17.3,0c-2.391,0-4.146,1.059-4.146,2.487a1.87,1.87,0,0,0,.585,1.327c.35,2.3.921,7.831-.534,12.47L10.66,23.106C7.952,29.942,8.633,38.639,12.323,44.25c.124.193.258.378.392.562-.147,1.258-.861,7.324-1.382,10.236a2.879,2.879,0,0,0,.5,2.207,2.764,2.764,0,0,0,1.884,1.11l4.091.571a3,3,0,0,0,.415.028,3.049,3.049,0,0,0,2.99-2.45l.921-4.377.488.226A51.65,51.65,0,0,0,34.78,56.452c1.608.29,3.225.433,4.818.571a35.816,35.816,0,0,1,6.449.954,23.456,23.456,0,0,0,6.2.986c4.445,0,6.26-2.059,6.965-4.114C59.616,53.572,59.238,46.637,58.826,44.535Z" transform="translate(-160)" fill="none" stroke="#000" stroke-width="1.1"/>
      </g>
    </g>
  </g>
</svg>
