<svg xmlns="http://www.w3.org/2000/svg" xmlns:xlink="http://www.w3.org/1999/xlink" width="68" height="68" viewBox="0 0 68 68">
  <defs>
    <clipPath id="clip-_Liposuction">
      <rect width="68" height="68"/>
    </clipPath>
  </defs>
  <g id="_Liposuction" data-name=" Liposuction" clip-path="url(#clip-_Liposuction)">
    <g id="liposuction" transform="translate(-29.664 2.001)">
      <path id="Path_14486" data-name="Path 14486" d="M126.2,2.749a.871.871,0,0,0,1.7-.393c-.135-.584-.294-1.17-.472-1.743a.871.871,0,1,0-1.664.516C125.932,1.662,126.079,2.207,126.2,2.749Z" transform="translate(-79.6 0)" fill="#ec8046"/>
      <path id="Path_14487" data-name="Path 14487" d="M125.3,102.633a.871.871,0,0,0,1.1-.556,24.827,24.827,0,0,0,.83-3.261.871.871,0,1,0-1.714-.314,23.076,23.076,0,0,1-.771,3.032.871.871,0,0,0,.556,1.1Z" transform="translate(-78.692 -86.428)" fill="#ec8046"/>
      <path id="Path_14488" data-name="Path 14488" d="M103.873,155.523a.871.871,0,0,0,1.145-.456l1.284-2.985a.871.871,0,0,0-1.6-.689l-1.284,2.985A.872.872,0,0,0,103.873,155.523Z" transform="translate(-59.819 -133.341)" fill="#ec8046"/>
      <path id="Path_14489" data-name="Path 14489" d="M134.88,42.078a.871.871,0,0,0-.788.947c.064.694.1,1.4.1,2.1,0,.342-.008.688-.023,1.029a.871.871,0,0,0,.831.91h.04a.871.871,0,0,0,.87-.832c.016-.366.025-.738.025-1.107,0-.751-.035-1.511-.1-2.258A.872.872,0,0,0,134.88,42.078Z" transform="translate(-86.99 -37.187)" fill="#ec8046"/>
      <path id="Path_14490" data-name="Path 14490" d="M100.926,442.311c-.462-.866-.9-1.758-1.309-2.649a.871.871,0,1,0-1.585.724c.422.924.878,1.847,1.357,2.745a.871.871,0,1,0,1.538-.82Z" transform="translate(-55.053 -388.137)"/>
      <path id="Path_14491" data-name="Path 14491" d="M81.275,395.4a.872.872,0,0,0,.813-1.184c-.351-.916-.679-1.854-.972-2.79a.871.871,0,0,0-1.662.523c.3.969.644,1.942,1.008,2.891A.872.872,0,0,0,81.275,395.4Z" transform="translate(-38.666 -345.42)"/>
      <path id="Path_14492" data-name="Path 14492" d="M123.929,485.249a.871.871,0,1,0-1.484.913c.309.5.631,1.005.957,1.494a.871.871,0,0,0,1.45-.966C124.538,486.219,124.228,485.734,123.929,485.249Z" transform="translate(-76.585 -428.512)"/>
      <path id="Path_14493" data-name="Path 14493" d="M241.475,14.511a.872.872,0,0,0-.964-.767l-1.261.143a13.4,13.4,0,0,0-1-2.8l-2.389-4.876A12.2,12.2,0,0,1,234.619.874a.871.871,0,0,0-1.743,0,13.954,13.954,0,0,0,1.415,6.105l2.389,4.876a11.654,11.654,0,0,1,.823,2.23l-2.167.246.268-.358a.871.871,0,1,0-1.394-1.046L232.73,14.9a.871.871,0,0,0,.135,1.189l1.886,1.592a.871.871,0,1,0,1.124-1.332l-.342-.288,2.274-.258a11.454,11.454,0,0,1-1.13,6.187,11.605,11.605,0,0,1-1.648,2.491l-.2-.456a.871.871,0,0,0-1.6.689l.462,1.073a11.479,11.479,0,0,1-5.033,2.406,63.911,63.911,0,0,1-17.179,1.16.871.871,0,0,0-.118,1.739q2.219.15,4.441.15A65.641,65.641,0,0,0,229.011,29.9a13.235,13.235,0,0,0,5.392-2.449,39.343,39.343,0,0,1,2.539,9.11l-2.21.277a23.29,23.29,0,0,0-6.915,1.987.871.871,0,1,0,.733,1.581,21.553,21.553,0,0,1,6.4-1.839l2.218-.278c.048.445.09.89.123,1.336a.87.87,0,0,0-1.173.655c-.177.965-.385,1.937-.621,2.888a.871.871,0,1,0,1.692.419q.106-.429.2-.863a39.354,39.354,0,0,1-1.831,11.651l-1.1,3.476a.871.871,0,1,0,1.661.526l1.1-3.476a41.116,41.116,0,0,0-1.431-28.651l-.008-.018a13.34,13.34,0,0,0,3.758-10.626l1.168-.133a.872.872,0,0,0,.767-.964Z" transform="translate(-154.57 -0.003)"/>
      <path id="Path_14494" data-name="Path 14494" d="M72.585,459.811c-.033-.1-.064-.208-.1-.313l-.046-.154a.871.871,0,0,0-1.667.506l.045.149c.034.112.067.225.1.337l1.1,3.476a.871.871,0,0,0,1.661-.526Z" transform="translate(-30.999 -405.436)"/>
      <path id="Path_14495" data-name="Path 14495" d="M368.5,3.4a.87.87,0,0,0,1.045-.652c.126-.542.273-1.087.438-1.62a.871.871,0,1,0-1.664-.516c-.178.573-.336,1.16-.472,1.743A.871.871,0,0,0,368.5,3.4Z" transform="translate(-293.569 -0.001)" fill="#ec8046"/>
      <path id="Path_14496" data-name="Path 14496" d="M383.134,152.082l1.284,2.985a.871.871,0,0,0,1.6-.689l-1.284-2.985a.871.871,0,0,0-1.6.689Z" transform="translate(-307.041 -133.341)" fill="#ec8046"/>
      <path id="Path_14497" data-name="Path 14497" d="M363.416,47.063h.04a.871.871,0,0,0,.831-.91c-.015-.34-.023-.686-.023-1.029,0-.7.032-1.4.1-2.1a.871.871,0,1,0-1.735-.159c-.069.747-.1,1.507-.1,2.258,0,.368.008.741.025,1.107A.871.871,0,0,0,363.416,47.063Z" transform="translate(-288.887 -37.187)" fill="#ec8046"/>
      <path id="Path_14498" data-name="Path 14498" d="M366.589,97.8a.871.871,0,0,0-.7,1.014,24.81,24.81,0,0,0,.83,3.261.871.871,0,1,0,1.656-.543A23.1,23.1,0,0,1,367.6,98.5.871.871,0,0,0,366.589,97.8Z" transform="translate(-291.85 -86.429)" fill="#ec8046"/>
      <path id="Path_14499" data-name="Path 14499" d="M410.088,395.348a.87.87,0,0,0,1.126-.5c.364-.949.7-1.922,1.008-2.891a.871.871,0,0,0-1.662-.523c-.294.935-.621,1.874-.972,2.79A.871.871,0,0,0,410.088,395.348Z" transform="translate(-330.432 -345.421)"/>
      <path id="Path_14500" data-name="Path 14500" d="M390.605,439.231a.871.871,0,0,0-1.154.431c-.407.891-.847,1.782-1.309,2.649a.871.871,0,1,0,1.538.82c.479-.9.935-1.821,1.357-2.745A.871.871,0,0,0,390.605,439.231Z" transform="translate(-311.439 -388.136)"/>
      <path id="Path_14501" data-name="Path 14501" d="M369.331,484.964a.871.871,0,0,0-1.2.285c-.3.485-.609.97-.923,1.441a.871.871,0,1,0,1.45.966c.325-.488.647-.991.957-1.494a.871.871,0,0,0-.285-1.2Z" transform="translate(-292.9 -428.512)"/>
      <path id="Path_14502" data-name="Path 14502" d="M69.676,40.876l-7.363,5a1.919,1.919,0,0,1-2.166,0L52.494,40.68a23.427,23.427,0,0,0-10.2-3.842l-2.1-.263a39.346,39.346,0,0,1,2.521-9.057,13.24,13.24,0,0,0,5.3,2.383c1.644.338,3.326.616,5,.827a.862.862,0,0,0,.11.007A.871.871,0,0,0,53.235,29c-1.628-.205-3.266-.476-4.866-.805a11.481,11.481,0,0,1-4.947-2.335l.492-1.144a.871.871,0,0,0-1.6-.689l-.234.544a11.6,11.6,0,0,1-1.727-2.579,11.454,11.454,0,0,1-1.129-6.2l2.389.271-.342.288a.871.871,0,1,0,1.124,1.332L44.28,16.09a.871.871,0,0,0,.135-1.189l-1.481-1.974a.871.871,0,1,0-1.394,1.046l.268.358-2.28-.259a11.652,11.652,0,0,1,.82-2.217l2.389-4.876A13.954,13.954,0,0,0,44.153.873a.871.871,0,1,0-1.743,0,12.2,12.2,0,0,1-1.238,5.339l-2.389,4.876a13.4,13.4,0,0,0-1,2.786l-1.148-.13a.871.871,0,1,0-.2,1.731l1.053.12a13.337,13.337,0,0,0,3.838,10.721,40.915,40.915,0,0,0-2.49,24.4.871.871,0,0,0,1.707-.348,39.546,39.546,0,0,1-.8-7.669q.1.449.212.894a.871.871,0,0,0,1.692-.419c-.236-.952-.445-1.923-.621-2.888a.871.871,0,0,0-1.18-.653q.048-.664.119-1.326l2.113.265a21.677,21.677,0,0,1,9.434,3.555l7.653,5.192a3.686,3.686,0,0,0,1.248.545v2.006a21.443,21.443,0,0,1-1.681,8.346.871.871,0,1,0,1.607.675,23.424,23.424,0,0,0,.946-2.7,23.4,23.4,0,0,0,.946,2.7.871.871,0,0,0,1.607-.675,21.444,21.444,0,0,1-1.681-8.346V47.828a3.691,3.691,0,0,0,1.132-.514l7.363-5a.871.871,0,0,0-.978-1.442Z" transform="translate(0 -0.002)"/>
      <path id="Path_14503" data-name="Path 14503" d="M249.605,180.091a.871.871,0,0,0,.871-.871v-.889a.871.871,0,0,0-1.743,0v.889A.871.871,0,0,0,249.605,180.091Z" transform="translate(-188.317 -156.844)" fill="#ec8046"/>
    </g>
  </g>
</svg>
