<svg xmlns="http://www.w3.org/2000/svg" xmlns:xlink="http://www.w3.org/1999/xlink" width="68" height="68" viewBox="0 0 68 68">
  <defs>
    <clipPath id="clip-Laminectomy">
      <rect width="68" height="68"/>
    </clipPath>
  </defs>
  <g id="Laminectomy" clip-path="url(#clip-Laminectomy)">
    <g id="spine_surgery" data-name="spine surgery" transform="translate(-424 -1135)">
      <g id="Group_17181" data-name="Group 17181" transform="translate(-4 2)">
        <g id="noun-spine-3523804" transform="translate(429.978 1137)">
          <path id="Path_7496" data-name="Path 7496" d="M21.882,6.6c.52-.263,1.049-.508,1.588-.715a3.846,3.846,0,0,0,2-1.718L25.6,3.93a3.737,3.737,0,0,0,.454-1.789V1H24.2V2.14a1.868,1.868,0,0,1-.23.9l-.132.242a1.991,1.991,0,0,1-1.044.876,19.73,19.73,0,0,0-2.518,1.186c-.03-.016-.062-.026-.093-.042-.144-.071-.29-.138-.442-.2-.061-.025-.123-.046-.186-.069a4.1,4.1,0,0,0-.406-.126c-.068-.019-.135-.037-.2-.052-.142-.033-.288-.058-.433-.08-.061-.008-.122-.02-.186-.028a5.579,5.579,0,0,0-.625-.037h0A5.523,5.523,0,0,0,12.27,9.1a10.576,10.576,0,0,0-7.835,3.408,11.161,11.161,0,0,0-3.413,6.787l1.856.138A9.424,9.424,0,0,1,5.755,13.82c2.178-2.178,5.034-3.281,7.1-2.754a.914.914,0,0,0,.79-.159.928.928,0,0,0,.371-.717,3.684,3.684,0,0,1,3.69-3.622h0a3.712,3.712,0,0,1,.664.067c.068.012.134.029.2.045a3.845,3.845,0,0,1,.447.139c.065.025.13.046.193.075a3.712,3.712,0,0,1,2.208,3.386h1.856A5.537,5.537,0,0,0,21.882,6.6Z" stroke="#fff" stroke-width="0.4"/>
          <path id="Path_7497" data-name="Path 7497" d="M11.676,24.555a3.241,3.241,0,0,0-2.559-.1,6.966,6.966,0,0,1-2.163.48l.084,1.856a8.786,8.786,0,0,0,2.742-.6,1.4,1.4,0,0,1,1.1.045,1.462,1.462,0,0,1,.769.862,52.723,52.723,0,0,1,2.767,16.873,52.785,52.785,0,0,1-2.23,15.19l-.236.786,1.778.534.238-.8a54.592,54.592,0,0,0,2.306-15.713A54.578,54.578,0,0,0,13.413,26.5a3.341,3.341,0,0,0-1.737-1.95Z" transform="translate(-0.427 -1.673)" stroke="#fff" stroke-width="0.4"/>
          <path id="Path_7498" data-name="Path 7498" d="M51.6,24.554A3.346,3.346,0,0,0,49.863,26.5a54.692,54.692,0,0,0-.557,33.177l.238.8,1.778-.534-.239-.8a52.843,52.843,0,0,1,.538-32.05,1.462,1.462,0,0,1,.769-.862A1.4,1.4,0,0,1,53.5,26.19a8.786,8.786,0,0,0,2.743.6l.084-1.856a6.966,6.966,0,0,1-2.163-.48,3.235,3.235,0,0,0-2.559.1Z" transform="translate(-3.31 -1.673)" stroke="#fff" stroke-width="0.4"/>
          <path id="Path_7499" data-name="Path 7499" d="M57.622,12.507A10.529,10.529,0,0,0,49.786,9.1a5.523,5.523,0,0,0-5.434-4.388h0a5.529,5.529,0,0,0-.624.037c-.062.007-.124.019-.186.029-.146.021-.289.045-.43.078-.07.016-.138.035-.207.054-.136.036-.27.078-.4.124-.064.022-.128.045-.191.07q-.223.093-.435.2c-.032.016-.066.027-.1.044a19.794,19.794,0,0,0-2.524-1.188,1.986,1.986,0,0,1-1.043-.877l-.131-.237a1.876,1.876,0,0,1-.227-.9V1H36V2.143a3.734,3.734,0,0,0,.454,1.783l.131.24a3.837,3.837,0,0,0,2,1.721c.54.209,1.07.454,1.592.717a5.536,5.536,0,0,0-1.4,3.676H40.64a3.712,3.712,0,0,1,2.209-3.388c.061-.027.124-.048.186-.071a3.619,3.619,0,0,1,.454-.141c.066-.016.131-.032.2-.045a3.669,3.669,0,0,1,4.368,3.552.928.928,0,0,0,1.158.876c2.073-.529,4.918.576,7.1,2.754a9.424,9.424,0,0,1,2.877,5.613l1.856-.138a11.161,11.161,0,0,0-3.421-6.785Z" transform="translate(-2.518)" stroke="#fff" stroke-width="0.4"/>
          <path id="Path_7500" data-name="Path 7500" d="M35.208,21.208h.464a2.32,2.32,0,0,0,0-4.64h-.464V15.64a.921.921,0,0,0-.027-.134.516.516,0,0,0,0-.093L34.253,11.7a.928.928,0,0,0-.9-.7H29.64a.928.928,0,0,0-.9.7l-.928,3.712a.883.883,0,0,0,0,.1.92.92,0,0,0-.027.126v.928H27.32a2.32,2.32,0,0,0,0,4.64h.464v.928h0v.928H27.32a2.32,2.32,0,0,0,0,4.64h.464v.928h0v.928H27.32a2.32,2.32,0,0,0,0,4.64h.464v.928h0v.928H27.32a2.32,2.32,0,0,0,0,4.64h.464v.928h0v.928H27.32a2.32,2.32,0,0,0,0,4.64h.464v.928h0v.928H27.32a2.32,2.32,0,0,0,0,4.64h.464v.928a.928.928,0,0,0,.928.928H34.28a.928.928,0,0,0,.928-.928v-.928h.464a2.32,2.32,0,1,0,0-4.64h-.464V48.12h0v-.928h.464a2.32,2.32,0,0,0,0-4.64h-.464v-.928h0V40.7h.464a2.32,2.32,0,0,0,0-4.64h-.464v-.928h0V34.2h.464a2.32,2.32,0,0,0,0-4.64h-.464v-.928h0V27.7h.464a2.32,2.32,0,0,0,0-4.64h-.464v-.928h0Zm-4.844-8.352h2.262l.464,1.856H29.9Zm-3.044,6.5a.464.464,0,0,1,0-.928h1.392a.928.928,0,0,0,.928-.928v-.928h3.712V17.5a.928.928,0,0,0,.928.928h1.392a.464.464,0,0,1,0,.928H34.28a.928.928,0,0,0-.928.928v.928h-.928V19.352H30.568v1.856H29.64V20.28a.928.928,0,0,0-.928-.928ZM35.672,50.9a.464.464,0,0,1,0,.928H34.28a.928.928,0,0,0-.928.928v.928h-.928V51.832H30.568v1.856H29.64V52.76a.928.928,0,0,0-.928-.928H27.32a.464.464,0,1,1,0-.928h1.392a.928.928,0,0,0,.928-.928v-.928h3.712v.928a.928.928,0,0,0,.928.928Zm0-6.5a.464.464,0,0,1,0,.928H34.28a.928.928,0,0,0-.928.928v.928h-.928V45.336H30.568v1.856H29.64v-.928a.928.928,0,0,0-.928-.928H27.32a.464.464,0,1,1,0-.928h1.392a.928.928,0,0,0,.928-.928v-.928h3.712v.928a.928.928,0,0,0,.928.928Zm0-6.5a.464.464,0,0,1,0,.928H34.28a.928.928,0,0,0-.928.928V40.7h-.928V38.84H30.568V40.7H29.64v-.928a.928.928,0,0,0-.928-.928H27.32a.464.464,0,0,1,0-.928h1.392a.928.928,0,0,0,.928-.928v-.928h3.712v.928a.928.928,0,0,0,.928.928Zm0-6.5a.464.464,0,0,1,0,.928H34.28a.928.928,0,0,0-.928.928V34.2h-.928V32.344H30.568V34.2H29.64v-.928a.928.928,0,0,0-.928-.928H27.32a.464.464,0,0,1,0-.928h1.392a.928.928,0,0,0,.928-.928V29.56h3.712v.928a.928.928,0,0,0,.928.928Zm0-6.5a.464.464,0,0,1,0,.928H34.28a.928.928,0,0,0-.928.928V27.7h-.928V25.848H30.568V27.7H29.64v-.928a.928.928,0,0,0-.928-.928H27.32a.464.464,0,0,1,0-.928h1.392a.928.928,0,0,0,.928-.928v-.928h3.712v.928a.928.928,0,0,0,.928.928Z" transform="translate(-1.726 -0.72)" fill="#ec8046" stroke="#fff" stroke-width="0.4"/>
        </g>
        <path id="Path_13535" data-name="Path 13535" d="M19.424,29.315,11.74,32.356,26.393,17.7l2.021-2.021L39.74,4.357C41.389,2.707,43.477,2.3,44.583,3.4l.153.162c1.115,1.106.705,3.184-.953,4.843L32.476,19.686l-2.021,2.021-5.386,5.386-5.644,2.221M29.11,17.7l1.344,1.354.677-.677L42.39,7.074c1.02-1.011,1.106-1.992.953-2.145l-.153-.153c-.153-.153-1.134-.067-2.155.953L29.787,16.989Zm-9.533,9.533,4.443-1.745,5.11-5.11-1.354-1.344Z" transform="translate(448.011 1156.332)" stroke="#fff" stroke-width="0.5"/>
      </g>
      <rect id="Rectangle_5272" data-name="Rectangle 5272" width="68" height="68" transform="translate(424 1135)" fill="none"/>
    </g>
  </g>
</svg>
