<svg xmlns="http://www.w3.org/2000/svg" xmlns:xlink="http://www.w3.org/1999/xlink" width="68" height="68" viewBox="0 0 68 68">
  <defs>
    <clipPath id="clip-Prostatectomy">
      <rect width="68" height="68"/>
    </clipPath>
  </defs>
  <g id="Prostatectomy" clip-path="url(#clip-Prostatectomy)">
    <g id="g3036" transform="translate(8.24 690.906)">
      <g id="g3038" transform="translate(0 -682.665)">
        <g id="Group_17478" data-name="Group 17478">
          <g id="g3046" transform="translate(4.033 0.759)">
            <path id="path3048" d="M0,0V7.978A1.639,1.639,0,0,0,1.637,9.615H4.4" fill="none" stroke="#000" stroke-linecap="round" stroke-linejoin="round" stroke-miterlimit="10" stroke-width="1.5"/>
          </g>
          <g id="g3050" transform="translate(0.759 0.759)">
            <path id="path3052" d="M-97.079-156.818h-3.069a4.915,4.915,0,0,1-4.91-4.91v-7.978" transform="translate(105.057 169.706)" fill="none" stroke="#000" stroke-linecap="round" stroke-linejoin="round" stroke-miterlimit="10" stroke-width="1.5"/>
          </g>
          <g id="g3054" transform="translate(33.625 27.218)">
            <path id="path3056" d="M0,0A6.652,6.652,0,0,1,5.174,5.716" fill="none" stroke="#000" stroke-linecap="round" stroke-linejoin="round" stroke-miterlimit="10" stroke-width="1.5"/>
          </g>
          <g id="g3058" transform="translate(12.932 27.218)">
            <path id="path3060" d="M-124.459-141.05a2.659,2.659,0,0,1-2.659,2.659h-1.432c-3.39,0-6.137-3.206-6.137-7.16,0-3.618,2.3-6.609,5.287-7.092" transform="translate(134.688 152.642)" fill="none" stroke="#000" stroke-linecap="round" stroke-linejoin="round" stroke-miterlimit="10" stroke-width="1.5"/>
          </g>
          <g id="g3062" transform="translate(13.022 21.746)">
            <path id="path3064" d="M0,0A25.548,25.548,0,0,0,8.265,7.486a3.464,3.464,0,0,1,1.874,3.085V29.339" fill="none" stroke="#000" stroke-linecap="round" stroke-linejoin="round" stroke-miterlimit="10" stroke-width="1.5"/>
          </g>
          <g id="g3066" transform="translate(8.533 0.759)">
            <path id="path3068" d="M-31.061-219.3a16.9,16.9,0,0,1-2.553-7.845c0-7.344,10.045-10.177,17.389-10.177s17.389,2.833,17.389,10.177c0,5.873-6.424,15.051-12.753,18.3a3.464,3.464,0,0,0-1.874,3.085v18.767" transform="translate(33.613 237.319)" fill="none" stroke="#000" stroke-linecap="round" stroke-linejoin="round" stroke-miterlimit="10" stroke-width="1.5"/>
          </g>
          <g id="g3070" transform="translate(28.683 32.878)">
            <path id="path3072" d="M-193.6-184.318a9.068,9.068,0,0,0,2.3-6.044,9.1,9.1,0,0,0-9.1-9.1,9.1,9.1,0,0,0-9.1,9.1,9.1,9.1,0,0,0,9.1,9.1,9.063,9.063,0,0,0,3.986-.916" transform="translate(209.506 199.466)" fill="none" stroke="#000" stroke-linecap="round" stroke-linejoin="round" stroke-miterlimit="10" stroke-width="1.5"/>
          </g>
          <g id="g3074" transform="translate(36.151 40.345)">
            <path id="path3076" d="M-39.827-19.914a1.637,1.637,0,0,1-1.637,1.637A1.637,1.637,0,0,1-43.1-19.914a1.637,1.637,0,0,1,1.637-1.637A1.637,1.637,0,0,1-39.827-19.914Z" transform="translate(43.1 21.551)" fill="none" stroke="#ec8046" stroke-linecap="round" stroke-linejoin="round" stroke-miterlimit="10" stroke-width="1.5"/>
          </g>
          <g id="g3078" transform="translate(31.957 36.151)">
            <path id="path3080" d="M-124.3-110.553l-.12-.6a.971.971,0,0,1,.077-.605q.1-.207.176-.426a.971.971,0,0,1,.373-.483l.511-.341a.96.96,0,0,0,0-1.6l-.511-.341a.971.971,0,0,1-.373-.483q-.078-.218-.176-.426a.971.971,0,0,1-.077-.605l.12-.6a.96.96,0,0,0-1.13-1.13l-.6.12a.972.972,0,0,1-.605-.077q-.207-.1-.426-.176a.972.972,0,0,1-.483-.373l-.341-.511a.96.96,0,0,0-1.6,0l-.341.511a.971.971,0,0,1-.483.373q-.218.078-.426.176a.972.972,0,0,1-.605.077l-.6-.12a.96.96,0,0,0-1.13,1.13l.12.6a.972.972,0,0,1-.077.605q-.1.207-.176.426a.972.972,0,0,1-.373.483l-.511.341a.96.96,0,0,0,0,1.6l.511.341a.971.971,0,0,1,.373.483q.078.218.176.426a.972.972,0,0,1,.077.605l-.12.6a.96.96,0,0,0,1.13,1.13l.6-.12a.972.972,0,0,1,.605.077q.208.1.426.176a.971.971,0,0,1,.483.373l.341.511a.96.96,0,0,0,1.6,0l.341-.511a.972.972,0,0,1,.483-.373q.218-.078.426-.176a.972.972,0,0,1,.605-.077l.6.12A.96.96,0,0,0-124.3-110.553Z" transform="translate(134.516 119.639)" fill="none" stroke="#ec8046" stroke-linecap="round" stroke-linejoin="round" stroke-miterlimit="10" stroke-width="1.5"/>
          </g>
          <g id="g3082" transform="translate(43.106 0.759)">
            <path id="path3084" d="M-97.079,0V7.978a4.915,4.915,0,0,1-4.91,4.91h-3.069" transform="translate(105.057)" fill="none" stroke="#000" stroke-linecap="round" stroke-linejoin="round" stroke-miterlimit="10" stroke-width="1.5"/>
          </g>
          <g id="g3086" transform="translate(47.811 0.759)">
            <path id="path3088" d="M0-28.584v-2.349" transform="translate(0 30.933)" fill="none" stroke="#000" stroke-linecap="round" stroke-linejoin="round" stroke-miterlimit="10" stroke-width="1.5"/>
          </g>
          <g id="g3090" transform="translate(43.413 6.653)">
            <path id="path3092" d="M-53.509,0V2.085a1.639,1.639,0,0,1-1.636,1.637h-2.761" transform="translate(57.907)" fill="none" stroke="#000" stroke-linecap="round" stroke-linejoin="round" stroke-miterlimit="10" stroke-width="1.5"/>
          </g>
        </g>
      </g>
    </g>
  </g>
</svg>
