<svg xmlns="http://www.w3.org/2000/svg" width="68" height="68" viewBox="0 0 68 68">
  <g id="Lipoma" transform="translate(-303 -623)">
    <g id="Gastroenterology" transform="translate(239 543)">
      <g id="Rectangle_5259" data-name="Rectangle 5259" transform="translate(64 80)" fill="none" stroke="#fff" stroke-width="0.4">
        <rect width="68" height="68" stroke="none"/>
        <rect x="0.2" y="0.2" width="67.6" height="67.6" fill="none"/>
      </g>
    </g>
    <g id="Group_17163" data-name="Group 17163" transform="translate(-222.505 -160.945)">
      <path id="Path_13621" data-name="Path 13621" d="M1054.4,800.466a17.4,17.4,0,0,0-7.637,1.757l-1.476-1.606-.168-.221a7.721,7.721,0,0,1-1.37-6.644,8.794,8.794,0,0,1,1.363-2.974.515.515,0,1,0-.811-.634,9.68,9.68,0,0,0-1.54,3.317,8.8,8.8,0,0,0,1.529,7.546l.007.009.186.245a.235.235,0,0,0,.031.035l1.308,1.423a17.475,17.475,0,0,0-5.3,25.884l-1.131,2.035-.309.475c-6.088,9.762-12.345,12.467-16.524,13.015a3.434,3.434,0,0,1-2.683-.793,3.372,3.372,0,0,1-1.191-2.51,8.626,8.626,0,0,1,.347-3.058c.057-.155.583-.974,5.323-2a.515.515,0,1,0-.217-1.008c-4.9,1.056-5.82,1.969-6.07,2.645a9.6,9.6,0,0,0-.411,3.443,4.444,4.444,0,0,0,4.455,4.338,4.7,4.7,0,0,0,.583-.038c4.4-.577,10.962-3.387,17.258-13.484l.314-.482a.221.221,0,0,0,.018-.031l.944-1.695a17.491,17.491,0,1,0,13.17-28.991Zm0,33.961a16.466,16.466,0,1,1,16.466-16.466A16.485,16.485,0,0,1,1054.4,834.427Z" transform="translate(-479.321)"/>
      <path id="Path_13622" data-name="Path 13622" d="M2830.113,1583.7c-.919,0-2.413.791-3.672,2.561a13.812,13.812,0,0,0-2.241,8.2v2.647a.514.514,0,0,0,.371.5,2.092,2.092,0,0,1,0,4.017.516.516,0,0,0-.371.495v6.152a.515.515,0,0,0,1.03,0v-5.792a3.119,3.119,0,0,0,0-5.723v-2.287a12.8,12.8,0,0,1,2.051-7.6,5.578,5.578,0,0,1,2.32-2.009v20.862a.515.515,0,0,0,1.03,0v-21.5A.519.519,0,0,0,2830.113,1583.7Z" transform="translate(-2245.946 -776.216)" fill="#ec8046"/>
      <path id="Path_13623" data-name="Path 13623" d="M2189.271,1405.732l-.769-4.545a.515.515,0,0,0-1.016.17l.826,4.89a.515.515,0,0,0,.413.42,6.985,6.985,0,0,1-2.468,13.751.514.514,0,0,0-.537.261l-2.846,5.195a.513.513,0,0,0,.2.7.53.53,0,0,0,.248.064.514.514,0,0,0,.451-.267l2.674-4.879a7.359,7.359,0,0,0,.981.068,8.02,8.02,0,0,0,1.841-15.826Z" transform="translate(-1618.728 -597.315)" fill="#ec8046"/>
      <path id="Path_13624" data-name="Path 13624" d="M2425.58,1767.663a.59.59,0,0,0-.08-.049.449.449,0,0,0-.071-.06,4.824,4.824,0,0,0-1.4-.663.514.514,0,1,0-.285.988,3.8,3.8,0,0,1,1.1.521.437.437,0,0,0,.071.04.475.475,0,0,0,.049.044,3.823,3.823,0,0,1,.851.877.512.512,0,0,0,.422.219.526.526,0,0,0,.3-.093.514.514,0,0,0,.126-.716A4.94,4.94,0,0,0,2425.58,1767.663Z" transform="translate(-1853.974 -955.34)" fill="#ec8046"/>
      <path id="Path_13625" data-name="Path 13625" d="M2306.635,2143.487a4.9,4.9,0,0,0,1.529.25h.015a4.843,4.843,0,0,0,1.529-.247.514.514,0,1,0-.323-.977,3.832,3.832,0,0,1-1.207.195h-.013a3.758,3.758,0,0,1-1.2-.2.515.515,0,0,0-.327.977Z" transform="translate(-1739.473 -1322.652)" fill="#ec8046"/>
      <path id="Path_13626" data-name="Path 13626" d="M2527.047,1958.789a.515.515,0,1,0,.826.614,4.824,4.824,0,0,0,.95-2.888.515.515,0,0,0-1.03,0A3.809,3.809,0,0,1,2527.047,1958.789Z" transform="translate(-1955.26 -1140.289)" fill="#ec8046"/>
      <path id="Path_13627" data-name="Path 13627" d="M530.906,985.936h-.091A2.228,2.228,0,0,1,528.6,983.9a10.7,10.7,0,0,1,.287-4.185c.086-.23.963-1.447,9.866-2.817a13.732,13.732,0,0,0,9.265-5.869,73.426,73.426,0,0,0,5.595-9.5c2.163-4.757-.329-9.294-7.016-12.774-3.814-1.984-16.113-8.059-16.239-8.118a.515.515,0,0,0-.455.924c.124.062,12.414,6.13,16.219,8.11,4.335,2.256,8.991,6.072,6.554,11.435a72.718,72.718,0,0,1-5.511,9.351,12.693,12.693,0,0,1-8.569,5.427,63.556,63.556,0,0,0-6.622,1.317c-3.2.866-3.847,1.609-4.053,2.159a11.436,11.436,0,0,0-.349,4.625,3.26,3.26,0,0,0,3.239,2.987h.091a.516.516,0,0,0,0-1.032Z" transform="translate(0 -147.306)"/>
      <path id="Path_13628" data-name="Path 13628" d="M753.121,2712.772h-1.206a2.228,2.228,0,0,1-2.214-2.037,10.7,10.7,0,0,1,.287-4.185c.064-.17.659-1.074,6.207-2.179a.515.515,0,1,0-.2-1.01c-5.666,1.129-6.7,2.106-6.972,2.831a11.437,11.437,0,0,0-.349,4.625,3.26,3.26,0,0,0,3.239,2.988h1.209a.516.516,0,0,0,0-1.032Z" transform="translate(-216.214 -1871.126)"/>
    </g>
  </g>
</svg>
