<svg xmlns="http://www.w3.org/2000/svg" xmlns:xlink="http://www.w3.org/1999/xlink" width="68" height="68" viewBox="0 0 68 68">
  <defs>
    <clipPath id="clip-path">
      <path id="path447" d="M0-682.665H58.977v58.977H0Z" transform="translate(0 682.665)"/>
    </clipPath>
  </defs>
  <g id="Thyroidectomy" transform="translate(-64 -79)">
    <rect id="Rectangle_5259" data-name="Rectangle 5259" width="68" height="68" transform="translate(64 79)" fill="none"/>
    <g id="g441" transform="translate(69 766.665)">
      <g id="g443" transform="translate(0 -682.665)">
        <g id="g445" clip-path="url(#clip-path)">
          <g id="g451" transform="translate(24.305 51.202)">
            <path id="path453" d="M-27.408-73.088h-.864A1.733,1.733,0,0,1-30-74.816v-3.456A1.733,1.733,0,0,1-28.272-80h6.911a1.733,1.733,0,0,1,1.728,1.728v3.456a1.733,1.733,0,0,1-1.728,1.728h-.864m-1.728,0H-25.68" transform="translate(30 80)" fill="none" stroke="#000" stroke-miterlimit="22.926" stroke-width="1.4"/>
          </g>
          <g id="g455" transform="translate(24.305 44.291)">
            <path id="path457" d="M-18.272-73.088A1.733,1.733,0,0,1-20-74.816v-3.456A1.733,1.733,0,0,1-18.272-80h6.911a1.733,1.733,0,0,1,1.728,1.728v3.456a1.733,1.733,0,0,1-1.728,1.728" transform="translate(20 80)" fill="none" stroke="#000" stroke-miterlimit="22.926" stroke-width="1.4"/>
          </g>
          <g id="g459" transform="translate(24.305 37.379)">
            <path id="path461" d="M-18.272-73.088h6.911a1.733,1.733,0,0,0,1.728-1.728v-3.456A1.733,1.733,0,0,0-11.361-80h-6.911A1.733,1.733,0,0,0-20-78.272v3.456A1.733,1.733,0,0,0-18.272-73.088Z" transform="translate(20 80)" fill="none" stroke="#000" stroke-miterlimit="22.926" stroke-width="1.4"/>
          </g>
          <g id="g467" transform="translate(24.305 23.556)">
            <path id="path469" d="M0-52.957v-3.28a1.733,1.733,0,0,1,1.728-1.728H8.639a1.733,1.733,0,0,1,1.728,1.728v3.28" transform="translate(0 57.965)" fill="none" stroke="#000" stroke-miterlimit="22.926" stroke-width="1.4"/>
          </g>
          <g id="g463" transform="translate(9.21 18.829)">
            <path id="path465" d="M-7.477-115.772l-.229-.858c-3-11.236,9-12.589,11.5-6.522,2.759,6.706,3.709,8.072,8.3,8.072s5.545-1.366,8.3-8.072c2.5-6.067,14.5-4.714,11.5,6.522l-3.181,11.917a5.11,5.11,0,0,1-9.084,1.834l-2.352-3.562m-10.367,0-2.352,3.562a5.11,5.11,0,0,1-9.084-1.834L-7.031-114.1" transform="translate(8.184 126.719)" fill="none" stroke="#ec8046" stroke-miterlimit="22.926" stroke-width="1.4"/>
          </g>
          <g id="g471" transform="translate(24.305 16.645)">
            <path id="path473" d="M-18.272-73.088A1.733,1.733,0,0,1-20-74.816v-3.456A1.733,1.733,0,0,1-18.272-80h6.911a1.733,1.733,0,0,1,1.728,1.728v3.456a1.733,1.733,0,0,1-1.728,1.728" transform="translate(20 80)" fill="none" stroke="#000" stroke-miterlimit="22.926" stroke-width="1.4"/>
          </g>
          <g id="g475" transform="translate(20.849 0.864)">
            <path id="path477" d="M-54.816-166.885a1.733,1.733,0,0,1-1.728-1.728c0-4.108-3.456-8.217-3.456-12.325a1.733,1.733,0,0,1,1.728-1.728h2.592a1.733,1.733,0,0,1,1.728,1.728c0,7.028,5.184,7.028,5.184,0a1.733,1.733,0,0,1,1.728-1.728h2.592a1.733,1.733,0,0,1,1.728,1.728c0,4.109-3.456,8.217-3.456,12.325a1.733,1.733,0,0,1-1.728,1.728" transform="translate(60 182.666)" fill="none" stroke="#000" stroke-miterlimit="22.926" stroke-width="1.4"/>
          </g>
          <g id="g479" transform="translate(14.682 27.472)">
            <path id="path481" d="M-293.679-104.769a1.728,1.728,0,0,1-1.728,1.728,1.728,1.728,0,0,1-1.728-1.728m-.005-5.241a1.728,1.728,0,0,1-1.728,1.728,1.728,1.728,0,0,1-1.728-1.728m-19.012,5.241a1.728,1.728,0,0,0,1.728,1.728,1.728,1.728,0,0,0,1.728-1.728m.005-5.241a1.728,1.728,0,0,0,1.728,1.728,1.728,1.728,0,0,0,1.728-1.728m-8.76-4.666a1.728,1.728,0,0,0,1.728,1.728,1.728,1.728,0,0,0,1.728-1.728m26.158,0a1.728,1.728,0,0,1-1.728,1.728,1.728,1.728,0,0,1-1.728-1.728" transform="translate(321.45 114.676)" fill="none" stroke="#000" stroke-miterlimit="22.926" stroke-width="1.4"/>
          </g>
          <g id="g483" transform="translate(42.5 21.741)">
            <path id="path485" d="M-36.544-36.544v-1.728m-3.456,0V-40" transform="translate(40 40)" fill="none" stroke="#000" stroke-miterlimit="2.613" stroke-width="1.4"/>
          </g>
        </g>
      </g>
    </g>
  </g>
</svg>
