<svg xmlns="http://www.w3.org/2000/svg" xmlns:xlink="http://www.w3.org/1999/xlink" width="68" height="68" viewBox="0 0 68 68">
  <defs>
    <clipPath id="clip-path">
      <rect id="Rectangle_19" data-name="Rectangle 19" width="42" height="44" transform="translate(0 -0.125)" fill="none"/>
    </clipPath>
  </defs>
  <g id="endoscopy_icon" transform="translate(-217 -117)">
    <rect id="Rectangle_52" data-name="Rectangle 52" width="68" height="68" rx="3" transform="translate(217 117)" fill="#fff"/>
    <g id="Group_27" data-name="Group 27" transform="translate(230.893 129.125)">
      <g id="Group_26" data-name="Group 26" transform="translate(-0.893 0)" clip-path="url(#clip-path)">
        <path id="Path_102" data-name="Path 102" d="M14.454,1A8.715,8.715,0,0,0,13.4,8.474a28.479,28.479,0,0,0,3.571,6,13.22,13.22,0,0,1,2.651,6.4,7.787,7.787,0,0,1-5.514,7.75c-3.226.883-6.95-.413-9.851,1.262C2.068,31.155,1.007,33.854,1,36.4a18.517,18.517,0,0,0,1.5,6.786" transform="translate(-0.312 -0.219)" fill="none" stroke="#000" stroke-linecap="round" stroke-linejoin="round" stroke-width="1.6"/>
        <path id="Path_103" data-name="Path 103" d="M10.078,43.187a16.01,16.01,0,0,1-1.529-3.252c-.4-1.434-.382-3.322.912-4.3a2.8,2.8,0,0,1,2.719-.343,5.58,5.58,0,0,1,1.909,1.616,13.162,13.162,0,0,0,4.679,3.655,13.251,13.251,0,0,0,11.164-.805,23.815,23.815,0,0,0,8.331-7.914c4.3-6.294,8.121-17.331,1.011-23.17a12.289,12.289,0,0,0-6.645-2.635,9.588,9.588,0,0,0-5.281,1.223c-1.424.746-2.671,2.039-4.408,1.753a4.387,4.387,0,0,1-3.1-3.206A6.2,6.2,0,0,1,21.178,1" transform="translate(-1.914 -0.219)" fill="none" stroke="#000" stroke-linecap="round" stroke-linejoin="round" stroke-width="1.6"/>
        <ellipse id="Ellipse_8" data-name="Ellipse 8" cx="2" cy="1.5" rx="2" ry="1.5" transform="translate(26 21.875)" fill="none" stroke="#ed8851" stroke-linecap="round" stroke-linejoin="round" stroke-width="1.6"/>
        <line id="Line_19" data-name="Line 19" y2="2" transform="translate(28 27.875)" fill="none" stroke="#ed8851" stroke-linecap="round" stroke-linejoin="round" stroke-width="1.6"/>
        <line id="Line_20" data-name="Line 20" x2="0.781" y2="1.353" transform="translate(31.547 27.448)" fill="none" stroke="#ed8851" stroke-linecap="round" stroke-linejoin="round" stroke-width="1.6"/>
        <line id="Line_21" data-name="Line 21" x1="0.781" y2="1.353" transform="translate(23.734 27.448)" fill="none" stroke="#ed8851" stroke-linecap="round" stroke-linejoin="round" stroke-width="1.6"/>
        <path id="Path_104" data-name="Path 104" d="M23.347,14.022a9.57,9.57,0,0,0,3.6,3.6c.973.55,2.033.923,3.034,1.419a6.251,6.251,0,0,1,2.574,2.08c.766,1.191.68,2.263.68,3.826" transform="translate(-5.201 -3.067)" fill="none" stroke="#ed8851" stroke-linecap="round" stroke-linejoin="round" stroke-width="1.6"/>
      </g>
    </g>
  </g>
</svg>
