<svg xmlns="http://www.w3.org/2000/svg" xmlns:xlink="http://www.w3.org/1999/xlink" width="68" height="68" viewBox="0 0 68 68">
  <defs>
    <clipPath id="clip-path">
      <rect id="Rectangle_20" data-name="Rectangle 20" width="57.532" height="46.354" fill="none"/>
    </clipPath>
  </defs>
  <g id="cholecystectomy_icon" transform="translate(-370 -117)">
    <rect id="Rectangle_52" data-name="Rectangle 52" width="68" height="68" rx="3" transform="translate(370 117)" fill="#fff"/>
    <g id="Group_32" data-name="Group 32" transform="translate(378 131)">
      <g id="Group_31" data-name="Group 31" transform="translate(-3 -3)" clip-path="url(#clip-path)">
        <path id="Path_120" data-name="Path 120" d="M205.431,73.781a8.3,8.3,0,0,0-.981-2.4" transform="translate(-165.8 -56.082)" fill="#fff"/>
        <path id="Path_121" data-name="Path 121" d="M205.431,73.781a8.3,8.3,0,0,0-.981-2.4" transform="translate(-165.8 -56.082)" fill="none" stroke="#000" stroke-linecap="round" stroke-linejoin="round" stroke-width="2"/>
        <path id="Path_122" data-name="Path 122" d="M82.429,38.694c6.7-5,6.519-20.6,6.519-20.6,1.874-1.782,3.791-5.823,4.113-6.518a.509.509,0,0,0,.047-.214V8.354a.509.509,0,0,0-.949-.258,45.761,45.761,0,0,1-3.718,5.156C88.137,8.078,85.5,1.686,85.5,1.686c-2.131-1.928-4.674.816-4.674.816a39.744,39.744,0,0,1,3.83,11.884,58,58,0,0,0-6.618-4.581c-3.055-1.709-4.69-1.411-5.7,0s.267,2.788,1.078,3.4,2.815,3.336.267,2.789a42.483,42.483,0,0,0-15.064-1.311A25.2,25.2,0,0,0,51.2,16.259a7.823,7.823,0,0,1,2.321,1.449c1.53,2.3,2.084-.018,5.413.8s2.27,2.9,3.709,4.2c.754.678,3.14,1.093,5.138,1.308a11.949,11.949,0,0,0,1.41-2.739c.342-1.394.469-1.726,3.068-1.062s7.936.132,6.756-4.748a15,15,0,0,1,5.6,3.5S85.2,29.641,78.864,36.28" transform="translate(-39.445 1.945)" fill="#fff"/>
        <path id="Path_123" data-name="Path 123" d="M82.429,38.694a13.117,13.117,0,0,0,3.927-5.524C89.049,26.943,88.948,18.1,88.948,18.1c1.874-1.782,3.791-5.823,4.113-6.518a.509.509,0,0,0,.047-.214V8.354a.509.509,0,0,0-.949-.258,45.761,45.761,0,0,1-3.718,5.156C88.137,8.078,85.5,1.686,85.5,1.686c-2.131-1.928-4.674.816-4.674.816a39.744,39.744,0,0,1,3.83,11.884,58,58,0,0,0-6.618-4.581c-3.055-1.709-4.69-1.411-5.7,0s.267,2.788,1.078,3.4,2.815,3.336.267,2.789a42.483,42.483,0,0,0-15.064-1.311A25.2,25.2,0,0,0,51.2,16.259a7.823,7.823,0,0,1,2.321,1.449c1.53,2.3,2.084-.018,5.413.8s2.27,2.9,3.709,4.2c.754.678,3.14,1.093,5.138,1.308a11.949,11.949,0,0,0,1.41-2.739c.342-1.394.469-1.726,3.068-1.062s7.936.132,6.756-4.748a15,15,0,0,1,5.6,3.5A29.805,29.805,0,0,1,82.3,31.074a18.118,18.118,0,0,1-3.44,5.206" transform="translate(-39.445 1.945)" fill="none" stroke="#000" stroke-linecap="round" stroke-linejoin="round" stroke-width="1.4"/>
        <path id="Path_124" data-name="Path 124" d="M17.544,90.2c-3.329-.819-3.883,1.5-5.413-.8A7.827,7.827,0,0,0,9.81,87.949C4.83,89.852,1.478,93.158,1.1,96.4c-.545,4.664.88,8.673,11.021,8.257,7.326-.3,12.071-5.537,14.27-8.947-2-.216-4.384-.63-5.138-1.308-1.439-1.294-.38-3.38-3.709-4.2" transform="translate(1.945 -69.745)" fill="#fff"/>
        <path id="Path_125" data-name="Path 125" d="M17.544,90.2c-3.329-.819-3.883,1.5-5.413-.8A7.827,7.827,0,0,0,9.81,87.949C4.83,89.852,1.478,93.158,1.1,96.4c-.545,4.664.88,8.673,11.021,8.257,7.326-.3,12.071-5.537,14.27-8.947-2-.216-4.384-.63-5.138-1.308C19.813,93.1,20.873,91.018,17.544,90.2Z" transform="translate(1.945 -69.745)" fill="none" stroke="#ed8851" stroke-linecap="round" stroke-linejoin="round" stroke-width="1.3"/>
        <path id="Path_126" data-name="Path 126" d="M35.5,111.29a20.265,20.265,0,0,0-3.348,2.207" transform="translate(-23.736 -88.99)" fill="#fff"/>
        <path id="Path_127" data-name="Path 127" d="M35.5,111.29a20.265,20.265,0,0,0-3.348,2.207" transform="translate(-23.736 -88.99)" fill="none" stroke="#ed8851" stroke-linecap="round" stroke-linejoin="round" stroke-width="1.4"/>
      </g>
    </g>
  </g>
</svg>
