<svg xmlns="http://www.w3.org/2000/svg" width="68" height="68" viewBox="0 0 68 68">
  <g id="Hysterectomy" transform="translate(-985 -269)">
    <g id="Thoracic_Surgery" data-name="Thoracic Surgery" transform="translate(921 190)">
      <rect id="Rectangle_5259" data-name="Rectangle 5259" width="68" height="68" transform="translate(64 79)" fill="none"/>
    </g>
    <g id="Group_17104" data-name="Group 17104" transform="translate(-8027 7323)">
      <g id="uterus_1_" data-name="uterus (1)" transform="translate(9017 -7088.923)">
        <g id="Group_17102" data-name="Group 17102" transform="translate(0 44.923)">
          <g id="Group_17101" data-name="Group 17101" transform="translate(0 0)">
            <path id="Path_13475" data-name="Path 13475" d="M55.156,47.017,55.1,46.9a5.907,5.907,0,0,0-8.3-.519l-1.383,1.21a8.168,8.168,0,0,1-2.824,1.614,4.014,4.014,0,0,1-2.478-.231c-.058,0-.115-.058-.173-.058l-3-1.21a21.5,21.5,0,0,0-16.483.115l-2.478,1.037c-.115,0-.173.058-.288.115a3.458,3.458,0,0,1-2.536.231,8.583,8.583,0,0,1-2.824-1.614l-1.383-1.21a5.907,5.907,0,0,0-8.3.519l-.115.115A9.474,9.474,0,0,0,.982,57.679l.98,2.017a.524.524,0,0,0,.35.306.579.579,0,0,0,.053.04.44.44,0,0,0,.288.115.7.7,0,0,0,.519-.231l.922-1.383.242.161a3.961,3.961,0,0,0,1.89,3.066,8.367,8.367,0,0,0,4.265,1.1,8.015,8.015,0,0,0,3.054-.576A2.826,2.826,0,0,0,15.119,60.6a2.787,2.787,0,0,0,.848.129,4.575,4.575,0,0,0,1.844-.461c.135-.09.3-.214.454-.319.586,1.027,1.248,2.012,1.909,2.97l1.614,2.305a5.4,5.4,0,0,1,.576,5.187l-.231.519a12.194,12.194,0,0,0-.519,7.838l3.458,12.737a1.174,1.174,0,0,0,.749.807,1.061,1.061,0,0,0,1.1-.173l.576-.461a2.519,2.519,0,0,1,2.882-.115l1.1.749a1.162,1.162,0,0,0,.634.173c.173,0,.288-.058.519-.058a1.363,1.363,0,0,0,.692-.807l3.17-12.91a12.116,12.116,0,0,0-.576-7.55l-.231-.576a5.337,5.337,0,0,1,.634-5.3l1.383-1.9a25.125,25.125,0,0,0,2.239-3.708,4.644,4.644,0,0,0,2.544,1.979,3.559,3.559,0,0,0,2.511,0A2.471,2.471,0,0,0,46.915,63.1a5.075,5.075,0,0,0,.98.115,6.149,6.149,0,0,0,4.783-2.132,3.8,3.8,0,0,0,.586-1.4l.163-.041,1.729.4h.115a.435.435,0,0,0,.073-.007.5.5,0,0,0,.055-.013l.013,0a.718.718,0,0,0,.436-.438.483.483,0,0,0,.006-.135l.858-1.767A9.574,9.574,0,0,0,55.156,47.017ZM14.7,59.984a1.991,1.991,0,0,1-1.326,1.787,7.843,7.843,0,0,1-6.8-.461,3.8,3.8,0,0,1-1.585-2.171l.144.1a1.177,1.177,0,0,0,1.153.058,1.145,1.145,0,0,0,.692-.922l.115-.807L8.7,57.045a.57.57,0,0,0,.2-.962.606.606,0,0,0-.083-.075L7.837,55.3a2.42,2.42,0,0,1,1.79.822,8.739,8.739,0,0,0,3.688,2.363C14.353,58.831,14.756,59,14.7,59.984Zm.008-1.415a4.561,4.561,0,0,0-1.218-.6,7.565,7.565,0,0,1-3.458-2.19,2.976,2.976,0,0,0-2.868-.961l-.187-.134a3.07,3.07,0,0,1-1.037-3.688,1.807,1.807,0,0,1,1.21-1.037,1.886,1.886,0,0,1,1.556.288l2.132,1.5a12.619,12.619,0,0,0,3.4,1.729,4.851,4.851,0,0,1,2.132,1.441,12.9,12.9,0,0,0,1.007,3.307,1.012,1.012,0,0,1-.143.093,2.962,2.962,0,0,1-2.363.231A.467.467,0,0,0,14.706,58.569Zm2.816,1.184a3.246,3.246,0,0,1-2.307.3c0-.006,0-.011,0-.016a2.152,2.152,0,0,0-.069-.83,4.038,4.038,0,0,0,.761.081,2.439,2.439,0,0,0,1.614-.461.682.682,0,0,1,.1-.082q.172.352.358.7ZM50.431,54.93a2.19,2.19,0,0,0-2.94,1.308,6.029,6.029,0,0,1-1.5,2.075,4.929,4.929,0,0,0-.983,1.212,3.121,3.121,0,0,1-2.36.172,3.742,3.742,0,0,1-1.973-1.681A24.934,24.934,0,0,0,41.9,54.106a1.509,1.509,0,0,1,.749-.346A11.049,11.049,0,0,0,46.857,51.8l2.19-1.556a1.7,1.7,0,0,1,1.556-.288,1.828,1.828,0,0,1,1.21,1.037,3.125,3.125,0,0,1-1.037,3.688Zm-7.723,6.149A4,4,0,0,1,40.287,59c-.007-.011-.014-.019-.021-.029.053-.116.1-.233.154-.35a4.524,4.524,0,0,0,2,1.589,2.339,2.339,0,0,0,1.1.231,4.191,4.191,0,0,0,1.276-.2,2.7,2.7,0,0,0,.039.826A3.209,3.209,0,0,1,42.708,61.079Zm9.509-.288c-.864,1.268-3.4,2.132-5.129,1.787a1.915,1.915,0,0,1-1.616-1.272.289.289,0,0,0,0-.226.5.5,0,0,0-.067-.055c-.2-1.056.253-1.571.99-2.308a7.06,7.06,0,0,0,1.614-2.248,1.608,1.608,0,0,1,1.832-1.115l-.91.654a.531.531,0,0,0-.173.245.565.565,0,0,0-.058.158.6.6,0,0,0,.461.692l1.729.346.115,1.383a1.235,1.235,0,0,0,.519.864,1.007,1.007,0,0,0,.98.173l.138-.034A3.522,3.522,0,0,1,52.217,60.791Zm3.516-3.573-.764,1.574-1.31-.306a.982.982,0,0,0-.576,0l-.864.231L52.1,57.333a1.223,1.223,0,0,0-.98-1.037l-.477-.1,1-.711a4.224,4.224,0,0,0,1.383-5.072,3.135,3.135,0,0,0-1.959-1.671,3.064,3.064,0,0,0-2.536.461l-2.19,1.556a11.266,11.266,0,0,1-3.8,1.787,2.861,2.861,0,0,0-1.268.576l-.173.115c-.115.115-.231.231-.231.346a23.863,23.863,0,0,1-4.092,9.048l-1.383,1.9a6.649,6.649,0,0,0-.807,6.455l.231.576a10.8,10.8,0,0,1,.519,6.858L32.219,91.394l-.464-.317c0-.01,0-.019,0-.029l.692-12.276a18.8,18.8,0,0,1,1.1-4.726l.461-1.153a1.491,1.491,0,0,0-1.671-2.017l-1.614.346c-.173.058-.288.173-.231.346s.173.288.346.231l1.614-.346a.951.951,0,0,1,.864.288.925.925,0,0,1,.173.922l-.461,1.153c-.2.522-.379,1.043-.528,1.567a.332.332,0,0,0-.106.162c-.115.4-.461.922-2.536.922a.288.288,0,1,0,0,.576,5.177,5.177,0,0,0,2.331-.388,20.758,20.758,0,0,0-.314,2.059L31.79,80.2a.279.279,0,0,0-.09.131c-.231.576-.692.922-2.075.98a.288.288,0,1,0,0,.576,3.338,3.338,0,0,0,2.105-.633L31.6,83.5a.328.328,0,0,0-.02.115c0,.288-.4.519-1.037.692-.173.058-.288.173-.231.346a.383.383,0,0,0,.288.231c.058,0,.058,0,.115-.058a3.082,3.082,0,0,0,.827-.3L31.2,90.7l-.077-.053a3.635,3.635,0,0,0-4.219.139l-.664-11.84a3.014,3.014,0,0,0,1.194.406c.115,0,.231-.058.231-.288a.254.254,0,0,0-.231-.346c-.838-.1-1.152-.352-1.289-.7a19.849,19.849,0,0,0-.933-3.8,5.386,5.386,0,0,0,2.164.35.288.288,0,0,0,0-.576c-1.556,0-2.421-.288-2.593-.922a.464.464,0,0,0-.034-.056l-.139-.347a.879.879,0,0,1,.173-.922.951.951,0,0,1,.864-.288l1.614.346a.234.234,0,0,0,.29-.111.258.258,0,0,0,.056-.293l-1.383-7.262a17.727,17.727,0,0,0-3.054-7.2L23,56.7a11.11,11.11,0,0,0-1.556-1.729.288.288,0,0,0-.346.461,9.616,9.616,0,0,1,1.441,1.614l.173.231a17.13,17.13,0,0,1,3,6.973l1.314,6.9-1.256-.269a1.486,1.486,0,0,0-1.441.519,1.544,1.544,0,0,0-.231,1.5l.461,1.153a18.365,18.365,0,0,1,1.1,4.668l.692,12.333a.308.308,0,0,0,.039.154l-.1.077L22.825,78.542a11.073,11.073,0,0,1,.461-7.089l.231-.519a6.609,6.609,0,0,0-.692-6.282l-1.614-2.305c-1.556-2.305-3.17-4.783-3.573-7.55a.654.654,0,0,0-.173-.461,6.167,6.167,0,0,0-2.709-1.844,11.25,11.25,0,0,1-3.112-1.556L9.4,49.322a3.064,3.064,0,0,0-2.536-.461A3,3,0,0,0,4.9,50.532,4.151,4.151,0,0,0,6.284,55.6l.956.687-.552.178a1.277,1.277,0,0,0-.807.98l-.173.807-1.037-.692a1.228,1.228,0,0,0-1.614.288l-.411.657-.627-1.291a8.331,8.331,0,0,1,1.326-9.394l.115-.115a4.809,4.809,0,0,1,6.743-.4l1.441,1.21a9.69,9.69,0,0,0,3.285,1.844,4.619,4.619,0,0,0,3.4-.288c.058-.058.115-.115.173-.115l2.421-1.037A20.373,20.373,0,0,1,36.541,48.8l3,1.21c.058,0,.058.058.115.058a4.606,4.606,0,0,0,3.285.288,9.429,9.429,0,0,0,3.227-1.844l1.441-1.21a4.809,4.809,0,0,1,6.743.4l.058.115A8.431,8.431,0,0,1,55.732,57.218Z" transform="translate(0 -44.923)"/>
            <path id="Path_13476" data-name="Path 13476" d="M268.653,264.62c-.115-.058-.288.058-.288.231l-.058.346a.309.309,0,0,0,.288.288c.173,0,.288-.115.231-.23l.058-.346C268.941,264.793,268.826,264.62,268.653,264.62Z" transform="translate(-238.106 -239.877)"/>
            <path id="Path_13477" data-name="Path 13477" d="M270.246,243.116c-.115-.058-.288.058-.288.231l-.115,1.21a.309.309,0,0,0,.288.288c.115,0,.288-.115.231-.231l.115-1.21C270.535,243.289,270.419,243.116,270.246,243.116Z" transform="translate(-239.469 -220.793)"/>
            <path id="Path_13478" data-name="Path 13478" d="M280.19,111.89l-1.844,1.1a10.3,10.3,0,0,0-3.285,3.4l-.519.98a21.646,21.646,0,0,0-2.651,8.241.323.323,0,0,0,.288.346.232.232,0,0,0,.231-.288A20.8,20.8,0,0,1,275,117.653l.519-.98a8.644,8.644,0,0,1,3.112-3.17l1.844-1.1c.173-.115.231-.231.115-.4A.3.3,0,0,0,280.19,111.89Z" transform="translate(-241.286 -104.322)"/>
            <path id="Path_13479" data-name="Path 13479" d="M363.488,101.292l-.23.058a.316.316,0,0,0-.231.346.383.383,0,0,0,.288.231l.288-.058a.316.316,0,0,0,.23-.346C363.776,101.349,363.661,101.234,363.488,101.292Z" transform="translate(-322.164 -94.934)"/>
            <path id="Path_13480" data-name="Path 13480" d="M343.757,103.852l-.98.173a.316.316,0,0,0-.231.346.383.383,0,0,0,.288.231l1.037-.173a.316.316,0,0,0,.231-.346C344.045,103.909,343.93,103.794,343.757,103.852Z" transform="translate(-303.989 -97.205)"/>
            <path id="Path_13481" data-name="Path 13481" d="M314.163,108.3a2.919,2.919,0,0,0,.749-.115l1.153-.173c.173-.058.288-.173.231-.346s-.173-.288-.346-.231l-1.153.173c-.231.058-.461.058-.692.115a.316.316,0,0,0-.231.346C313.875,108.185,314.048,108.3,314.163,108.3Z" transform="translate(-278.544 -100.386)"/>
            <path id="Path_13482" data-name="Path 13482" d="M219.8,112.393a.389.389,0,0,0-.346-.231,47.47,47.47,0,0,1-10.316.058.294.294,0,0,0-.115.576,46.54,46.54,0,0,0,4.9.288,44.565,44.565,0,0,0,5.533-.346C219.632,112.738,219.862,112.508,219.8,112.393Z" transform="translate(-185.281 -104.593)"/>
            <path id="Path_13483" data-name="Path 13483" d="M173,107.385c-.4-.058-.749-.115-1.1-.173l-1.671-.288a.294.294,0,0,0-.115.576l1.671.288c.4.058.749.115,1.153.173.115,0,.288-.115.288-.231A.254.254,0,0,0,173,107.385Z" transform="translate(-150.749 -99.932)"/>
            <path id="Path_13484" data-name="Path 13484" d="M150.9,103.858a.254.254,0,0,0-.231-.346l-.922-.173a.294.294,0,1,0-.115.576l.922.173A.389.389,0,0,0,150.9,103.858Z" transform="translate(-132.574 -96.751)"/>
            <path id="Path_13485" data-name="Path 13485" d="M138.32,101.349l-.346-.058a.294.294,0,1,0-.115.576l.4.058a.383.383,0,0,0,.288-.231A.254.254,0,0,0,138.32,101.349Z" transform="translate(-122.124 -94.934)"/>
            <path id="Path_13486" data-name="Path 13486" d="M158.135,112.691a.288.288,0,0,0-.346.461l1.383.98a.212.212,0,0,0,.173.058c.058,0,.173-.058.173-.115a.285.285,0,0,0-.058-.4Z" transform="translate(-139.921 -105.007)"/>
            <path id="Path_13487" data-name="Path 13487" d="M178.1,126.515a.288.288,0,1,0-.346.461l.288.231a.212.212,0,0,0,.173.058.437.437,0,0,0,.231-.115.285.285,0,0,0-.058-.4Z" transform="translate(-157.642 -117.275)"/>
            <path id="Path_13488" data-name="Path 13488" d="M251.93,302.06c.173-.058.288-.173.231-.346s-.173-.288-.346-.231a.212.212,0,0,1-.173.058.316.316,0,0,0-.231.346c0,.115.173.231.288.231S251.872,302.118,251.93,302.06Z" transform="translate(-223.112 -272.591)"/>
            <path id="Path_13489" data-name="Path 13489" d="M253.578,324.069c-.173,0-.288-.058-.4-.058a.294.294,0,0,0-.115.576c.115,0,.288.058.461.058a.365.365,0,0,0,.346-.288A.309.309,0,0,0,253.578,324.069Z" transform="translate(-224.356 -292.584)"/>
            <path id="Path_13490" data-name="Path 13490" d="M247.725,346.658h-.634a.288.288,0,1,0,0,.576h.634a.288.288,0,0,0,0-.576Z" transform="translate(-219.022 -312.694)"/>
            <path id="Path_13491" data-name="Path 13491" d="M248.97,367.589a1.125,1.125,0,0,0-.4-.058c-.173-.058-.288.058-.346.231a.254.254,0,0,0,.23.346.854.854,0,0,0,.4.058.6.6,0,0,0,.4-.288A.309.309,0,0,0,248.97,367.589Z" transform="translate(-220.267 -331.205)"/>
          </g>
        </g>
      </g>
      <g id="Group_17103" data-name="Group 17103" transform="translate(3505.138 -17084.074) rotate(99)">
        <line id="Line_3555" data-name="Line 3555" y1="18.904" x2="17.749" transform="matrix(0.839, -0.545, 0.545, 0.839, 9060.276, -7065.157)" fill="none" stroke="#ec8046" stroke-linecap="round" stroke-linejoin="round" stroke-width="1.5"/>
        <path id="Path_13492" data-name="Path 13492" d="M34.7,26.095l-5.633-6.154-1.176,4.606,2.662,2.662Z" transform="matrix(0.839, -0.545, 0.545, 0.839, 9032.498, -7059.129)" fill="#ec8046"/>
      </g>
    </g>
  </g>
</svg>
