<svg xmlns="http://www.w3.org/2000/svg" xmlns:xlink="http://www.w3.org/1999/xlink" width="68" height="68" viewBox="0 0 68 68">
  <defs>
    <clipPath id="clip-Neurosurgery">
      <rect width="68" height="68"/>
    </clipPath>
  </defs>
  <g id="Neurosurgery" clip-path="url(#clip-Neurosurgery)">
    <g id="Group_11439" data-name="Group 11439">
      <g id="Brain" transform="translate(-4.478 -4.901)">
        <path id="Path_7566" data-name="Path 7566" d="M64.637,43.046a6.585,6.585,0,0,0,.679-1.195c1.678-3.952-.782-8.577-1.408-9.657.242-1.367,1.07-7.557-3.326-9.811a11.676,11.676,0,0,0-3.36-1.13c1.091-4.52-.87-7.687-3.244-8.741a5.1,5.1,0,0,0-1.836-.427.634.634,0,0,0-.15-.18c-4.36-3.5-8.81-4.839-11.625-3.484a4.111,4.111,0,0,0-1.846,1.737,4.111,4.111,0,0,0-1.846-1.737c-2.818-1.351-7.268-.012-11.625,3.488a.635.635,0,0,0-.15.18,5.152,5.152,0,0,0-1.836.427c-2.374,1.054-4.335,4.221-3.244,8.741a11.676,11.676,0,0,0-3.36,1.13c-4.4,2.251-3.569,8.444-3.326,9.811-.632,1.08-3.087,5.706-1.408,9.657A6.586,6.586,0,0,0,12.4,43.05a6.645,6.645,0,0,0-1.547,6.886,8.678,8.678,0,0,0,4.039,5.247,9.132,9.132,0,0,0,2.154,7.733,7.27,7.27,0,0,0,4.793,2.7A7.832,7.832,0,0,0,29.337,70.7a11.154,11.154,0,0,0,1.419-.094c4.6-.589,6.8-2.969,7.759-5.028.958,2.059,3.154,4.439,7.759,5.028a11.171,11.171,0,0,0,1.419.094,7.831,7.831,0,0,0,7.5-5.081,7.27,7.27,0,0,0,4.793-2.7,9.132,9.132,0,0,0,2.154-7.733,8.678,8.678,0,0,0,4.039-5.247A6.645,6.645,0,0,0,64.637,43.046ZM30.6,69.307a6.6,6.6,0,0,1-7.664-4.526.659.659,0,0,0-.7-.478,5.685,5.685,0,0,1-4.192-2.245A7.85,7.85,0,0,1,16.3,54.891a.651.651,0,0,0-.547-.807c-.972-.13-2.878-1.954-3.648-4.521a5.415,5.415,0,0,1,1.148-5.509,11.69,11.69,0,0,0,5.986,2.823A.651.651,0,1,0,19.5,45.6c-3.461-.71-5.672-2.142-6.572-4.255-1.608-3.778,1.414-8.633,1.446-8.681a.651.651,0,0,0,.086-.485c-.013-.066-1.362-6.611,2.6-8.638,2.963-1.515,5.917-1.517,8.109,0a6.925,6.925,0,0,1,2.8,6.528.655.655,0,0,0,1.3.143,8.227,8.227,0,0,0-3.359-7.747,7.864,7.864,0,0,0-4.764-1.347c-1-3.887.539-6.565,2.453-7.416,2.188-.972,4.752.235,6.535,3.08a.651.651,0,1,0,1.1-.692A8.139,8.139,0,0,0,26.7,12.3c3.625-2.671,7.257-3.754,9.407-2.711a3.478,3.478,0,0,1,1.759,3.364V27.016a5.551,5.551,0,0,0-1.386-1.384,4.03,4.03,0,0,0-3.853-.446.652.652,0,1,0,.489,1.209,2.736,2.736,0,0,1,2.636.317,5.5,5.5,0,0,1,2.115,4.517V55.084a8.078,8.078,0,0,0-1.694-1.726,5.554,5.554,0,0,0-4.7-1.216.651.651,0,1,0,.364,1.251A4.349,4.349,0,0,1,35.393,54.4a5.853,5.853,0,0,1,2.476,4.46v4.134C37.868,63.046,37.67,68.4,30.6,69.307ZM64.937,49.558c-.77,2.569-2.676,4.393-3.648,4.521a.651.651,0,0,0-.547.807A7.85,7.85,0,0,1,59,62.052a5.636,5.636,0,0,1-4.194,2.25.651.651,0,0,0-.7.478,6.6,6.6,0,0,1-7.664,4.526c-7.075-.9-7.273-6.254-7.273-6.314V25.247a2.792,2.792,0,0,1,.846-2.215,4.762,4.762,0,0,1,3.226-.842.652.652,0,1,0,.146-1.3,6.03,6.03,0,0,0-4.218,1.148V12.956A3.478,3.478,0,0,1,40.93,9.594c2.156-1.042,5.781.042,9.415,2.713a8.142,8.142,0,0,0-4.529,3.785.651.651,0,1,0,1.1.692c1.784-2.844,4.345-4.052,6.535-3.08,1.914.851,3.458,3.53,2.453,7.416a7.864,7.864,0,0,0-4.764,1.347,8.227,8.227,0,0,0-3.359,7.747.652.652,0,0,0,1.3-.143,6.925,6.925,0,0,1,2.8-6.535c2.192-1.514,5.148-1.513,8.109,0,3.957,2.027,2.606,8.572,2.6,8.638a.651.651,0,0,0,.086.485c.033.048,3.054,4.9,1.446,8.681-.9,2.113-3.111,3.545-6.572,4.255A.651.651,0,1,0,57.8,46.87a11.69,11.69,0,0,0,5.983-2.829A5.415,5.415,0,0,1,64.937,49.558Zm-9.549,4.848a.651.651,0,0,1-.651.644h-.01a9.274,9.274,0,0,0-5.9,2.215,6.558,6.558,0,0,0-1.807,4.859.651.651,0,0,1-1.3,0,7.8,7.8,0,0,1,2.2-5.792,8.478,8.478,0,0,1,3.114-1.9,8.949,8.949,0,0,0-1.518-6A7.544,7.544,0,0,0,43.919,45.8a.651.651,0,0,1-.6-.7.674.674,0,0,1,.7-.6,8.775,8.775,0,0,1,6.515,3.127,9.894,9.894,0,0,1,1.816,6.406,11.79,11.79,0,0,1,2.39-.3.651.651,0,0,1,.641.664ZM24.594,55.855a8.469,8.469,0,0,1,3.111,1.9,7.8,7.8,0,0,1,2.2,5.792.651.651,0,0,1-1.3,0,6.556,6.556,0,0,0-1.812-4.859,9.276,9.276,0,0,0-5.9-2.215h-.012a.651.651,0,1,1-.01-1.3,12,12,0,0,1,2.392.3,9.881,9.881,0,0,1,1.816-6.406,8.769,8.769,0,0,1,6.515-3.127.654.654,0,0,1,.109,1.3,7.531,7.531,0,0,0-5.588,2.62,8.943,8.943,0,0,0-1.518,6Z"/>
      </g>
      <g id="Brain-2" data-name="Brain" transform="translate(-4.478 -4.901)">
        <path id="Path_7566-2" data-name="Path 7566" d="M56.621,42.446a.654.654,0,0,1-.654.64h-.013a6.117,6.117,0,0,1-4.644-1.813,5.537,5.537,0,0,1-1.334-3.359,11.4,11.4,0,0,1-5.649-2.6.654.654,0,1,1,.8-1.031c2.851,2.222,5.407,2.9,7.6,2.013,2.745-1.114,4.369-4.558,4.771-7.479a.654.654,0,1,1,1.294.178c-.418,3.052-2.129,7.113-5.572,8.511a6.367,6.367,0,0,1-1.938.44,4.224,4.224,0,0,0,1,2.465,4.891,4.891,0,0,0,3.69,1.371.654.654,0,0,1,.64.667Z" transform="translate(0 0)" fill="#ec8046"/>
        <path id="Path_7567" data-name="Path 7567" d="M56.621,42.446a.654.654,0,0,1-.654.64h-.013a6.117,6.117,0,0,1-4.644-1.813,5.537,5.537,0,0,1-1.334-3.359,11.4,11.4,0,0,1-5.649-2.6.654.654,0,1,1,.8-1.031c2.851,2.222,5.407,2.9,7.6,2.013,2.745-1.114,4.369-4.558,4.771-7.479a.654.654,0,1,1,1.294.178c-.418,3.052-2.129,7.113-5.572,8.511a6.367,6.367,0,0,1-1.938.44,4.224,4.224,0,0,0,1,2.465,4.891,4.891,0,0,0,3.69,1.371.654.654,0,0,1,.64.667Z" fill="#ec8046"/>
      </g>
      <g id="Brain-3" data-name="Brain" transform="translate(-29.478 -3.901)">
        <path id="Path_7566-3" data-name="Path 7566" d="M56.621,42.446a.654.654,0,0,1-.654.64h-.013a6.117,6.117,0,0,1-4.644-1.813,5.537,5.537,0,0,1-1.334-3.359,11.4,11.4,0,0,1-5.649-2.6.654.654,0,1,1,.8-1.031c2.851,2.222,5.407,2.9,7.6,2.013,2.745-1.114,4.369-4.558,4.771-7.479a.654.654,0,1,1,1.294.178c-.418,3.052-2.129,7.113-5.572,8.511a6.367,6.367,0,0,1-1.938.44,4.224,4.224,0,0,0,1,2.465,4.891,4.891,0,0,0,3.69,1.371.654.654,0,0,1,.64.667Z" transform="translate(0 0)" fill="#ec8046"/>
        <path id="Path_7567-2" data-name="Path 7567" d="M56.621,42.446a.654.654,0,0,1-.654.64h-.013a6.117,6.117,0,0,1-4.644-1.813,5.537,5.537,0,0,1-1.334-3.359,11.4,11.4,0,0,1-5.649-2.6.654.654,0,1,1,.8-1.031c2.851,2.222,5.407,2.9,7.6,2.013,2.745-1.114,4.369-4.558,4.771-7.479a.654.654,0,1,1,1.294.178c-.418,3.052-2.129,7.113-5.572,8.511a6.367,6.367,0,0,1-1.938.44,4.224,4.224,0,0,0,1,2.465,4.891,4.891,0,0,0,3.69,1.371.654.654,0,0,1,.64.667Z" fill="#ec8046"/>
      </g>
    </g>
  </g>
</svg>
