<svg xmlns="http://www.w3.org/2000/svg" xmlns:xlink="http://www.w3.org/1999/xlink" width="68" height="68" viewBox="0 0 68 68">
  <defs>
    <clipPath id="clip-Carotid_endarterectomy">
      <rect width="68" height="68"/>
    </clipPath>
  </defs>
  <g id="Carotid_endarterectomy" data-name="Carotid endarterectomy" clip-path="url(#clip-Carotid_endarterectomy)">
    <g id="carotid-endarterectomy_1_" data-name="carotid-endarterectomy (1)" transform="translate(-62.408 -2.5)">
      <path id="Path_14471" data-name="Path 14471" d="M269.758,15.247l2.626-2.757A19.862,19.862,0,0,1,277.3,8.728L279.563,7.5" transform="translate(-172.16 0)" fill="none" stroke="#000" stroke-linecap="round" stroke-linejoin="round" stroke-miterlimit="10" stroke-width="2"/>
      <path id="Path_14472" data-name="Path 14472" d="M267.112,7.5l-4,3.082a21.961,21.961,0,0,0-5.872,6.865l-2.093,3.828a14.986,14.986,0,0,1-2.992,3.829l-4.726,4.355" transform="translate(-152.479 0)" fill="none" stroke="#000" stroke-linecap="round" stroke-linejoin="round" stroke-miterlimit="10" stroke-width="2"/>
      <path id="Path_14473" data-name="Path 14473" d="M74.408,7.5l.441,7.714a56.592,56.592,0,0,0,1.808,11.312l2.613,9.828a57.656,57.656,0,0,1,1.836,11.422l.393,6.664q.1,1.767.363,3.52L83.125,66.5" transform="translate(0 0)" fill="none" stroke="#000" stroke-linecap="round" stroke-linejoin="round" stroke-miterlimit="10" stroke-width="2"/>
      <path id="Path_14474" data-name="Path 14474" d="M127.956,7.5l6.178,15.493L137.517,7.5" transform="translate(-47.191 0)" fill="none" stroke="#000" stroke-linecap="round" stroke-linejoin="round" stroke-miterlimit="10" stroke-width="2"/>
      <path id="Path_14475" data-name="Path 14475" d="M246.875,445.183q-.031.25-.064.5l-.867,6.542" transform="translate(-151.173 -385.725)" fill="none" stroke="#000" stroke-linecap="round" stroke-linejoin="round" stroke-miterlimit="10" stroke-width="2"/>
      <path id="Path_14476" data-name="Path 14476" d="M249.813,286.514l.373,2.727a62.242,62.242,0,0,1,.424,12.751" transform="translate(-154.582 -245.892)" fill="none" stroke="#000" stroke-linecap="round" stroke-linejoin="round" stroke-miterlimit="10" stroke-width="2"/>
      <path id="Path_14477" data-name="Path 14477" d="M247.3,7.5v3.262A48.035,48.035,0,0,1,246.03,21.73l-.707,3.015a37.511,37.511,0,0,0-.7,13.233" transform="translate(-149.752 0)" fill="none" stroke="#000" stroke-linecap="round" stroke-linejoin="round" stroke-miterlimit="10" stroke-width="2"/>
      <g id="Group_17476" data-name="Group 17476" transform="translate(88.326 27.017)">
        <path id="Path_14478" data-name="Path 14478" d="M198.439,171.906l-5,.7a1.544,1.544,0,0,0-1.219,2.105l.007.017a8.13,8.13,0,0,1,.343,5.016l-.725,2.887A6.543,6.543,0,0,0,193,188.206l.637.829a2.288,2.288,0,0,1,.268,2.34h0a2.288,2.288,0,0,0,1.857,3.223l3.711.368" transform="translate(-191.652 -171.906)" fill="none" stroke="#000" stroke-linecap="round" stroke-linejoin="round" stroke-miterlimit="10" stroke-width="2"/>
      </g>
      <g id="Group_17477" data-name="Group 17477" transform="translate(93.098 18.785)">
        <path id="Path_14479" data-name="Path 14479" d="M242.519,202.522l1.662-1.559-2.024-2.157-10.312,9.674h0a8.055,8.055,0,0,0,8.445-1.627l1.37-1.285a1.219,1.219,0,0,0,.382-.809l.095-1.429A1.218,1.218,0,0,1,242.519,202.522Z" transform="translate(-231.845 -187.38)" fill="none" stroke="#ec8046" stroke-linecap="round" stroke-linejoin="round" stroke-miterlimit="10" stroke-width="2"/>
        <path id="Path_14483" data-name="Path 14483" d="M.425,0,0,.4" transform="translate(20.722 3.288)" fill="none" stroke="#ec8046" stroke-linecap="round" stroke-width="2"/>
        <path id="Path_14480" data-name="Path 14480" d="M318.313,108.042l-4.361,4.573a.687.687,0,0,0,0,.944l2.827,3.013a.687.687,0,0,0,.942.056l9.514-7.979a3.447,3.447,0,0,0,.3-5h0a3.447,3.447,0,0,0-5.008-.02l-1.8,1.889" transform="translate(-304.038 -102.56)" fill="none" stroke="#ec8046" stroke-linecap="round" stroke-linejoin="round" stroke-miterlimit="10" stroke-width="2"/>
      </g>
      <path id="Path_14481" data-name="Path 14481" d="M132.6,236.8l3.692-3.985a3.341,3.341,0,0,0,.179-4.33h0a3.341,3.341,0,0,1-.7-2.316l.307-4a8.773,8.773,0,0,0-.711-4.193l0,0" transform="translate(-51.28 -185.486)" fill="none" stroke="#000" stroke-linecap="round" stroke-linejoin="round" stroke-miterlimit="10" stroke-width="2"/>
      <path id="Path_14482" data-name="Path 14482" d="M99.287,170.553a3.34,3.34,0,0,0-1.491-1.114l-4.44-1.667" transform="translate(-16.699 -141.245)" fill="none" stroke="#000" stroke-linecap="round" stroke-linejoin="round" stroke-miterlimit="10" stroke-width="2"/>
    </g>
  </g>
</svg>
